<svg width="16" height="10" viewBox="0 0 16 10" fill="none" xmlns="http://www.w3.org/2000/svg">
<path d="M14.875 2.635H5.60875M5.60875 2.635C5.60875 3.06863 5.43574 3.4845 5.12912 3.79112C4.8225 4.09774 4.40663 4.27 3.973 4.27C3.53937 4.27 3.1235 4.09774 2.81688 3.79112C2.51026 3.4845 2.338 3.06863 2.338 2.635M5.60875 2.635C5.60875 2.20137 5.43574 1.7855 5.12912 1.47888C4.8225 1.17226 4.40663 1 3.973 1C3.53937 1 3.1235 1.17226 2.81688 1.47888C2.51026 1.7855 2.338 2.20137 2.338 2.635M2.338 2.635H1M14.875 7.59025H10.564M10.564 7.59025C10.564 8.02398 10.3913 8.44032 10.0846 8.74701C9.77794 9.0537 9.36198 9.226 8.92825 9.226C8.49462 9.226 8.07875 9.05299 7.77213 8.74637C7.46551 8.43975 7.29325 8.02388 7.29325 7.59025M10.564 7.59025C10.564 7.15652 10.3913 6.74093 10.0846 6.43424C9.77794 6.12755 9.36198 5.95525 8.92825 5.95525C8.49462 5.95525 8.07875 6.12751 7.77213 6.43413C7.46551 6.74075 7.29325 7.15662 7.29325 7.59025M7.29325 7.59025H1" stroke="#333333" stroke-miterlimit="10" stroke-linecap="round"/>
</svg>
