<svg width="202" height="202" viewBox="0 0 202 202" fill="none" xmlns="http://www.w3.org/2000/svg">
<path d="M119.156 31.5521C122.044 28.7311 126.911 30.3184 127.581 34.2994L129.838 47.7196C130.336 50.6843 133.32 52.5419 136.2 51.681L149.239 47.7841C153.107 46.6282 156.679 50.2958 155.422 54.132L151.184 67.0638C150.247 69.9206 152.026 72.9519 154.976 73.5282L168.333 76.1371C172.295 76.9111 173.753 81.8188 170.858 84.6313L161.095 94.1122C158.938 96.2067 159.104 99.7172 161.449 101.599L172.063 110.116C175.212 112.642 174.223 117.666 170.351 118.81L157.301 122.668C154.418 123.521 152.934 126.706 154.135 129.462L159.575 141.936C161.189 145.636 157.979 149.625 154.019 148.839L140.671 146.19C137.722 145.605 134.927 147.736 134.711 150.735L133.731 164.308C133.44 168.334 128.744 170.374 125.603 167.838L115.014 159.29C112.675 157.401 109.21 157.989 107.625 160.544L100.449 172.107C98.3209 175.537 93.2147 175.161 91.612 171.456L86.209 158.966C85.0154 156.206 81.6741 155.117 79.0834 156.642L67.3561 163.546C63.8773 165.594 59.5309 162.888 59.8335 158.862L60.8539 145.292C61.0793 142.294 58.6271 139.776 55.6243 139.923L42.0319 140.586C37.9997 140.783 35.4088 136.367 37.5476 132.943L44.7575 121.401C46.3503 118.852 45.3489 115.483 42.6219 114.217L30.2782 108.488C26.6166 106.788 26.3746 101.674 29.8595 99.6362L41.6073 92.7671C44.2026 91.2496 44.8814 87.8013 43.0551 85.4133L34.7879 74.6037C32.3355 71.3971 34.498 66.7562 38.5306 66.5714L52.125 65.9486C55.1282 65.811 57.3318 63.0732 56.8244 60.11L54.5276 46.6966C53.8463 42.7176 57.9178 39.6133 61.5745 41.3238L73.9011 47.0899C76.6243 48.3637 79.8478 46.9636 80.7756 44.104L84.9754 31.1597C86.2212 27.3198 91.2691 26.4632 93.7119 29.6771L101.947 40.5112C103.766 42.9046 107.271 43.1629 109.422 41.062L119.156 31.5521Z" fill="url(#paint0_linear_713_145)"/>
<path d="M72.9069 72.3339L118.744 118.172M118.744 118.172H84.3663M118.744 118.172V83.7933" stroke="white" stroke-width="7" stroke-linecap="round" stroke-linejoin="round"/>
<defs>
<linearGradient id="paint0_linear_713_145" x1="46.2777" y1="12.087" x2="156.261" y2="189.301" gradientUnits="userSpaceOnUse">
<stop stop-color="#17BDBE"/>
<stop offset="1" stop-color="#008B8C"/>
</linearGradient>
</defs>
</svg>
