<svg width="41" height="94" viewBox="0 0 41 94" fill="none" xmlns="http://www.w3.org/2000/svg">
<path d="M39.9884 19.9764C35.4715 18.4062 31.3932 15.8162 28.0819 12.4151C24.7705 9.01397 22.3186 4.89674 20.9237 0.394915C20.8906 0.281133 20.8207 0.181064 20.7245 0.109802C20.6283 0.0385397 20.5111 4.17156e-07 20.3906 4.06622e-07C20.2701 3.96088e-07 20.1529 0.0385396 20.0567 0.109802C19.9605 0.181064 19.8906 0.281133 19.8575 0.394914C18.4626 4.89674 16.0108 9.01397 12.6994 12.4151C9.38804 15.8162 5.30967 18.4062 0.792753 19.9764C0.676894 20.0089 0.574998 20.0776 0.502435 20.1721C0.429872 20.2665 0.390629 20.3817 0.390629 20.5C0.390629 20.6183 0.429872 20.7335 0.502435 20.8279C0.574998 20.9224 0.676894 20.9911 0.792753 21.0236C5.30967 22.5938 9.38804 25.1838 12.6994 28.5849C16.0108 31.986 18.4626 36.1033 19.8575 40.6051C19.8906 40.7189 19.9605 40.8189 20.0567 40.8902C20.1529 40.9615 20.2701 41 20.3906 41C20.5111 41 20.6283 40.9615 20.7245 40.8902C20.8207 40.8189 20.8906 40.7189 20.9237 40.6051C22.3186 36.1033 24.7705 31.986 28.0819 28.5849C31.3932 25.1838 35.4715 22.5938 39.9884 21.0236C40.1043 20.9911 40.2063 20.9224 40.2788 20.8279C40.3514 20.7335 40.3906 20.6183 40.3906 20.5C40.3906 20.3817 40.3514 20.2665 40.2788 20.1721C40.2063 20.0776 40.1043 20.0089 39.9884 19.9764Z" fill="url(#paint0_linear_697_152)"/>
<path d="M39.9884 72.9764C35.4715 71.4062 31.3932 68.8162 28.0819 65.4151C24.7705 62.014 22.3186 57.8967 20.9237 53.3949C20.8906 53.2811 20.8207 53.1811 20.7245 53.1098C20.6283 53.0385 20.5111 53 20.3906 53C20.2701 53 20.1529 53.0385 20.0567 53.1098C19.9605 53.1811 19.8906 53.2811 19.8575 53.3949C18.4626 57.8967 16.0108 62.014 12.6994 65.4151C9.38804 68.8162 5.30967 71.4062 0.792753 72.9764C0.676894 73.0089 0.574998 73.0776 0.502435 73.1721C0.429872 73.2665 0.390629 73.3817 0.390629 73.5C0.390629 73.6183 0.429872 73.7335 0.502435 73.8279C0.574998 73.9224 0.676894 73.9911 0.792753 74.0236C5.30967 75.5938 9.38804 78.1838 12.6994 81.5849C16.0108 84.986 18.4626 89.1033 19.8575 93.6051C19.8906 93.7189 19.9605 93.8189 20.0567 93.8902C20.1529 93.9615 20.2701 94 20.3906 94C20.5111 94 20.6283 93.9615 20.7245 93.8902C20.8207 93.8189 20.8906 93.7189 20.9237 93.6051C22.3186 89.1033 24.7705 84.986 28.0819 81.5849C31.3932 78.1838 35.4715 75.5938 39.9884 74.0236C40.1043 73.9911 40.2063 73.9224 40.2788 73.8279C40.3514 73.7335 40.3906 73.6183 40.3906 73.5C40.3906 73.3817 40.3514 73.2665 40.2788 73.1721C40.2063 73.0776 40.1043 73.0089 39.9884 72.9764Z" fill="url(#paint1_linear_697_152)"/>
<defs>
<linearGradient id="paint0_linear_697_152" x1="20.3906" y1="41" x2="20.3906" y2="-1.74846e-06" gradientUnits="userSpaceOnUse">
<stop stop-color="#6A14E4"/>
<stop offset="1" stop-color="#9325EC"/>
</linearGradient>
<linearGradient id="paint1_linear_697_152" x1="20.3906" y1="94" x2="20.3906" y2="53" gradientUnits="userSpaceOnUse">
<stop stop-color="#6A14E4"/>
<stop offset="1" stop-color="#9325EC"/>
</linearGradient>
</defs>
</svg>
