<svg width="38" height="38" viewBox="0 0 38 38" fill="none" xmlns="http://www.w3.org/2000/svg">
<mask id="path-1-inside-1_723_158" fill="white">
<path d="M18.9101 27.4715L24.5269 36.9736L31.9619 32.5853L26.346 23.0835L37.3848 22.9759L37.2983 14.345L26.2586 14.4523L31.6836 4.84241L24.1621 0.599776L18.7373 10.2087L13.1224 0.707089L5.68646 5.09513L11.3014 14.5967L0.260764 14.7038L0.347245 23.3347L11.3888 23.2279L5.96501 32.8371L13.4865 37.0798L18.9101 27.4715Z"/>
</mask>
<path d="M18.9101 27.4715L18.0392 26.9799L18.8901 25.4726L19.7709 26.9627L18.9101 27.4715ZM24.5269 36.9736L25.0352 37.8348L24.1746 38.3428L23.666 37.4825L24.5269 36.9736ZM31.9619 32.5853L32.8228 32.0765L33.3319 32.9379L32.4702 33.4465L31.9619 32.5853ZM26.346 23.0835L25.4851 23.5923L24.6034 22.1004L26.3363 22.0835L26.346 23.0835ZM37.3848 22.9759L38.3847 22.9659L38.3947 23.9661L37.3945 23.9759L37.3848 22.9759ZM37.2983 14.345L37.2886 13.345L38.2882 13.3353L38.2982 14.335L37.2983 14.345ZM26.2586 14.4523L26.2683 15.4522L24.5362 15.4691L25.3878 13.9607L26.2586 14.4523ZM31.6836 4.84241L32.1749 3.97142L33.0462 4.46289L32.5544 5.33401L31.6836 4.84241ZM24.1621 0.599776L23.2913 0.108157L23.7827 -0.762333L24.6534 -0.271217L24.1621 0.599776ZM18.7373 10.2087L19.6082 10.7003L18.7571 12.2078L17.8764 10.7175L18.7373 10.2087ZM13.1224 0.707089L12.6142 -0.154138L13.4749 -0.662043L13.9833 0.198337L13.1224 0.707089ZM5.68646 5.09513L4.82554 5.60388L4.31648 4.74243L5.17824 4.2339L5.68646 5.09513ZM11.3014 14.5967L12.1623 14.088L13.0439 15.5799L11.3111 15.5967L11.3014 14.5967ZM0.260764 14.7038L-0.739186 14.7138L-0.749209 13.7136L0.251068 13.7039L0.260764 14.7038ZM0.347245 23.3347L0.356918 24.3347L-0.642689 24.3444L-0.652705 23.3448L0.347245 23.3347ZM11.3888 23.2279L11.3791 22.228L13.111 22.2112L12.2597 23.7195L11.3888 23.2279ZM5.96501 32.8371L5.47371 33.7081L4.60248 33.2167L5.09416 32.3456L5.96501 32.8371ZM13.4865 37.0798L14.3573 37.5713L13.8659 38.4419L12.9952 37.9507L13.4865 37.0798ZM18.9101 27.4715L19.7709 26.9627L25.3877 36.4648L24.5269 36.9736L23.666 37.4825L18.0492 27.9804L18.9101 27.4715ZM24.5269 36.9736L24.0186 36.1124L31.4536 31.7242L31.9619 32.5853L32.4702 33.4465L25.0352 37.8348L24.5269 36.9736ZM31.9619 32.5853L31.101 33.0942L25.4851 23.5923L26.346 23.0835L27.2069 22.5747L32.8228 32.0765L31.9619 32.5853ZM26.346 23.0835L26.3363 22.0835L37.375 21.976L37.3848 22.9759L37.3945 23.9759L26.3558 24.0834L26.346 23.0835ZM37.3848 22.9759L36.3848 22.9859L36.2983 14.355L37.2983 14.345L38.2982 14.335L38.3847 22.9659L37.3848 22.9759ZM37.2983 14.345L37.308 15.3449L26.2683 15.4522L26.2586 14.4523L26.2489 13.4523L37.2886 13.345L37.2983 14.345ZM26.2586 14.4523L25.3878 13.9607L30.8128 4.35082L31.6836 4.84241L32.5544 5.33401L27.1294 14.9439L26.2586 14.4523ZM31.6836 4.84241L31.1923 5.71341L23.6708 1.47077L24.1621 0.599776L24.6534 -0.271217L32.1749 3.97142L31.6836 4.84241ZM24.1621 0.599776L25.0329 1.09139L19.6082 10.7003L18.7373 10.2087L17.8665 9.71709L23.2913 0.108157L24.1621 0.599776ZM18.7373 10.2087L17.8764 10.7175L12.2615 1.21584L13.1224 0.707089L13.9833 0.198337L19.5983 9.69996L18.7373 10.2087ZM13.1224 0.707089L13.6306 1.56832L6.19468 5.95635L5.68646 5.09513L5.17824 4.2339L12.6142 -0.154138L13.1224 0.707089ZM5.68646 5.09513L6.54737 4.58637L12.1623 14.088L11.3014 14.5967L10.4405 15.1055L4.82554 5.60388L5.68646 5.09513ZM11.3014 14.5967L11.3111 15.5967L0.27046 15.7038L0.260764 14.7038L0.251068 13.7039L11.2917 13.5968L11.3014 14.5967ZM0.260764 14.7038L1.26071 14.6938L1.34719 23.3247L0.347245 23.3347L-0.652705 23.3448L-0.739186 14.7138L0.260764 14.7038ZM0.347245 23.3347L0.337572 22.3348L11.3791 22.228L11.3888 23.2279L11.3985 24.2279L0.356918 24.3347L0.347245 23.3347ZM11.3888 23.2279L12.2597 23.7195L6.83586 33.3287L5.96501 32.8371L5.09416 32.3456L10.518 22.7364L11.3888 23.2279ZM5.96501 32.8371L6.45631 31.9661L13.9778 36.2088L13.4865 37.0798L12.9952 37.9507L5.47371 33.7081L5.96501 32.8371ZM13.4865 37.0798L12.6157 36.5882L18.0392 26.9799L18.9101 27.4715L19.7809 27.9631L14.3573 37.5713L13.4865 37.0798Z" fill="white" mask="url(#path-1-inside-1_723_158)"/>
</svg>
