<svg width="51" height="51" viewBox="0 0 51 51" fill="none" xmlns="http://www.w3.org/2000/svg">
<path d="M37.8301 0.0654297C44.7336 0.0654297 50.3301 5.66187 50.3301 12.5654C50.3301 19.4691 44.7336 25.0654 37.8301 25.0654C44.7336 25.0654 50.3301 30.6618 50.3301 37.5654C50.3301 44.4691 44.7336 50.0654 37.8301 50.0654C30.9264 50.0654 25.3301 44.4691 25.3301 37.5654C25.3301 44.4691 19.7337 50.0654 12.8301 50.0654C5.92641 50.0654 0.330079 44.4691 0.330079 37.5654C0.330079 30.6618 5.92641 25.0654 12.8301 25.0654C5.92641 25.0654 0.330079 19.4691 0.330079 12.5654C0.330079 5.66187 5.92641 0.0654297 12.8301 0.0654297C19.7337 0.0654297 25.3301 5.66187 25.3301 12.5654C25.3301 5.66187 30.9264 0.0654297 37.8301 0.0654297Z" fill="#121212"/>
</svg>
