<svg width="53" height="51" viewBox="0 0 53 51" fill="none" xmlns="http://www.w3.org/2000/svg">
<path d="M10.4905 49.4936C11.8341 50.4651 13.3939 50.934 14.9424 50.934C17.2727 50.934 19.5726 49.8718 21.0527 47.8756C21.0569 47.8713 21.0609 47.8669 21.0647 47.8622C21.0683 47.8576 21.0719 47.8529 21.0752 47.8482L21.0803 47.8409C21.0839 47.836 21.0873 47.8311 21.0906 47.8265L26.3281 40.6551L31.5656 47.8265C31.5707 47.8342 31.5761 47.8402 31.5812 47.8469C31.5837 47.85 31.5859 47.8531 31.5884 47.8567C34.0554 51.2025 38.7956 51.9396 42.1696 49.4973C45.5474 47.0553 46.3026 42.3336 43.866 38.9616L43.8606 38.9531C43.8562 38.946 43.8526 38.9407 43.847 38.9351L38.6209 31.7598L47.0882 29.0153C51.0656 27.7262 53.2517 23.4507 51.9575 19.4887C50.6635 15.5269 46.3747 13.3494 42.3935 14.6348L33.9264 17.368L33.9226 8.49545C33.9186 4.32945 30.5142 0.938477 26.3319 0.938477C22.1496 0.938477 18.7452 4.32945 18.7414 8.49923L18.7339 17.3642L10.2666 14.631C10.2633 14.631 10.2592 14.6302 10.2551 14.6291C10.2497 14.6277 10.2443 14.6255 10.24 14.6234C6.26638 13.3532 1.99291 15.5307 0.702529 19.4851C-0.587876 23.4394 1.58305 27.6998 5.54148 29.0002C5.54514 29.0014 5.54842 29.0027 5.55157 29.004L5.56552 29.0093L5.57188 29.0116L14.0353 31.756L8.80919 38.9313C8.80729 38.9351 8.80448 38.9389 8.80164 38.9427C8.79877 38.9465 8.79595 38.9502 8.79406 38.954C6.35367 42.326 7.11273 47.0516 10.4905 49.4936Z" fill="#2F80ED"/>
</svg>
