<svg width="82" height="80" viewBox="0 0 82 80" fill="none" xmlns="http://www.w3.org/2000/svg">
<g clip-path="url(#clip0_1441_693)">
<path d="M68.3867 0H13.6133C6.09487 0 0 6.08893 0 13.6V66.272C0 73.7831 6.09487 79.872 13.6133 79.872H68.3867C75.9051 79.872 82 73.7831 82 66.272V13.6C82 6.08893 75.9051 0 68.3867 0Z" fill="#001E36"/>
<path d="M43.0636 56.4507H21.3903C21.0233 56.4507 20.8399 56.2491 20.8404 55.8459V20.9503C20.8307 20.8831 20.8369 20.8146 20.8583 20.7502C20.8798 20.6858 20.916 20.6273 20.964 20.5793C21.012 20.5313 21.0706 20.4951 21.135 20.4736C21.1994 20.4522 21.268 20.446 21.3352 20.4555H28.0464C28.0987 20.4482 28.152 20.4531 28.2021 20.4698C28.2522 20.4866 28.2978 20.5147 28.3351 20.552C28.3724 20.5894 28.4006 20.6349 28.4173 20.6849C28.434 20.735 28.4389 20.7883 28.4314 20.8405V49.5269H44.2187C44.5486 49.5269 44.6771 49.6917 44.604 50.0213L43.6136 55.9563C43.6113 56.0374 43.5902 56.1167 43.552 56.1882C43.5138 56.2597 43.4596 56.3214 43.3936 56.3685C43.2915 56.4214 43.1786 56.4496 43.0636 56.4511M48.5089 29.1384H54.5049C54.8393 29.1416 55.1314 29.3656 55.2198 29.6882C55.3508 29.9289 55.4437 30.1884 55.4953 30.4575C55.5717 30.8114 55.6266 31.1686 55.6599 31.5291C55.6962 31.9138 55.7146 32.3259 55.715 32.7656C56.7432 31.5694 57.9832 30.5727 59.373 29.8255C60.9342 28.9821 62.687 28.5562 64.4615 28.589C64.5287 28.5794 64.5973 28.5856 64.6617 28.6071C64.7262 28.6286 64.7847 28.6647 64.8327 28.7127C64.8807 28.7607 64.9169 28.8193 64.9384 28.8836C64.9598 28.948 64.966 29.0165 64.9564 29.0837V35.7333C64.9564 35.9899 64.773 36.1182 64.4064 36.1179C62.1905 35.981 59.974 36.3767 57.9428 37.2719C57.2527 37.5705 56.6269 37.9997 56.1 38.5359V55.9567C56.1 56.2863 55.9533 56.4511 55.6599 56.4511H49.0038C48.9291 56.4618 48.8529 56.4549 48.7813 56.4311C48.7097 56.4073 48.6446 56.3671 48.5913 56.3138C48.5379 56.2605 48.4977 56.1955 48.4738 56.1239C48.45 56.0524 48.4431 55.9763 48.4539 55.9016V36.997C48.4539 36.5368 48.4509 36.0614 48.4449 35.5707L48.4337 34.8239C48.4315 34.6974 48.4291 34.57 48.4263 34.4418C48.4123 33.7736 48.3933 33.1055 48.3693 32.4376L48.3437 31.7765C48.3193 31.0215 48.2459 30.2689 48.1239 29.5234C48.111 29.4736 48.1105 29.4214 48.1224 29.3713C48.1343 29.3212 48.1583 29.2748 48.1922 29.2361C48.2262 29.1974 48.269 29.1676 48.3172 29.1492C48.3653 29.1309 48.4171 29.1245 48.4683 29.1307L48.5089 29.1384Z" fill="#31A8FF"/>
</g>
<defs>
<clipPath id="clip0_1441_693">
<rect width="82" height="80" fill="white"/>
</clipPath>
</defs>
</svg>
