<svg width="21" height="21" viewBox="0 0 21 21" fill="none" xmlns="http://www.w3.org/2000/svg">
<path d="M11.8661 1.97545C11.8661 1.59657 11.7156 1.2332 11.4477 0.965294C11.1797 0.697385 10.8164 0.546875 10.4375 0.546875C10.0586 0.546875 9.69526 0.697385 9.42735 0.965294C9.15944 1.2332 9.00893 1.59657 9.00893 1.97545V9.1183H1.86607C1.48719 9.1183 1.12383 9.26881 0.855919 9.53672C0.58801 9.80463 0.4375 10.168 0.4375 10.5469C0.4375 10.9258 0.58801 11.2891 0.855919 11.557C1.12383 11.8249 1.48719 11.9754 1.86607 11.9754H9.00893V19.1183C9.00893 19.4972 9.15944 19.8605 9.42735 20.1285C9.69526 20.3964 10.0586 20.5469 10.4375 20.5469C10.8164 20.5469 11.1797 20.3964 11.4477 20.1285C11.7156 19.8605 11.8661 19.4972 11.8661 19.1183V11.9754H19.0089C19.3878 11.9754 19.7512 11.8249 20.0191 11.557C20.287 11.2891 20.4375 10.9258 20.4375 10.5469C20.4375 10.168 20.287 9.80463 20.0191 9.53672C19.7512 9.26881 19.3878 9.1183 19.0089 9.1183H11.8661V1.97545Z" fill="white"/>
</svg>
