<svg width="100" height="20" viewBox="0 0 100 20" fill="none" xmlns="http://www.w3.org/2000/svg">
<path d="M9.07203 2.31085C9.40793 1.47438 10.5921 1.47438 10.928 2.31085L12.3523 5.85774C12.4953 6.21394 12.8297 6.45683 13.2126 6.4828L17.0261 6.74137C17.9254 6.80235 18.2913 7.92853 17.5996 8.50648L14.6664 10.9571C14.3719 11.2033 14.2442 11.5963 14.3378 11.9685L15.2703 15.6752C15.4902 16.5494 14.5322 17.2454 13.7688 16.7661L10.5317 14.7338C10.2066 14.5297 9.79339 14.5297 9.46829 14.7338L6.23117 16.7661C5.46776 17.2454 4.50977 16.5494 4.72969 15.6752L5.66218 11.9685C5.75583 11.5963 5.62814 11.2033 5.33357 10.9571L2.40042 8.50647C1.70869 7.92853 2.07461 6.80235 2.97394 6.74137L6.78737 6.4828C7.17035 6.45683 7.50466 6.21394 7.6477 5.85774L9.07203 2.31085Z" fill="#D97B43"/>
<path d="M29.072 2.31085C29.4079 1.47438 30.5921 1.47438 30.928 2.31085L32.3523 5.85774C32.4953 6.21394 32.8297 6.45683 33.2126 6.4828L37.0261 6.74137C37.9254 6.80235 38.2913 7.92853 37.5996 8.50648L34.6664 10.9571C34.3719 11.2033 34.2442 11.5963 34.3378 11.9685L35.2703 15.6752C35.4902 16.5494 34.5322 17.2454 33.7688 16.7661L30.5317 14.7338C30.2066 14.5297 29.7934 14.5297 29.4683 14.7338L26.2312 16.7661C25.4678 17.2454 24.5098 16.5494 24.7297 15.6752L25.6622 11.9685C25.7558 11.5963 25.6281 11.2033 25.3336 10.9571L22.4004 8.50647C21.7087 7.92853 22.0746 6.80235 22.9739 6.74137L26.7874 6.4828C27.1703 6.45683 27.5047 6.21394 27.6477 5.85774L29.072 2.31085Z" fill="#D97B43"/>
<path d="M49.072 2.31085C49.4079 1.47438 50.5921 1.47438 50.928 2.31085L52.3523 5.85774C52.4953 6.21394 52.8297 6.45683 53.2126 6.4828L57.0261 6.74137C57.9254 6.80235 58.2913 7.92853 57.5996 8.50648L54.6664 10.9571C54.3719 11.2033 54.2442 11.5963 54.3378 11.9685L55.2703 15.6752C55.4902 16.5494 54.5322 17.2454 53.7688 16.7661L50.5317 14.7338C50.2066 14.5297 49.7934 14.5297 49.4683 14.7338L46.2312 16.7661C45.4678 17.2454 44.5098 16.5494 44.7297 15.6752L45.6622 11.9685C45.7558 11.5963 45.6281 11.2033 45.3336 10.9571L42.4004 8.50647C41.7087 7.92853 42.0746 6.80235 42.9739 6.74137L46.7874 6.4828C47.1703 6.45683 47.5047 6.21394 47.6477 5.85774L49.072 2.31085Z" fill="#D97B43"/>
<path d="M69.5361 2.49707C69.6937 2.10505 70.2238 2.08065 70.4277 2.42383L70.4639 2.49707L71.8887 6.04395C72.0899 6.54493 72.5429 6.89671 73.0723 6.9707L73.1787 6.98145L76.9922 7.24023C77.4137 7.26881 77.6009 7.76533 77.3379 8.06543L77.2793 8.12305L74.3457 10.5732C73.9315 10.9193 73.7371 11.4592 73.8301 11.9854L73.8525 12.0908L74.7852 15.7969C74.8951 16.2338 74.4168 16.5819 74.0352 16.3428L70.7979 14.3105C70.3405 14.0234 69.7667 14.0054 69.2949 14.2568L69.2021 14.3105L65.9648 16.3428C65.5832 16.5819 65.1049 16.2338 65.2148 15.7969L66.1475 12.0908C66.2879 11.5324 66.0961 10.9424 65.6543 10.5732L62.7207 8.12305C62.3965 7.8521 62.5373 7.33992 62.9268 7.25195L63.0078 7.24023L66.8213 6.98145C67.3957 6.94246 67.8968 6.5782 68.1113 6.04395L69.5361 2.49707Z" stroke="#D97B43"/>
<path d="M70 14.5811C69.8154 14.581 69.6303 14.6313 69.4677 14.7334L66.2314 16.7656C65.468 17.2449 64.5095 16.549 64.7295 15.6748L65.6621 11.9688C65.7557 11.5966 65.6284 11.2032 65.334 10.957L62.4004 8.50684C61.7087 7.92895 62.0745 6.80239 62.9736 6.74121L66.7871 6.48242C67.1701 6.45645 67.5044 6.21363 67.6474 5.85742L69.0722 2.31055C69.2403 1.89253 69.6201 1.68358 70 1.68359V14.5811Z" fill="#D97B43"/>
<path d="M89.5361 2.49707C89.6937 2.10505 90.2238 2.08065 90.4277 2.42383L90.4639 2.49707L91.8887 6.04395C92.0899 6.54493 92.5429 6.89671 93.0723 6.9707L93.1787 6.98145L96.9922 7.24023C97.4137 7.26881 97.6009 7.76533 97.3379 8.06543L97.2793 8.12305L94.3457 10.5732C93.9315 10.9193 93.7371 11.4592 93.8301 11.9854L93.8525 12.0908L94.7852 15.7969C94.8951 16.2338 94.4168 16.5819 94.0352 16.3428L90.7979 14.3105C90.3405 14.0234 89.7667 14.0054 89.2949 14.2568L89.2021 14.3105L85.9648 16.3428C85.5832 16.5819 85.1049 16.2338 85.2148 15.7969L86.1475 12.0908C86.2879 11.5324 86.0961 10.9424 85.6543 10.5732L82.7207 8.12305C82.3965 7.8521 82.5373 7.33992 82.9268 7.25195L83.0078 7.24023L86.8213 6.98145C87.3957 6.94246 87.8968 6.5782 88.1113 6.04395L89.5361 2.49707Z" stroke="#D97B43"/>
</svg>
