<svg width="100" height="20" viewBox="0 0 100 20" fill="none" xmlns="http://www.w3.org/2000/svg">
<path d="M9.07203 2.31085C9.40793 1.47438 10.5921 1.47438 10.928 2.31085L12.3523 5.85774C12.4953 6.21394 12.8297 6.45683 13.2126 6.4828L17.0261 6.74137C17.9254 6.80235 18.2913 7.92853 17.5996 8.50648L14.6664 10.9571C14.3719 11.2033 14.2442 11.5963 14.3378 11.9685L15.2703 15.6752C15.4902 16.5494 14.5322 17.2454 13.7688 16.7661L10.5317 14.7338C10.2066 14.5297 9.79339 14.5297 9.46829 14.7338L6.23117 16.7661C5.46776 17.2454 4.50977 16.5494 4.72969 15.6752L5.66218 11.9685C5.75583 11.5963 5.62814 11.2033 5.33357 10.9571L2.40042 8.50647C1.70869 7.92853 2.07461 6.80235 2.97394 6.74137L6.78737 6.4828C7.17035 6.45683 7.50466 6.21394 7.6477 5.85774L9.07203 2.31085Z" fill="#D97B43"/>
<path d="M29.072 2.31085C29.4079 1.47438 30.5921 1.47438 30.928 2.31085L32.3523 5.85774C32.4953 6.21394 32.8297 6.45683 33.2126 6.4828L37.0261 6.74137C37.9254 6.80235 38.2913 7.92853 37.5996 8.50648L34.6664 10.9571C34.3719 11.2033 34.2442 11.5963 34.3378 11.9685L35.2703 15.6752C35.4902 16.5494 34.5322 17.2454 33.7688 16.7661L30.5317 14.7338C30.2066 14.5297 29.7934 14.5297 29.4683 14.7338L26.2312 16.7661C25.4678 17.2454 24.5098 16.5494 24.7297 15.6752L25.6622 11.9685C25.7558 11.5963 25.6281 11.2033 25.3336 10.9571L22.4004 8.50647C21.7087 7.92853 22.0746 6.80235 22.9739 6.74137L26.7874 6.4828C27.1703 6.45683 27.5047 6.21394 27.6477 5.85774L29.072 2.31085Z" fill="#D97B43"/>
<path d="M49.072 2.31085C49.4079 1.47438 50.5921 1.47438 50.928 2.31085L52.3523 5.85774C52.4953 6.21394 52.8297 6.45683 53.2126 6.4828L57.0261 6.74137C57.9254 6.80235 58.2913 7.92853 57.5996 8.50648L54.6664 10.9571C54.3719 11.2033 54.2442 11.5963 54.3378 11.9685L55.2703 15.6752C55.4902 16.5494 54.5322 17.2454 53.7688 16.7661L50.5317 14.7338C50.2066 14.5297 49.7934 14.5297 49.4683 14.7338L46.2312 16.7661C45.4678 17.2454 44.5098 16.5494 44.7297 15.6752L45.6622 11.9685C45.7558 11.5963 45.6281 11.2033 45.3336 10.9571L42.4004 8.50647C41.7087 7.92853 42.0746 6.80235 42.9739 6.74137L46.7874 6.4828C47.1703 6.45683 47.5047 6.21394 47.6477 5.85774L49.072 2.31085Z" fill="#D97B43"/>
<path d="M69.072 2.31085C69.4079 1.47438 70.5921 1.47438 70.928 2.31085L72.3523 5.85774C72.4953 6.21394 72.8297 6.45683 73.2126 6.4828L77.0261 6.74137C77.9254 6.80235 78.2913 7.92853 77.5996 8.50648L74.6664 10.9571C74.3719 11.2033 74.2442 11.5963 74.3378 11.9685L75.2703 15.6752C75.4902 16.5494 74.5322 17.2454 73.7688 16.7661L70.5317 14.7338C70.2066 14.5297 69.7934 14.5297 69.4683 14.7338L66.2312 16.7661C65.4678 17.2454 64.5098 16.5494 64.7297 15.6752L65.6622 11.9685C65.7558 11.5963 65.6281 11.2033 65.3336 10.9571L62.4004 8.50647C61.7087 7.92853 62.0746 6.80235 62.9739 6.74137L66.7874 6.4828C67.1703 6.45683 67.5047 6.21394 67.6477 5.85774L69.072 2.31085Z" fill="#D97B43"/>
<path d="M89.072 2.31085C89.4079 1.47438 90.5921 1.47438 90.928 2.31085L92.3523 5.85774C92.4953 6.21394 92.8297 6.45683 93.2126 6.4828L97.0261 6.74137C97.9254 6.80235 98.2913 7.92853 97.5996 8.50648L94.6664 10.9571C94.3719 11.2033 94.2442 11.5963 94.3378 11.9685L95.2703 15.6752C95.4902 16.5494 94.5322 17.2454 93.7688 16.7661L90.5317 14.7338C90.2066 14.5297 89.7934 14.5297 89.4683 14.7338L86.2312 16.7661C85.4678 17.2454 84.5098 16.5494 84.7297 15.6752L85.6622 11.9685C85.7558 11.5963 85.6281 11.2033 85.3336 10.9571L82.4004 8.50647C81.7087 7.92853 82.0746 6.80235 82.9739 6.74137L86.7874 6.4828C87.1703 6.45683 87.5047 6.21394 87.6477 5.85774L89.072 2.31085Z" fill="#D97B43"/>
</svg>
