<svg width="49" height="39" viewBox="0 0 49 39" fill="none" xmlns="http://www.w3.org/2000/svg">
<path d="M21.1875 3.875C18.75 6.59375 16.6875 9.34375 15 12.125C13.3438 14.9062 12.2188 17.6875 11.625 20.4688C12.0625 20.9375 12.5781 21.4062 13.1719 21.875C13.7656 22.3125 14.4062 22.7188 15.0938 23.0938C15.7812 23.4688 16.4844 23.8125 17.2031 24.125C17.9531 24.4062 18.6719 24.625 19.3594 24.7812C19.6094 25.4062 19.7969 26.0938 19.9219 26.8438C20.0469 27.5938 20.1094 28.3281 20.1094 29.0469C20.1094 30.4531 19.8438 31.75 19.3125 32.9375C18.7812 34.125 18.0625 35.1562 17.1562 36.0312C16.25 36.9062 15.1875 37.5938 13.9688 38.0938C12.7812 38.5938 11.5156 38.8438 10.1719 38.8438C8.95312 38.8438 7.75 38.625 6.5625 38.1875C5.40625 37.7188 4.35938 37.0156 3.42188 36.0781C2.48438 35.1406 1.71875 33.9531 1.125 32.5156C0.5625 31.0781 0.28125 29.3594 0.28125 27.3594C0.28125 25.6406 0.53125 23.75 1.03125 21.6875C1.53125 19.625 2.375 17.4531 3.5625 15.1719C4.75 12.8906 6.34375 10.5156 8.34375 8.04688C10.3438 5.57812 12.8281 3.0625 15.7969 0.5L21.1875 3.875ZM48.1406 3.875C45.7031 6.59375 43.6406 9.34375 41.9531 12.125C40.2969 14.9062 39.1719 17.6875 38.5781 20.4688C39.0156 20.9375 39.5312 21.4062 40.125 21.875C40.7188 22.3125 41.3594 22.7188 42.0469 23.0938C42.7344 23.4688 43.4375 23.8125 44.1562 24.125C44.9062 24.4062 45.625 24.625 46.3125 24.7812C46.5625 25.4062 46.75 26.0938 46.875 26.8438C47.0312 27.5938 47.1094 28.3281 47.1094 29.0469C47.1094 30.4531 46.8438 31.75 46.3125 32.9375C45.7812 34.125 45.0469 35.1562 44.1094 36.0312C43.2031 36.9062 42.1406 37.5938 40.9219 38.0938C39.7344 38.5938 38.4844 38.8438 37.1719 38.8438C35.9531 38.8438 34.75 38.625 33.5625 38.1875C32.375 37.7188 31.3125 37.0156 30.375 36.0781C29.4688 35.1406 28.7188 33.9531 28.125 32.5156C27.5625 31.0781 27.2812 29.3594 27.2812 27.3594C27.2812 25.6406 27.5312 23.75 28.0312 21.6875C28.5312 19.625 29.375 17.4531 30.5625 15.1719C31.75 12.8906 33.3281 10.5156 35.2969 8.04688C37.2969 5.57812 39.7969 3.0625 42.7969 0.5L48.1406 3.875Z" fill="black"/>
</svg>
