<svg width="21" height="19" viewBox="0 0 21 19" fill="none" xmlns="http://www.w3.org/2000/svg">
<path d="M10.8274 2.22753C11.3217 1.66324 11.9227 1.20502 12.5948 0.879935C13.2669 0.554846 13.9965 0.369483 14.7406 0.334794C15.4846 0.300106 16.2279 0.416796 16.9267 0.677972C17.6255 0.939148 18.2654 1.33951 18.8089 1.85541C19.3523 2.37132 19.7881 2.99229 20.0906 3.68166C20.3931 4.37103 20.5561 5.11481 20.57 5.86906C20.5839 6.62331 20.4485 7.37274 20.1716 8.07308C19.8948 8.77341 19.4822 9.41044 18.9581 9.94655L10.7667 18.3229C10.7071 18.3839 10.6361 18.4323 10.5579 18.4654C10.4796 18.4984 10.3957 18.5155 10.3109 18.5155C10.2262 18.5155 10.1423 18.4984 10.064 18.4654C9.98581 18.4323 9.91483 18.3839 9.8552 18.3229L1.66375 9.94655C0.670533 8.93034 0.0949589 7.57031 0.0532205 6.14101C0.0114821 4.71171 0.506688 3.31961 1.43887 2.24572C3.65176 -0.303042 7.56963 -0.311702 9.79449 2.22753L10.3109 2.81644L10.8274 2.22753ZM18.2202 3.1031C17.8184 2.64049 17.3241 2.26967 16.7701 2.01522C16.216 1.76077 15.6149 1.62851 15.0066 1.6272C14.3983 1.62589 13.7966 1.75556 13.2415 2.00762C12.6864 2.25968 12.1905 2.62836 11.7868 3.08924L10.7898 4.22635C10.7296 4.29503 10.6557 4.35001 10.5731 4.38767C10.4904 4.42532 10.4007 4.44479 10.3101 4.44479C10.2194 4.44479 10.1298 4.42532 10.0471 4.38767C9.96444 4.35001 9.89057 4.29503 9.8304 4.22635L8.83426 3.08924C8.45449 2.65158 7.99173 2.29571 7.47349 2.04277C6.95524 1.78983 6.39208 1.64498 5.81748 1.61683C5.24287 1.58869 4.66854 1.67781 4.12861 1.87892C3.58869 2.08003 3.09418 2.38901 2.67448 2.78751C2.25478 3.186 1.91846 3.66588 1.68548 4.19863C1.45251 4.73138 1.32764 5.30613 1.3183 5.88872C1.30896 6.47131 1.41535 7.04985 1.63113 7.58998C1.8469 8.13011 2.16768 8.62079 2.57439 9.03288L10.3109 16.9433L18.0467 9.03288C18.8116 8.25048 19.2549 7.20325 19.2872 6.10263C19.3194 5.00202 18.9381 3.93002 18.2202 3.1031Z" fill="#999999"/>
</svg>
