<svg width="323" height="136" viewBox="0 0 323 136" fill="none" xmlns="http://www.w3.org/2000/svg">
<g filter="url(#filter0_d_1035_2233)">
<path d="M14.0759 97.1113H6.41797V124.634H14.0759V97.1113Z" fill="white"/>
<path d="M195.705 124.629H188.047V124.707H195.705V124.629Z" fill="white"/>
<path d="M195.705 97.1113H188.047V124.634H195.705V97.1113Z" fill="white"/>
<path d="M212.595 97.1113H204.938V124.634H212.595V97.1113Z" fill="white"/>
<path d="M212.595 124.629H204.938V124.707H212.595V124.629Z" fill="white"/>
<path d="M247.291 97.1113H239.633V124.634H247.291V97.1113Z" fill="white"/>
<path d="M247.291 124.629H239.633V124.707H247.291V124.629Z" fill="white"/>
<path d="M234.856 106.225H217.512V113.883H234.856V106.225Z" fill="white"/>
<path d="M264.689 124.629H257.031V124.707H264.689V124.629Z" fill="white"/>
<path d="M264.689 97.1113H257.031V124.634H264.689V97.1113Z" fill="white"/>
<path d="M281.9 124.629H274.242V124.707H281.9V124.629Z" fill="white"/>
<path d="M281.9 97.1113H274.242V124.634H281.9V97.1113Z" fill="white"/>
<path d="M316.435 124.629H308.777V124.707H316.435V124.629Z" fill="white"/>
<path d="M316.435 97.1113H308.777V124.634H316.435V97.1113Z" fill="white"/>
<path d="M170.901 97.1067L170.898 97.1035L170.895 97.1067H163.238V124.629V124.708H170.896V124.629V107.536L178.925 115.187L184.136 109.719L170.901 97.1067Z" fill="white"/>
<path d="M296.054 115.192L301.266 109.724L288.031 97.1113H288.024L282.816 102.576L296.054 115.192Z" fill="white"/>
<path d="M288.025 97.1035L288.02 97.1089H288.03L288.025 97.1035Z" fill="white"/>
<path d="M26.047 107.348H17.4648V113.677H26.047V107.348Z" fill="white"/>
<path d="M26.0586 97.1113V107.349V113.678V124.634H33.7176V97.1113H26.0586Z" fill="white"/>
<path d="M160.416 102.88V97.1113H147.177H146.675H139.52V124.634H146.675H147.177H160.416V118.865H147.177V113.377H157.285V107.608H147.177V102.88H160.416Z" fill="white"/>
<path d="M53.8867 97.1113H44.5228L34.8906 124.634H43.0044L45.1924 118.381H53.2161L55.4041 124.634H63.5178L53.8867 97.1113ZM47.3374 112.251L49.2037 106.917L51.07 112.251H47.3374Z" fill="white"/>
<path d="M82.9326 97.1113H81.8009V107.355V111.352L71.9832 97.5284L71.6867 97.1113H69.0387H64.3242V107.349V113.678V124.634H71.9832V109.079L72.132 109.29L76.3278 115.197L81.8009 122.902L82.9326 124.495L83.0437 124.651H84.6731H89.4599V97.1113H82.9326Z" fill="white"/>
<path d="M106.085 103.723C105.798 103.26 105.383 102.914 104.84 102.682C104.298 102.451 103.614 102.335 102.791 102.335C102.042 102.335 101.415 102.435 100.91 102.633C100.405 102.831 100.023 103.105 99.7686 103.455C99.5129 103.805 99.385 104.206 99.385 104.654C99.3599 105.38 99.647 105.962 100.246 106.398C100.846 106.834 101.799 107.217 103.11 107.547L105.375 108.023C108.256 108.684 110.374 109.744 111.729 111.203C113.083 112.663 113.773 114.522 113.798 116.781C113.798 118.643 113.358 120.226 112.478 121.527C111.599 122.829 110.345 123.826 108.716 124.519C107.088 125.213 105.133 125.559 102.849 125.559C100.566 125.559 98.4451 125.183 96.7108 124.43C94.9766 123.676 93.6416 122.537 92.7058 121.012C91.77 119.486 91.2838 117.573 91.2461 115.275H98.0584C98.1077 116.147 98.3267 116.89 98.7133 117.504C99.1 118.118 99.6365 118.582 100.323 118.892C101.009 119.202 101.82 119.357 102.756 119.357C103.555 119.357 104.235 119.245 104.796 119.021C105.358 118.796 105.786 118.492 106.078 118.109C106.371 117.726 106.518 117.283 106.518 116.781C106.518 116.306 106.381 115.897 106.106 115.553C105.832 115.209 105.388 114.902 104.777 114.632C104.167 114.362 103.362 114.113 102.363 113.889L99.6302 113.235C97.1467 112.681 95.248 111.746 93.9318 110.431C92.6157 109.117 91.9576 107.369 91.9576 105.19C91.9576 103.406 92.4187 101.831 93.3429 100.464C94.2661 99.0961 95.5477 98.0335 97.1887 97.2738C98.8297 96.5141 100.704 96.1348 102.813 96.1348C104.921 96.1348 106.827 96.5151 108.418 97.2738C110.009 98.0335 111.241 99.1139 112.114 100.514C112.987 101.914 113.424 103.539 113.424 105.389H106.592C106.542 104.741 106.374 104.187 106.087 103.725L106.085 103.723Z" fill="white"/>
<path d="M129.734 103.723C129.447 103.26 129.032 102.914 128.489 102.682C127.946 102.451 127.263 102.335 126.439 102.335C125.691 102.335 125.063 102.435 124.558 102.633C124.053 102.831 123.672 103.105 123.417 103.455C123.161 103.805 123.033 104.206 123.033 104.654C123.008 105.38 123.295 105.962 123.895 106.398C124.494 106.834 125.448 107.217 126.759 107.547L129.023 108.023C131.905 108.684 134.023 109.744 135.378 111.203C136.731 112.663 137.421 114.522 137.446 116.781C137.446 118.643 137.006 120.226 136.127 121.527C135.248 122.829 133.993 123.826 132.365 124.519C130.736 125.213 128.781 125.559 126.498 125.559C124.214 125.559 122.094 125.183 120.359 124.43C118.625 123.676 117.29 122.537 116.354 121.012C115.418 119.486 114.932 117.573 114.895 115.275H121.707C121.756 116.147 121.975 116.89 122.362 117.504C122.748 118.118 123.285 118.582 123.971 118.892C124.658 119.202 125.469 119.357 126.405 119.357C127.203 119.357 127.883 119.245 128.445 119.021C129.006 118.796 129.434 118.492 129.726 118.109C130.02 117.726 130.166 117.283 130.166 116.781C130.166 116.306 130.029 115.897 129.755 115.553C129.48 115.209 129.037 114.902 128.426 114.632C127.815 114.362 127.01 114.113 126.012 113.889L123.279 113.235C120.795 112.681 118.896 111.746 117.58 110.431C116.264 109.117 115.606 107.369 115.606 105.19C115.606 103.406 116.067 101.831 116.991 100.464C117.915 99.0961 119.196 98.0335 120.837 97.2738C122.478 96.5141 124.353 96.1348 126.461 96.1348C128.569 96.1348 130.476 96.5151 132.066 97.2738C133.657 98.0335 134.889 99.1139 135.762 100.514C136.635 101.914 137.072 103.539 137.072 105.389H130.241C130.191 104.741 130.023 104.187 129.736 103.725L129.734 103.723Z" fill="white"/>
</g>
<g filter="url(#filter1_d_1035_2233)">
<rect x="140.816" y="20.584" width="41.3536" height="44.5346" fill="white"/>
<path d="M150.041 58.9831L178.726 42.453L150.041 25.9229V58.9831ZM213.934 15.8396C214.652 18.4293 215.15 21.9006 215.481 26.3086C215.868 30.7166 216.034 34.5185 216.034 37.8246L216.366 42.453C216.366 54.5199 215.481 63.3911 213.934 69.0664C212.552 74.0254 209.346 77.2212 204.372 78.5987C201.774 79.315 197.021 79.8109 189.725 80.1415C182.54 80.5272 175.963 80.6926 169.883 80.6926L161.095 81.0231C137.936 81.0231 123.511 80.1415 117.818 78.5987C112.844 77.2212 109.638 74.0254 108.256 69.0664C107.538 66.4767 107.04 63.0054 106.709 58.5974C106.322 54.1893 106.156 50.3874 106.156 47.0814L105.824 42.453C105.824 30.386 106.709 21.5149 108.256 15.8396C109.638 10.8805 112.844 7.68473 117.818 6.30722C120.416 5.59092 125.169 5.09502 132.465 4.76442C139.65 4.37871 146.227 4.21341 152.307 4.21341L161.095 3.88281C184.253 3.88281 198.679 4.76442 204.372 6.30722C209.346 7.68473 212.552 10.8805 213.934 15.8396Z" fill="#F61C0D"/>
</g>
<defs>
<filter id="filter0_d_1035_2233" x="0.517969" y="94.2348" width="321.816" height="41.2238" filterUnits="userSpaceOnUse" color-interpolation-filters="sRGB">
<feFlood flood-opacity="0" result="BackgroundImageFix"/>
<feColorMatrix in="SourceAlpha" type="matrix" values="0 0 0 0 0 0 0 0 0 0 0 0 0 0 0 0 0 0 127 0" result="hardAlpha"/>
<feOffset dy="4"/>
<feGaussianBlur stdDeviation="2.95"/>
<feComposite in2="hardAlpha" operator="out"/>
<feColorMatrix type="matrix" values="0 0 0 0 0 0 0 0 0 0 0 0 0 0 0 0 0 0 0.2 0"/>
<feBlend mode="normal" in2="BackgroundImageFix" result="effect1_dropShadow_1035_2233"/>
<feBlend mode="normal" in="SourceGraphic" in2="effect1_dropShadow_1035_2233" result="shape"/>
</filter>
<filter id="filter1_d_1035_2233" x="98.0242" y="0.0828123" width="126.143" height="92.7406" filterUnits="userSpaceOnUse" color-interpolation-filters="sRGB">
<feFlood flood-opacity="0" result="BackgroundImageFix"/>
<feColorMatrix in="SourceAlpha" type="matrix" values="0 0 0 0 0 0 0 0 0 0 0 0 0 0 0 0 0 0 127 0" result="hardAlpha"/>
<feOffset dy="4"/>
<feGaussianBlur stdDeviation="3.9"/>
<feComposite in2="hardAlpha" operator="out"/>
<feColorMatrix type="matrix" values="0 0 0 0 0 0 0 0 0 0 0 0 0 0 0 0 0 0 0.71 0"/>
<feBlend mode="normal" in2="BackgroundImageFix" result="effect1_dropShadow_1035_2233"/>
<feBlend mode="normal" in="SourceGraphic" in2="effect1_dropShadow_1035_2233" result="shape"/>
</filter>
</defs>
</svg>
