<svg width="271" height="26" viewBox="0 0 271 26" fill="none" xmlns="http://www.w3.org/2000/svg">
<path d="M6.69428 0.864258H0V25.1828H6.69428V0.864258Z" fill="black"/>
<path d="M165.462 25.1826H158.768V25.2521H165.462V25.1826Z" fill="black"/>
<path d="M165.462 0.864258H158.768V25.1828H165.462V0.864258Z" fill="black"/>
<path d="M180.229 0.864258H173.535V25.1828H180.229V0.864258Z" fill="#CC0D0D"/>
<path d="M180.229 25.1826H173.535V25.2521H180.229V25.1826Z" fill="black"/>
<path d="M210.561 0.864258H203.867V25.1828H210.561V0.864258Z" fill="#0C27C2"/>
<path d="M210.561 25.1826H203.867V25.2521H210.561V25.1826Z" fill="black"/>
<path d="M199.693 8.9209H184.531V15.6873H199.693V8.9209Z" fill="#FD8300"/>
<path d="M225.763 25.1826H219.068V25.2521H225.763V25.1826Z" fill="black"/>
<path d="M225.763 0.864258H219.068V25.1828H225.763V0.864258Z" fill="#CC0D0D"/>
<path d="M240.817 25.1826H234.123V25.2521H240.817V25.1826Z" fill="black"/>
<path d="M240.817 0.864258H234.123V25.1828H240.817V0.864258Z" fill="#0C27C2"/>
<path d="M270.999 25.1826H264.305V25.2521H270.999V25.1826Z" fill="black"/>
<path d="M270.999 0.864258H264.305V25.1828H270.999V0.864258Z" fill="#CC0D0D"/>
<path d="M143.777 0.864106L143.774 0.861328L143.771 0.864106H137.078V25.1827V25.2521H143.772V25.1827V10.0795L150.791 16.8395L155.346 12.0082L143.777 0.864106Z" fill="black"/>
<path d="M253.187 16.8396L257.743 12.0083L246.173 0.864258H246.168L241.615 5.69279L253.187 16.8396Z" fill="#FD8300"/>
<path d="M246.172 0.861328L246.168 0.865053H246.175L246.172 0.861328Z" fill="black"/>
<path d="M17.1643 9.91016H9.66211V15.5025H17.1643V9.91016Z" fill="black"/>
<path d="M17.1641 0.864258V9.91023V15.5026V25.1828H23.8593V0.864258H17.1641Z" fill="black"/>
<path d="M134.623 5.9613V0.864258H123.05H122.61H116.355V25.1828H122.61H123.05H134.623V20.0858H123.05V15.236H131.886V10.1389H123.05V5.9613H134.623Z" fill="black"/>
<path d="M41.4962 0.864258H33.3107L24.8906 25.1828H31.9834L33.896 19.658H40.91L42.8226 25.1828H49.9154L41.4962 0.864258ZM35.7711 14.2416L37.4025 9.52876L39.034 14.2416H35.7711Z" fill="black"/>
<path d="M66.8917 0.864258H65.9024V9.91579V13.4471L57.3202 1.23276L57.061 0.864258H54.7462H50.625V9.91023V15.5026V25.1828H57.3202V11.4389L57.4503 11.625L61.118 16.8442L65.9024 23.6523L66.8917 25.0597L66.9888 25.1977H68.4132H72.5976V0.864258H66.8917Z" fill="black"/>
<path d="M87.13 6.70537C86.879 6.29705 86.5162 5.99058 86.0417 5.78596C85.5672 5.58226 84.97 5.47949 84.25 5.47949C83.596 5.47949 83.0473 5.56744 82.6057 5.74244C82.1642 5.91743 81.8308 6.16002 81.6082 6.46926C81.3847 6.77851 81.2729 7.1322 81.2729 7.52849C81.2509 8.17013 81.5019 8.684 82.0259 9.06917C82.5499 9.45434 83.3834 9.79322 84.5294 10.0849L86.5089 10.5052C89.028 11.0895 90.8792 12.0255 92.0636 13.3153C93.2471 14.6051 93.8499 16.2476 93.8719 18.2438C93.8719 19.8892 93.4871 21.2873 92.7186 22.4372C91.9501 23.5872 90.8536 24.4686 89.4301 25.0806C88.0066 25.6936 86.2973 26 84.3013 26C82.3053 26 80.4513 25.6677 78.9352 25.0019C77.4192 24.3362 76.2522 23.3298 75.4342 21.9817C74.6162 20.6336 74.1912 18.9438 74.1582 16.9133H80.1133C80.1563 17.6837 80.3478 18.3401 80.6858 18.8827C81.0238 19.4253 81.4928 19.8345 82.0928 20.1086C82.6928 20.3827 83.4018 20.5197 84.2198 20.5197C84.9178 20.5197 85.5123 20.4206 86.0033 20.2225C86.4942 20.0243 86.868 19.7558 87.1236 19.417C87.38 19.079 87.5083 18.6873 87.5083 18.2438C87.5083 17.8235 87.3883 17.4624 87.1483 17.1587C86.9083 16.855 86.5208 16.5837 85.9868 16.3448C85.4527 16.106 84.7492 15.8865 83.8763 15.6884L81.4873 15.1106C79.3163 14.6208 77.6565 13.7949 76.506 12.6329C75.3554 11.4719 74.7802 9.92747 74.7802 8.00162C74.7802 6.42575 75.1832 5.03413 75.9912 3.82584C76.7982 2.61755 77.9185 1.67869 79.353 1.00742C80.7874 0.33615 82.4262 0.000976562 84.2692 0.000976562C86.1123 0.000976562 87.7785 0.337076 89.169 1.00742C90.5595 1.67869 91.6368 2.63329 92.3998 3.87028C93.1629 5.10728 93.5449 6.54334 93.5449 8.17754H87.5733C87.5294 7.60533 87.3828 7.11554 87.1318 6.70722L87.13 6.70537Z" fill="black"/>
<path d="M107.792 6.70537C107.541 6.29705 107.178 5.99058 106.704 5.78596C106.229 5.58226 105.632 5.47949 104.912 5.47949C104.258 5.47949 103.709 5.56744 103.268 5.74244C102.826 5.91743 102.493 6.16002 102.27 6.46926C102.047 6.77851 101.935 7.1322 101.935 7.52849C101.913 8.17013 102.164 8.684 102.688 9.06917C103.212 9.45434 104.046 9.79322 105.191 10.0849L107.171 10.5052C109.69 11.0895 111.541 12.0255 112.726 13.3153C113.909 14.6051 114.512 16.2476 114.534 18.2438C114.534 19.8892 114.149 21.2873 113.381 22.4372C112.612 23.5872 111.516 24.4686 110.092 25.0806C108.669 25.6936 106.959 26 104.963 26C102.967 26 101.113 25.6677 99.5974 25.0019C98.0813 24.3362 96.9143 23.3298 96.0963 21.9817C95.2783 20.6336 94.8533 18.9438 94.8203 16.9133H100.775C100.818 17.6837 101.01 18.3401 101.348 18.8827C101.686 19.4253 102.155 19.8345 102.755 20.1086C103.355 20.3827 104.064 20.5197 104.882 20.5197C105.58 20.5197 106.174 20.4206 106.665 20.2225C107.156 20.0243 107.53 19.7558 107.786 19.417C108.042 19.079 108.17 18.6873 108.17 18.2438C108.17 17.8235 108.05 17.4624 107.81 17.1587C107.57 16.855 107.183 16.5837 106.649 16.3448C106.115 16.106 105.411 15.8865 104.538 15.6884L102.149 15.1106C99.9784 14.6208 98.3186 13.7949 97.1681 12.6329C96.0176 11.4719 95.4423 9.92747 95.4423 8.00162C95.4423 6.42575 95.8453 5.03413 96.6533 3.82584C97.4603 2.61755 98.5806 1.67869 100.015 1.00742C101.45 0.33615 103.088 0.000976562 104.931 0.000976562C106.774 0.000976562 108.441 0.337076 109.831 1.00742C111.222 1.67869 112.299 2.63329 113.062 3.87028C113.825 5.10728 114.207 6.54334 114.207 8.17754H108.235C108.191 7.60533 108.045 7.11554 107.794 6.70722L107.792 6.70537Z" fill="black"/>
</svg>
