<svg width="21" height="18" viewBox="0 0 21 18" fill="none" xmlns="http://www.w3.org/2000/svg">
<path d="M10.8029 1.87941C11.2984 1.32092 11.9009 0.867406 12.5746 0.545657C13.2484 0.223909 13.9798 0.0404495 14.7256 0.00611755C15.4715 -0.0282144 16.2166 0.087277 16.9171 0.34577C17.6175 0.604262 18.2591 1.00051 18.8038 1.51112C19.3486 2.02172 19.7855 2.63631 20.0887 3.3186C20.3919 4.00089 20.5553 4.73702 20.5693 5.48353C20.5832 6.23003 20.4474 6.97176 20.1699 7.6649C19.8924 8.35803 19.4788 8.98852 18.9535 9.51912L10.742 17.8094C10.6823 17.8698 10.6111 17.9177 10.5327 17.9504C10.4543 17.9832 10.3702 18 10.2852 18C10.2002 18 10.1161 17.9832 10.0377 17.9504C9.95926 17.9177 9.88811 17.8698 9.82833 17.8094L1.6169 9.51912C0.621263 8.51335 0.0442854 7.16729 0.00244519 5.75268C-0.039395 4.33807 0.457019 2.96026 1.39147 1.89741C3.60976 -0.625165 7.53719 -0.633737 9.76747 1.87941L10.2852 2.46226L10.8029 1.87941ZM18.2138 2.74598C17.811 2.28812 17.3154 1.92111 16.7601 1.66928C16.2047 1.41744 15.6021 1.28654 14.9923 1.28524C14.3825 1.28395 13.7793 1.41229 13.2229 1.66176C12.6664 1.91122 12.1694 2.27612 11.7646 2.73226L10.7652 3.85769C10.7049 3.92567 10.6308 3.98009 10.5479 4.01735C10.4651 4.05462 10.3752 4.07389 10.2843 4.07389C10.1935 4.07389 10.1036 4.05462 10.0207 4.01735C9.93783 3.98009 9.86379 3.92567 9.80347 3.85769L8.8049 2.73226C8.4242 2.2991 7.96032 1.94689 7.44081 1.69654C6.9213 1.4462 6.35677 1.30284 5.78076 1.27498C5.20475 1.24713 4.62902 1.33534 4.08778 1.53438C3.54654 1.73342 3.05082 2.03923 2.6301 2.43363C2.20938 2.82803 1.87223 3.30298 1.63869 3.83026C1.40514 4.35753 1.27997 4.92637 1.27061 5.50298C1.26125 6.07958 1.36789 6.65219 1.5842 7.18676C1.8005 7.72134 2.12206 8.20698 2.52976 8.61483L10.2852 16.444L18.0398 8.61483C18.8066 7.84048 19.251 6.804 19.2833 5.7147C19.3156 4.62539 18.9334 3.5644 18.2138 2.74598Z" fill="#999999"/>
</svg>
