<svg width="16" height="15" viewBox="0 0 16 15" fill="none" xmlns="http://www.w3.org/2000/svg">
<path fill-rule="evenodd" clip-rule="evenodd" d="M4.78987 1.24224C4.99532 0.922621 5.27368 0.660549 5.60025 0.47928C5.92681 0.298011 6.29147 0.203153 6.66187 0.203125H9.55688C9.92728 0.203153 10.2919 0.298011 10.6185 0.47928C10.9451 0.660549 11.2234 0.922621 11.4289 1.24224L12.0379 2.19035C12.1064 2.29684 12.1992 2.38414 12.308 2.44452C12.4169 2.5049 12.5384 2.53648 12.6619 2.53646H13.3594C13.9561 2.53646 14.5284 2.78229 14.9504 3.21988C15.3723 3.65746 15.6094 4.25095 15.6094 4.86979V11.8698C15.6094 12.4886 15.3723 13.0821 14.9504 13.5197C14.5284 13.9573 13.9561 14.2031 13.3594 14.2031H2.85938C2.26264 14.2031 1.69034 13.9573 1.26838 13.5197C0.846428 13.0821 0.609375 12.4886 0.609375 11.8698V4.86979C0.609375 4.25095 0.846428 3.65746 1.26838 3.21988C1.69034 2.78229 2.26264 2.53646 2.85938 2.53646H3.55687C3.68032 2.53648 3.80186 2.5049 3.91071 2.44452C4.01956 2.38414 4.11236 2.29684 4.18088 2.19035L4.78987 1.24224ZM6.60938 7.9809C6.60938 7.56834 6.76741 7.17268 7.04872 6.88096C7.33002 6.58924 7.71155 6.42535 8.10938 6.42535C8.5072 6.42535 8.88873 6.58924 9.17003 6.88096C9.45134 7.17268 9.60938 7.56834 9.60938 7.9809C9.60938 8.39346 9.45134 8.78912 9.17003 9.08085C8.88873 9.37257 8.5072 9.53646 8.10938 9.53646C7.71155 9.53646 7.33002 9.37257 7.04872 9.08085C6.76741 8.78912 6.60938 8.39346 6.60938 7.9809ZM8.10938 4.86979C7.31373 4.86979 6.55066 5.19757 5.98805 5.78101C5.42545 6.36446 5.10938 7.15578 5.10938 7.9809C5.10938 8.80602 5.42545 9.59734 5.98805 10.1808C6.55066 10.7642 7.31373 11.092 8.10938 11.092C8.90502 11.092 9.66809 10.7642 10.2307 10.1808C10.7933 9.59734 11.1094 8.80602 11.1094 7.9809C11.1094 7.15578 10.7933 6.36446 10.2307 5.78101C9.66809 5.19757 8.90502 4.86979 8.10938 4.86979Z" fill="#393939"/>
</svg>
