<svg width="19" height="19" viewBox="0 0 19 19" fill="none" xmlns="http://www.w3.org/2000/svg">
<path d="M6.6635 3.41602C6.93594 3.41602 7.18697 3.56377 7.31923 3.80199L8.23663 5.45454C8.35674 5.67091 8.3624 5.93263 8.2517 6.15399L7.3679 7.92163C7.3679 7.92163 7.62403 9.2384 8.69593 10.3103C9.76787 11.3822 11.0802 11.6339 11.0802 11.6339L12.8476 10.7503C13.0691 10.6395 13.331 10.6452 13.5474 10.7656L15.2047 11.6869C15.4427 11.8193 15.5902 12.0701 15.5902 12.3424V14.245C15.5902 15.2139 14.6903 15.9137 13.7723 15.6039C11.8868 14.9677 8.96 13.7564 7.10495 11.9013C5.2499 10.0462 4.03854 7.11946 3.40234 5.234C3.09258 4.31596 3.79236 3.41602 4.76124 3.41602H6.6635Z" fill="#2F88FF" stroke="black" stroke-width="2" stroke-linejoin="round"/>
</svg>
