<svg width="17" height="17" viewBox="0 0 17 17" fill="none" xmlns="http://www.w3.org/2000/svg">
<path d="M6.29515 12.5678C4.53792 12.5678 3.05089 11.9591 1.83404 10.7416C0.617201 9.52413 0.00845787 8.03709 0.00781301 6.2805C0.00716816 4.52392 0.615912 3.03688 1.83404 1.81939C3.05218 0.601908 4.53921 -0.00683594 6.29515 -0.00683594C8.05109 -0.00683594 9.53845 0.601908 10.7572 1.81939C11.976 3.03688 12.5844 4.52392 12.5825 6.2805C12.5825 6.98984 12.4696 7.65888 12.2439 8.28762C12.0182 8.91635 11.7119 9.47254 11.325 9.95618L16.7418 15.373C16.9191 15.5503 17.0078 15.776 17.0078 16.0501C17.0078 16.3241 16.9191 16.5498 16.7418 16.7272C16.5645 16.9045 16.3388 16.9932 16.0647 16.9932C15.7906 16.9932 15.5649 16.9045 15.3876 16.7272L9.97083 11.3104C9.48719 11.6973 8.931 12.0036 8.30227 12.2293C7.67353 12.455 7.00449 12.5678 6.29515 12.5678ZM6.29515 10.6333C7.50426 10.6333 8.53216 10.2103 9.37885 9.3642C10.2255 8.51815 10.6486 7.49025 10.6479 6.2805C10.6473 5.07076 10.2243 4.04318 9.37885 3.19777C8.53345 2.35237 7.50555 1.92902 6.29515 1.92773C5.08476 1.92644 4.05718 2.34979 3.21242 3.19777C2.36766 4.04576 1.94431 5.07333 1.94238 6.2805C1.94044 7.48767 2.36379 8.51557 3.21242 9.3642C4.06105 10.2128 5.08863 10.6359 6.29515 10.6333Z" fill="#333333" fill-opacity="0.6"/>
</svg>
