<svg width="131" height="148" viewBox="0 0 131 148" fill="none" xmlns="http://www.w3.org/2000/svg">
<path opacity="0.5" d="M94.8047 84.5791C94.8047 110.536 73.7621 131.579 47.8047 131.579C21.8473 131.579 0.804688 110.536 0.804688 84.5791C0.804688 58.6217 21.8473 37.5791 47.8047 37.5791C73.7621 37.5791 94.8047 58.6217 94.8047 84.5791Z" fill="#E5E5E5"/>
<g filter="url(#filter0_i_682_409)">
<path d="M82.8047 84.5791C82.8047 103.909 67.1347 119.579 47.8047 119.579C28.4747 119.579 12.8047 103.909 12.8047 84.5791C12.8047 65.2491 28.4747 49.5791 47.8047 49.5791C67.1347 49.5791 82.8047 65.2491 82.8047 84.5791Z" fill="url(#paint0_linear_682_409)"/>
</g>
<path d="M60.7016 95.0321C58.8903 99.6609 53.6697 101.945 49.0408 100.134C44.412 98.3225 42.1279 93.1018 43.9392 88.473C45.7504 83.8442 50.9711 81.5601 55.6 83.3714C60.2288 85.1826 62.5128 90.4033 60.7016 95.0321Z" fill="#FA7887"/>
<path d="M47.6625 89.9305C45.8513 94.5594 40.6306 96.8434 36.0018 95.0322C31.373 93.2209 29.0889 88.0002 30.9001 83.3714C32.7114 78.7426 37.9321 76.4585 42.5609 78.2698C47.1897 80.081 49.4738 85.3017 47.6625 89.9305Z" fill="#FD91B3"/>
<path d="M58.1899 82.2372C56.3786 86.866 51.1579 89.1501 46.5291 87.3388C41.9003 85.5276 39.6162 80.3069 41.4275 75.6781C43.2387 71.0493 48.4594 68.7652 53.0882 70.5764C57.717 72.3877 60.0011 77.6084 58.1899 82.2372Z" fill="url(#paint1_linear_682_409)"/>
<rect opacity="0.5" x="73.8047" y="106.579" width="44.1484" height="44.1484" rx="10" transform="rotate(-20.8533 73.8047 106.579)" fill="#D9D9D9"/>
<path opacity="0.5" d="M83.3645 117.924C81.3984 112.763 83.9886 106.985 89.1496 105.019L102.489 99.938C107.65 97.972 113.428 100.562 115.394 105.723L120.475 119.062C122.441 124.224 119.851 130.001 114.69 131.967L101.35 137.049C96.1894 139.015 90.4118 136.424 88.4458 131.263L83.3645 117.924Z" fill="url(#paint2_linear_682_409)"/>
<g filter="url(#filter1_d_682_409)">
<path d="M111.468 39.8682C108.54 38.2686 106.032 36.0178 104.145 33.297C102.257 30.5762 101.043 27.4615 100.601 24.2037C100.591 24.1216 100.555 24.0447 100.497 23.9846C100.439 23.9245 100.363 23.8845 100.28 23.8706C100.197 23.8568 100.112 23.8698 100.037 23.9078C99.9629 23.9458 99.9032 24.0066 99.8674 24.0811C98.3902 27.0183 96.2299 29.5693 93.5606 31.5289C90.8913 33.4885 87.7874 34.8017 84.499 35.3629C84.4156 35.372 84.3376 35.4075 84.2768 35.4642C84.216 35.5208 84.1758 35.5956 84.1621 35.677C84.1485 35.7584 84.1623 35.8421 84.2014 35.9155C84.2405 35.9888 84.3027 36.0478 84.3787 36.0834C87.3061 37.683 89.8145 39.9339 91.702 42.6547C93.5895 45.3755 94.8032 48.4902 95.2455 51.748C95.2552 51.8301 95.2919 51.907 95.3499 51.9671C95.4079 52.0272 95.484 52.0672 95.5669 52.081C95.6499 52.0949 95.7349 52.0818 95.8093 52.0438C95.8837 52.0059 95.9433 51.9451 95.9792 51.8706C97.4564 48.9334 99.6167 46.3823 102.286 44.4228C104.955 42.4632 108.059 41.1499 111.348 40.5887C111.431 40.5797 111.509 40.5441 111.57 40.4875C111.631 40.4308 111.671 40.3561 111.684 40.2747C111.698 40.1933 111.684 40.1096 111.645 40.0362C111.606 39.9629 111.544 39.9039 111.468 39.8682Z" fill="#EF048F"/>
</g>
<g filter="url(#filter2_d_682_409)">
<circle cx="117.805" cy="18.5791" r="7" fill="url(#paint3_linear_682_409)"/>
<circle cx="117.805" cy="18.5791" r="7" fill="white" fill-opacity="0.5"/>
</g>
<g filter="url(#filter3_d_682_409)">
<circle cx="105.805" cy="4.5791" r="4" fill="#FCA3A8" fill-opacity="0.5" shape-rendering="crispEdges"/>
</g>
<g filter="url(#filter4_d_682_409)">
<path fill-rule="evenodd" clip-rule="evenodd" d="M111.713 115.25C113.613 120.453 110.935 126.212 105.732 128.112C100.528 130.012 94.7699 127.334 92.8699 122.13C90.9699 116.927 93.6478 111.169 98.8511 109.269C104.054 107.369 109.813 110.047 111.713 115.25ZM99.1929 118.002C100.079 117.679 100.536 116.698 100.212 115.811C99.8882 114.925 98.9071 114.468 98.0206 114.792C97.1341 115.116 96.6779 116.097 97.0016 116.983C97.3253 117.87 98.3064 118.326 99.1929 118.002ZM104.218 116.168C105.104 115.844 105.56 114.863 105.237 113.976C104.913 113.09 103.932 112.634 103.045 112.957C102.159 113.281 101.703 114.262 102.026 115.149C102.35 116.035 103.331 116.491 104.218 116.168ZM103.559 121.945C101.4 122.733 99.0118 121.622 98.2236 119.464L96.5487 120.075C97.6746 123.159 101.087 124.746 104.17 123.62C107.254 122.494 108.841 119.081 107.715 115.998L106.04 116.61C106.828 118.768 105.717 121.157 103.559 121.945Z" fill="url(#paint4_linear_682_409)"/>
</g>
<defs>
<filter id="filter0_i_682_409" x="12.8047" y="49.5791" width="70" height="72" filterUnits="userSpaceOnUse" color-interpolation-filters="sRGB">
<feFlood flood-opacity="0" result="BackgroundImageFix"/>
<feBlend mode="normal" in="SourceGraphic" in2="BackgroundImageFix" result="shape"/>
<feColorMatrix in="SourceAlpha" type="matrix" values="0 0 0 0 0 0 0 0 0 0 0 0 0 0 0 0 0 0 127 0" result="hardAlpha"/>
<feOffset dy="2"/>
<feGaussianBlur stdDeviation="3.5"/>
<feComposite in2="hardAlpha" operator="arithmetic" k2="-1" k3="1"/>
<feColorMatrix type="matrix" values="0 0 0 0 0.947115 0 0 0 0 0.924348 0 0 0 0 0.924348 0 0 0 0.8 0"/>
<feBlend mode="normal" in2="shape" result="effect1_innerShadow_682_409"/>
</filter>
<filter id="filter1_d_682_409" x="82.1562" y="23.8652" width="31.5352" height="32.2207" filterUnits="userSpaceOnUse" color-interpolation-filters="sRGB">
<feFlood flood-opacity="0" result="BackgroundImageFix"/>
<feColorMatrix in="SourceAlpha" type="matrix" values="0 0 0 0 0 0 0 0 0 0 0 0 0 0 0 0 0 0 127 0" result="hardAlpha"/>
<feOffset dy="2"/>
<feGaussianBlur stdDeviation="1"/>
<feComposite in2="hardAlpha" operator="out"/>
<feColorMatrix type="matrix" values="0 0 0 0 0.0769231 0 0 0 0 0.0769231 0 0 0 0 0.0769231 0 0 0 0.1 0"/>
<feBlend mode="normal" in2="BackgroundImageFix" result="effect1_dropShadow_682_409"/>
<feBlend mode="normal" in="SourceGraphic" in2="effect1_dropShadow_682_409" result="shape"/>
</filter>
<filter id="filter2_d_682_409" x="108.805" y="11.5791" width="18" height="18" filterUnits="userSpaceOnUse" color-interpolation-filters="sRGB">
<feFlood flood-opacity="0" result="BackgroundImageFix"/>
<feColorMatrix in="SourceAlpha" type="matrix" values="0 0 0 0 0 0 0 0 0 0 0 0 0 0 0 0 0 0 127 0" result="hardAlpha"/>
<feOffset dy="2"/>
<feGaussianBlur stdDeviation="1"/>
<feComposite in2="hardAlpha" operator="out"/>
<feColorMatrix type="matrix" values="0 0 0 0 0.0769231 0 0 0 0 0.0769231 0 0 0 0 0.0769231 0 0 0 0.1 0"/>
<feBlend mode="normal" in2="BackgroundImageFix" result="effect1_dropShadow_682_409"/>
<feBlend mode="normal" in="SourceGraphic" in2="effect1_dropShadow_682_409" result="shape"/>
</filter>
<filter id="filter3_d_682_409" x="99.8047" y="0.579102" width="12" height="12" filterUnits="userSpaceOnUse" color-interpolation-filters="sRGB">
<feFlood flood-opacity="0" result="BackgroundImageFix"/>
<feColorMatrix in="SourceAlpha" type="matrix" values="0 0 0 0 0 0 0 0 0 0 0 0 0 0 0 0 0 0 127 0" result="hardAlpha"/>
<feOffset dy="2"/>
<feGaussianBlur stdDeviation="1"/>
<feComposite in2="hardAlpha" operator="out"/>
<feColorMatrix type="matrix" values="0 0 0 0 0.0769231 0 0 0 0 0.0769231 0 0 0 0 0.0769231 0 0 0 0.1 0"/>
<feBlend mode="normal" in2="BackgroundImageFix" result="effect1_dropShadow_682_409"/>
<feBlend mode="normal" in="SourceGraphic" in2="effect1_dropShadow_682_409" result="shape"/>
</filter>
<filter id="filter4_d_682_409" x="91.2578" y="108.657" width="22.0664" height="22.0654" filterUnits="userSpaceOnUse" color-interpolation-filters="sRGB">
<feFlood flood-opacity="0" result="BackgroundImageFix"/>
<feColorMatrix in="SourceAlpha" type="matrix" values="0 0 0 0 0 0 0 0 0 0 0 0 0 0 0 0 0 0 127 0" result="hardAlpha"/>
<feOffset dy="1"/>
<feGaussianBlur stdDeviation="0.5"/>
<feComposite in2="hardAlpha" operator="out"/>
<feColorMatrix type="matrix" values="0 0 0 0 0 0 0 0 0 0 0 0 0 0 0 0 0 0 0.29 0"/>
<feBlend mode="normal" in2="BackgroundImageFix" result="effect1_dropShadow_682_409"/>
<feBlend mode="normal" in="SourceGraphic" in2="effect1_dropShadow_682_409" result="shape"/>
</filter>
<linearGradient id="paint0_linear_682_409" x1="70.1547" y1="49.5791" x2="25.4546" y2="119.579" gradientUnits="userSpaceOnUse">
<stop stop-color="#F19E6B"/>
<stop offset="0.296649" stop-color="#FB5B21"/>
<stop offset="0.639423" stop-color="#FD0B58"/>
<stop offset="1" stop-color="#FA4CA3"/>
</linearGradient>
<linearGradient id="paint1_linear_682_409" x1="47.9664" y1="68.5723" x2="44.7477" y2="97.3801" gradientUnits="userSpaceOnUse">
<stop stop-color="white" stop-opacity="0.9"/>
<stop offset="1" stop-color="#FFD7CF"/>
</linearGradient>
<linearGradient id="paint2_linear_682_409" x1="101.051" y1="84.7738" x2="117.295" y2="157.841" gradientUnits="userSpaceOnUse">
<stop stop-color="white"/>
<stop offset="1" stop-color="#999999"/>
</linearGradient>
<linearGradient id="paint3_linear_682_409" x1="117.805" y1="11.5791" x2="117.805" y2="25.5791" gradientUnits="userSpaceOnUse">
<stop stop-color="#FC1B6B"/>
<stop offset="1" stop-color="#F87139"/>
</linearGradient>
<linearGradient id="paint4_linear_682_409" x1="96.847" y1="102.494" x2="104.982" y2="175.741" gradientUnits="userSpaceOnUse">
<stop stop-color="white"/>
<stop offset="1" stop-color="#B8B8B8"/>
</linearGradient>
</defs>
</svg>
