<svg width="11" height="14" viewBox="0 0 11 14" fill="none" xmlns="http://www.w3.org/2000/svg">
<path fill-rule="evenodd" clip-rule="evenodd" d="M5.22804 0.173644C5.33937 0.0624543 5.49028 0 5.64762 0C5.80497 0 5.95588 0.0624543 6.06721 0.173644L10.8172 4.92364C10.8755 4.978 10.9223 5.04355 10.9548 5.11638C10.9872 5.18922 11.0047 5.26784 11.0061 5.34756C11.0075 5.42729 10.9928 5.50648 10.963 5.58041C10.9331 5.65434 10.8887 5.7215 10.8323 5.77788C10.7759 5.83426 10.7087 5.87871 10.6348 5.90858C10.5609 5.93844 10.4817 5.9531 10.402 5.9517C10.3222 5.95029 10.2436 5.93284 10.1708 5.90039C10.0979 5.86794 10.0324 5.82115 9.97804 5.76281L6.24137 2.02614V13.2599C6.24137 13.4174 6.17882 13.5684 6.06747 13.6797C5.95612 13.7911 5.8051 13.8536 5.64762 13.8536C5.49015 13.8536 5.33913 13.7911 5.22778 13.6797C5.11643 13.5684 5.05387 13.4174 5.05387 13.2599V2.02614L1.31721 5.76281C1.26285 5.82115 1.1973 5.86794 1.12447 5.90039C1.05163 5.93284 0.97301 5.95029 0.893287 5.9517C0.813564 5.9531 0.734374 5.93844 0.660442 5.90858C0.586509 5.87871 0.519349 5.83426 0.462968 5.77788C0.406586 5.7215 0.362138 5.65434 0.332276 5.58041C0.302413 5.50648 0.287748 5.42729 0.289155 5.34756C0.290562 5.26784 0.308011 5.18922 0.340463 5.11638C0.372915 5.04355 0.419704 4.978 0.47804 4.92364L5.22804 0.173644Z" fill="white"/>
</svg>
