<svg width="21" height="21" viewBox="0 0 21 21" fill="none" xmlns="http://www.w3.org/2000/svg">
<path fill-rule="evenodd" clip-rule="evenodd" d="M11.2357 16.0034V18.5368H9.98568V16.0034C8.55504 15.8493 7.23186 15.1718 6.27046 14.1012C5.30906 13.0306 4.77728 11.6424 4.77734 10.2035V8.53678H6.02734V10.2035C6.02734 11.419 6.51023 12.5848 7.36977 13.4444C8.22931 14.3039 9.3951 14.7868 10.6107 14.7868C11.8263 14.7868 12.992 14.3039 13.8516 13.4444C14.7111 12.5848 15.194 11.419 15.194 10.2035V8.53678H16.444V10.2035C16.4441 11.6424 15.9123 13.0306 14.9509 14.1012C13.9895 15.1718 12.6663 15.8493 11.2357 16.0034ZM7.27734 5.20345C7.27734 4.3194 7.62853 3.47155 8.25365 2.84643C8.87878 2.22131 9.72662 1.87012 10.6107 1.87012C11.4947 1.87012 12.3426 2.22131 12.9677 2.84643C13.5928 3.47155 13.944 4.3194 13.944 5.20345V10.2035C13.944 11.0875 13.5928 11.9354 12.9677 12.5605C12.3426 13.1856 11.4947 13.5368 10.6107 13.5368C9.72662 13.5368 8.87878 13.1856 8.25365 12.5605C7.62853 11.9354 7.27734 11.0875 7.27734 10.2035V5.20345Z" fill="#333BCF"/>
</svg>
