<svg width="16" height="16" viewBox="0 0 16 16" fill="none" xmlns="http://www.w3.org/2000/svg">
<path d="M12.7184 2.50391V4.96891M13.9509 3.73641H11.4859M7.78844 2.50391C7.05296 3.23938 6.63977 4.23691 6.63977 5.27703C6.63977 6.31715 7.05296 7.31468 7.78844 8.05016C8.52392 8.78563 9.52144 9.19882 10.5616 9.19882C11.6017 9.19882 12.5992 8.78563 13.3347 8.05016C13.3347 9.1471 13.0094 10.2194 12.4 11.1315C11.7905 12.0436 10.9243 12.7544 9.9109 13.1742C8.89745 13.594 7.78229 13.7038 6.70642 13.4898C5.63055 13.2758 4.64231 12.7476 3.86665 11.9719C3.09099 11.1963 2.56276 10.208 2.34876 9.13218C2.13476 8.05631 2.24459 6.94114 2.66437 5.9277C3.08416 4.91425 3.79503 4.04805 4.70711 3.43862C5.61918 2.82919 6.6915 2.50391 7.78844 2.50391Z" stroke="white" stroke-width="1.5" stroke-linecap="round" stroke-linejoin="round"/>
</svg>
