<svg width="17" height="17" viewBox="0 0 17 17" fill="none" xmlns="http://www.w3.org/2000/svg">
<path d="M16.1875 8.50007H15.3657M8.79095 1.10352V1.92535M2.21624 8.50007H1.3944M8.79095 15.0748V15.8966M14.0507 3.2403L13.4754 3.81558M3.53118 3.2403L4.10646 3.81558M4.10646 13.1846L3.53118 13.7598M13.4754 13.1846L14.0507 13.7598M12.0783 8.50007C12.0783 9.37193 11.732 10.2081 11.1155 10.8246C10.499 11.4411 9.66281 11.7874 8.79095 11.7874C7.91909 11.7874 7.08293 11.4411 6.46644 10.8246C5.84994 10.2081 5.50359 9.37193 5.50359 8.50007C5.50359 7.62821 5.84994 6.79205 6.46644 6.17556C7.08293 5.55906 7.91909 5.21271 8.79095 5.21271C9.66281 5.21271 10.499 5.55906 11.1155 6.17556C11.732 6.79205 12.0783 7.62821 12.0783 8.50007Z" stroke="white" stroke-width="1.5" stroke-linecap="round" stroke-linejoin="round"/>
</svg>
