<svg width="221" height="38" viewBox="0 0 221 38" fill="none" xmlns="http://www.w3.org/2000/svg">
<mask id="path-1-outside-1_1361_476" maskUnits="userSpaceOnUse" x="1" y="5.69238" width="219" height="27" fill="black">
<rect fill="white" x="1" y="5.69238" width="219" height="27"/>
<path d="M2.32812 30.6924V7.78613H9.75C12.5625 7.78613 14.3958 7.90072 15.25 8.12988C16.5625 8.47363 17.6615 9.22363 18.5469 10.3799C19.4323 11.5257 19.875 13.0101 19.875 14.833C19.875 16.2393 19.6198 17.4215 19.1094 18.3799C18.599 19.3382 17.9479 20.0934 17.1562 20.6455C16.375 21.1872 15.5781 21.5465 14.7656 21.7236C13.6615 21.9424 12.0625 22.0518 9.96875 22.0518H6.95312V30.6924H2.32812ZM6.95312 11.6611V18.1611H9.48438C11.3073 18.1611 12.526 18.0413 13.1406 17.8018C13.7552 17.5622 14.2344 17.1872 14.5781 16.6768C14.9323 16.1663 15.1094 15.5726 15.1094 14.8955C15.1094 14.0622 14.8646 13.3747 14.375 12.833C13.8854 12.2913 13.2656 11.9528 12.5156 11.8174C11.9635 11.7132 10.8542 11.6611 9.1875 11.6611H6.95312ZM26.8944 19.3799C26.8944 17.0465 27.2433 15.0882 27.9412 13.5049C28.4621 12.3382 29.1704 11.2913 30.0662 10.3643C30.9725 9.43717 31.9621 8.74967 33.035 8.30176C34.4621 7.69759 36.1079 7.39551 37.9725 7.39551C41.3475 7.39551 44.0454 8.44238 46.0662 10.5361C48.0975 12.6299 49.1131 15.5413 49.1131 19.2705C49.1131 22.9684 48.1079 25.8643 46.0975 27.958C44.0871 30.0413 41.3996 31.083 38.035 31.083C34.6287 31.083 31.9204 30.0465 29.91 27.9736C27.8996 25.8903 26.8944 23.0257 26.8944 19.3799ZM31.66 19.2236C31.66 21.8174 32.259 23.7861 33.4569 25.1299C34.6548 26.4632 36.1756 27.1299 38.0194 27.1299C39.8631 27.1299 41.3735 26.4684 42.5506 25.1455C43.7381 23.8122 44.3319 21.8174 44.3319 19.1611C44.3319 16.5361 43.7537 14.5778 42.5975 13.2861C41.4517 11.9945 39.9256 11.3486 38.0194 11.3486C36.1131 11.3486 34.5767 12.0049 33.41 13.3174C32.2433 14.6195 31.66 16.5882 31.66 19.2236ZM56.9137 30.6924V7.78613H66.6481C69.096 7.78613 70.8721 7.99447 71.9762 8.41113C73.0908 8.81738 73.9815 9.54655 74.6481 10.5986C75.3148 11.6507 75.6481 12.8538 75.6481 14.208C75.6481 15.9268 75.1429 17.3486 74.1325 18.4736C73.1221 19.5882 71.6117 20.2913 69.6012 20.583C70.6012 21.1663 71.4242 21.807 72.07 22.5049C72.7262 23.2028 73.6065 24.4424 74.7106 26.2236L77.5075 30.6924H71.9762L68.6325 25.708C67.445 23.9268 66.6325 22.807 66.195 22.3486C65.7575 21.8799 65.294 21.5622 64.8044 21.3955C64.3148 21.2184 63.5387 21.1299 62.4762 21.1299H61.5387V30.6924H56.9137ZM61.5387 17.4736H64.9606C67.1794 17.4736 68.5648 17.3799 69.1169 17.1924C69.669 17.0049 70.1012 16.682 70.4137 16.2236C70.7262 15.7653 70.8825 15.1924 70.8825 14.5049C70.8825 13.734 70.6742 13.1143 70.2575 12.6455C69.8512 12.1663 69.2731 11.8643 68.5231 11.7393C68.1481 11.6872 67.0231 11.6611 65.1481 11.6611H61.5387V17.4736ZM89.3394 30.6924V11.6611H82.5425V7.78613H100.746V11.6611H93.9644V30.6924H89.3394ZM107.937 30.6924V7.78613H123.64V11.6611H112.562V17.083H122.124V20.958H112.562V30.6924H107.937ZM130.691 19.3799C130.691 17.0465 131.04 15.0882 131.738 13.5049C132.258 12.3382 132.967 11.2913 133.863 10.3643C134.769 9.43717 135.758 8.74967 136.831 8.30176C138.258 7.69759 139.904 7.39551 141.769 7.39551C145.144 7.39551 147.842 8.44238 149.863 10.5361C151.894 12.6299 152.909 15.5413 152.909 19.2705C152.909 22.9684 151.904 25.8643 149.894 27.958C147.883 30.0413 145.196 31.083 141.831 31.083C138.425 31.083 135.717 30.0465 133.706 27.9736C131.696 25.8903 130.691 23.0257 130.691 19.3799ZM135.456 19.2236C135.456 21.8174 136.055 23.7861 137.253 25.1299C138.451 26.4632 139.972 27.1299 141.816 27.1299C143.659 27.1299 145.17 26.4684 146.347 25.1455C147.534 23.8122 148.128 21.8174 148.128 19.1611C148.128 16.5361 147.55 14.5778 146.394 13.2861C145.248 11.9945 143.722 11.3486 141.816 11.3486C139.909 11.3486 138.373 12.0049 137.206 13.3174C136.04 14.6195 135.456 16.5882 135.456 19.2236ZM160.819 30.6924V7.97363H165.444V26.833H176.944V30.6924H160.819ZM184.276 30.6924V7.78613H188.901V30.6924H184.276ZM196.546 19.3799C196.546 17.0465 196.895 15.0882 197.592 13.5049C198.113 12.3382 198.822 11.2913 199.717 10.3643C200.624 9.43717 201.613 8.74967 202.686 8.30176C204.113 7.69759 205.759 7.39551 207.624 7.39551C210.999 7.39551 213.697 8.44238 215.717 10.5361C217.749 12.6299 218.764 15.5413 218.764 19.2705C218.764 22.9684 217.759 25.8643 215.749 27.958C213.738 30.0413 211.051 31.083 207.686 31.083C204.28 31.083 201.572 30.0465 199.561 27.9736C197.551 25.8903 196.546 23.0257 196.546 19.3799ZM201.311 19.2236C201.311 21.8174 201.91 23.7861 203.108 25.1299C204.306 26.4632 205.827 27.1299 207.671 27.1299C209.514 27.1299 211.025 26.4684 212.202 25.1455C213.389 23.8122 213.983 21.8174 213.983 19.1611C213.983 16.5361 213.405 14.5778 212.249 13.2861C211.103 11.9945 209.577 11.3486 207.671 11.3486C205.764 11.3486 204.228 12.0049 203.061 13.3174C201.895 14.6195 201.311 16.5882 201.311 19.2236Z"/>
</mask>
<path d="M2.32812 30.6924V7.78613H9.75C12.5625 7.78613 14.3958 7.90072 15.25 8.12988C16.5625 8.47363 17.6615 9.22363 18.5469 10.3799C19.4323 11.5257 19.875 13.0101 19.875 14.833C19.875 16.2393 19.6198 17.4215 19.1094 18.3799C18.599 19.3382 17.9479 20.0934 17.1562 20.6455C16.375 21.1872 15.5781 21.5465 14.7656 21.7236C13.6615 21.9424 12.0625 22.0518 9.96875 22.0518H6.95312V30.6924H2.32812ZM6.95312 11.6611V18.1611H9.48438C11.3073 18.1611 12.526 18.0413 13.1406 17.8018C13.7552 17.5622 14.2344 17.1872 14.5781 16.6768C14.9323 16.1663 15.1094 15.5726 15.1094 14.8955C15.1094 14.0622 14.8646 13.3747 14.375 12.833C13.8854 12.2913 13.2656 11.9528 12.5156 11.8174C11.9635 11.7132 10.8542 11.6611 9.1875 11.6611H6.95312ZM26.8944 19.3799C26.8944 17.0465 27.2433 15.0882 27.9412 13.5049C28.4621 12.3382 29.1704 11.2913 30.0662 10.3643C30.9725 9.43717 31.9621 8.74967 33.035 8.30176C34.4621 7.69759 36.1079 7.39551 37.9725 7.39551C41.3475 7.39551 44.0454 8.44238 46.0662 10.5361C48.0975 12.6299 49.1131 15.5413 49.1131 19.2705C49.1131 22.9684 48.1079 25.8643 46.0975 27.958C44.0871 30.0413 41.3996 31.083 38.035 31.083C34.6287 31.083 31.9204 30.0465 29.91 27.9736C27.8996 25.8903 26.8944 23.0257 26.8944 19.3799ZM31.66 19.2236C31.66 21.8174 32.259 23.7861 33.4569 25.1299C34.6548 26.4632 36.1756 27.1299 38.0194 27.1299C39.8631 27.1299 41.3735 26.4684 42.5506 25.1455C43.7381 23.8122 44.3319 21.8174 44.3319 19.1611C44.3319 16.5361 43.7537 14.5778 42.5975 13.2861C41.4517 11.9945 39.9256 11.3486 38.0194 11.3486C36.1131 11.3486 34.5767 12.0049 33.41 13.3174C32.2433 14.6195 31.66 16.5882 31.66 19.2236ZM56.9137 30.6924V7.78613H66.6481C69.096 7.78613 70.8721 7.99447 71.9762 8.41113C73.0908 8.81738 73.9815 9.54655 74.6481 10.5986C75.3148 11.6507 75.6481 12.8538 75.6481 14.208C75.6481 15.9268 75.1429 17.3486 74.1325 18.4736C73.1221 19.5882 71.6117 20.2913 69.6012 20.583C70.6012 21.1663 71.4242 21.807 72.07 22.5049C72.7262 23.2028 73.6065 24.4424 74.7106 26.2236L77.5075 30.6924H71.9762L68.6325 25.708C67.445 23.9268 66.6325 22.807 66.195 22.3486C65.7575 21.8799 65.294 21.5622 64.8044 21.3955C64.3148 21.2184 63.5387 21.1299 62.4762 21.1299H61.5387V30.6924H56.9137ZM61.5387 17.4736H64.9606C67.1794 17.4736 68.5648 17.3799 69.1169 17.1924C69.669 17.0049 70.1012 16.682 70.4137 16.2236C70.7262 15.7653 70.8825 15.1924 70.8825 14.5049C70.8825 13.734 70.6742 13.1143 70.2575 12.6455C69.8512 12.1663 69.2731 11.8643 68.5231 11.7393C68.1481 11.6872 67.0231 11.6611 65.1481 11.6611H61.5387V17.4736ZM89.3394 30.6924V11.6611H82.5425V7.78613H100.746V11.6611H93.9644V30.6924H89.3394ZM107.937 30.6924V7.78613H123.64V11.6611H112.562V17.083H122.124V20.958H112.562V30.6924H107.937ZM130.691 19.3799C130.691 17.0465 131.04 15.0882 131.738 13.5049C132.258 12.3382 132.967 11.2913 133.863 10.3643C134.769 9.43717 135.758 8.74967 136.831 8.30176C138.258 7.69759 139.904 7.39551 141.769 7.39551C145.144 7.39551 147.842 8.44238 149.863 10.5361C151.894 12.6299 152.909 15.5413 152.909 19.2705C152.909 22.9684 151.904 25.8643 149.894 27.958C147.883 30.0413 145.196 31.083 141.831 31.083C138.425 31.083 135.717 30.0465 133.706 27.9736C131.696 25.8903 130.691 23.0257 130.691 19.3799ZM135.456 19.2236C135.456 21.8174 136.055 23.7861 137.253 25.1299C138.451 26.4632 139.972 27.1299 141.816 27.1299C143.659 27.1299 145.17 26.4684 146.347 25.1455C147.534 23.8122 148.128 21.8174 148.128 19.1611C148.128 16.5361 147.55 14.5778 146.394 13.2861C145.248 11.9945 143.722 11.3486 141.816 11.3486C139.909 11.3486 138.373 12.0049 137.206 13.3174C136.04 14.6195 135.456 16.5882 135.456 19.2236ZM160.819 30.6924V7.97363H165.444V26.833H176.944V30.6924H160.819ZM184.276 30.6924V7.78613H188.901V30.6924H184.276ZM196.546 19.3799C196.546 17.0465 196.895 15.0882 197.592 13.5049C198.113 12.3382 198.822 11.2913 199.717 10.3643C200.624 9.43717 201.613 8.74967 202.686 8.30176C204.113 7.69759 205.759 7.39551 207.624 7.39551C210.999 7.39551 213.697 8.44238 215.717 10.5361C217.749 12.6299 218.764 15.5413 218.764 19.2705C218.764 22.9684 217.759 25.8643 215.749 27.958C213.738 30.0413 211.051 31.083 207.686 31.083C204.28 31.083 201.572 30.0465 199.561 27.9736C197.551 25.8903 196.546 23.0257 196.546 19.3799ZM201.311 19.2236C201.311 21.8174 201.91 23.7861 203.108 25.1299C204.306 26.4632 205.827 27.1299 207.671 27.1299C209.514 27.1299 211.025 26.4684 212.202 25.1455C213.389 23.8122 213.983 21.8174 213.983 19.1611C213.983 16.5361 213.405 14.5778 212.249 13.2861C211.103 11.9945 209.577 11.3486 207.671 11.3486C205.764 11.3486 204.228 12.0049 203.061 13.3174C201.895 14.6195 201.311 16.5882 201.311 19.2236Z" fill="#121212"/>
<path d="M2.32812 30.6924H1.32812V31.6924H2.32812V30.6924ZM2.32812 7.78613V6.78613H1.32812V7.78613H2.32812ZM15.25 8.12988L14.9909 9.09574L14.9966 9.09726L15.25 8.12988ZM18.5469 10.3799L17.7529 10.9879L17.7556 10.9913L18.5469 10.3799ZM17.1562 20.6455L17.726 21.4673L17.7283 21.4658L17.1562 20.6455ZM14.7656 21.7236L14.96 22.7046L14.9693 22.7027L14.9786 22.7007L14.7656 21.7236ZM6.95312 22.0518V21.0518H5.95312V22.0518H6.95312ZM6.95312 30.6924V31.6924H7.95312V30.6924H6.95312ZM6.95312 11.6611V10.6611H5.95312V11.6611H6.95312ZM6.95312 18.1611H5.95312V19.1611H6.95312V18.1611ZM14.5781 16.6768L13.7565 16.1066L13.7487 16.1182L14.5781 16.6768ZM12.5156 11.8174L12.3302 12.8001L12.3379 12.8015L12.5156 11.8174ZM2.32812 30.6924H3.32812V7.78613H2.32812H1.32812V30.6924H2.32812ZM2.32812 7.78613V8.78613H9.75V7.78613V6.78613H2.32812V7.78613ZM9.75 7.78613V8.78613C12.5913 8.78613 14.2871 8.90691 14.9909 9.09573L15.25 8.12988L15.5091 7.16404C14.5046 6.89452 12.5337 6.78613 9.75 6.78613V7.78613ZM15.25 8.12988L14.9966 9.09726C16.0777 9.3804 16.9921 9.99436 17.7529 10.9879L18.5469 10.3799L19.3408 9.7719C18.3308 8.4529 17.0473 7.56687 15.5034 7.16251L15.25 8.12988ZM18.5469 10.3799L17.7556 10.9913C18.474 11.921 18.875 13.1732 18.875 14.833H19.875H20.875C20.875 12.847 20.3906 11.1305 19.3382 9.76844L18.5469 10.3799ZM19.875 14.833H18.875C18.875 16.1222 18.6407 17.1326 18.2268 17.9098L19.1094 18.3799L19.992 18.85C20.5989 17.7105 20.875 16.3563 20.875 14.833H19.875ZM19.1094 18.3799L18.2268 17.9098C17.7813 18.7461 17.2307 19.3745 16.5842 19.8253L17.1562 20.6455L17.7283 21.4658C18.6652 20.8124 19.4166 19.9303 19.992 18.85L19.1094 18.3799ZM17.1562 20.6455L16.5865 19.8237C15.8975 20.3014 15.2202 20.6011 14.5527 20.7466L14.7656 21.7236L14.9786 22.7007C15.9361 22.492 16.8525 22.073 17.726 21.4673L17.1562 20.6455ZM14.7656 21.7236L14.5713 20.7427C13.5641 20.9422 12.0427 21.0518 9.96875 21.0518V22.0518V23.0518C12.0823 23.0518 13.7589 22.9425 14.96 22.7046L14.7656 21.7236ZM9.96875 22.0518V21.0518H6.95312V22.0518V23.0518H9.96875V22.0518ZM6.95312 22.0518H5.95312V30.6924H6.95312H7.95312V22.0518H6.95312ZM6.95312 30.6924V29.6924H2.32812V30.6924V31.6924H6.95312V30.6924ZM6.95312 11.6611H5.95312V18.1611H6.95312H7.95312V11.6611H6.95312ZM6.95312 18.1611V19.1611H9.48438V18.1611V17.1611H6.95312V18.1611ZM9.48438 18.1611V19.1611C10.4144 19.1611 11.21 19.1307 11.8634 19.0665C12.5002 19.0039 13.0674 18.9036 13.5038 18.7335L13.1406 17.8018L12.7774 16.87C12.5993 16.9395 12.2498 17.0189 11.6678 17.0761C11.1025 17.1317 10.3773 17.1611 9.48438 17.1611V18.1611ZM13.1406 17.8018L13.5038 18.7335C14.2938 18.4255 14.9417 17.9271 15.4076 17.2354L14.5781 16.6768L13.7487 16.1182C13.527 16.4473 13.2166 16.6988 12.7774 16.87L13.1406 17.8018ZM14.5781 16.6768L15.3997 17.2468C15.8805 16.5539 16.1094 15.7572 16.1094 14.8955H15.1094H14.1094C14.1094 15.388 13.9841 15.7788 13.7565 16.1067L14.5781 16.6768ZM15.1094 14.8955H16.1094C16.1094 13.8519 15.7961 12.914 15.1169 12.1625L14.375 12.833L13.6331 13.5035C13.933 13.8354 14.1094 14.2725 14.1094 14.8955H15.1094ZM14.375 12.833L15.1169 12.1625C14.4722 11.4492 13.6506 11.0061 12.6933 10.8333L12.5156 11.8174L12.3379 12.8015C12.8806 12.8995 13.2986 13.1334 13.6331 13.5035L14.375 12.833ZM12.5156 11.8174L12.701 10.8347C12.042 10.7104 10.839 10.6611 9.1875 10.6611V11.6611V12.6611C10.8693 12.6611 11.8851 12.7161 12.3302 12.8L12.5156 11.8174ZM9.1875 11.6611V10.6611H6.95312V11.6611V12.6611H9.1875V11.6611ZM27.9412 13.5049L27.0281 13.0972L27.0262 13.1015L27.9412 13.5049ZM30.0662 10.3643L29.3511 9.66522L29.3471 9.66937L30.0662 10.3643ZM33.035 8.30176L33.4203 9.22458L33.4249 9.22263L33.035 8.30176ZM46.0662 10.5361L45.3467 11.2306L45.3485 11.2324L46.0662 10.5361ZM46.0975 27.958L46.8171 28.6524L46.8188 28.6506L46.0975 27.958ZM29.91 27.9736L29.1904 28.668L29.1922 28.6698L29.91 27.9736ZM33.4569 25.1299L32.7104 25.7953L32.713 25.7982L33.4569 25.1299ZM42.5506 25.1455L41.8039 24.4804L41.8035 24.4808L42.5506 25.1455ZM42.5975 13.2861L41.8494 13.9498L41.8524 13.9531L42.5975 13.2861ZM33.41 13.3174L34.1548 13.9847L34.1574 13.9817L33.41 13.3174ZM26.8944 19.3799H27.8944C27.8944 17.1397 28.2303 15.3284 28.8563 13.9082L27.9412 13.5049L27.0262 13.1015C26.2564 14.848 25.8944 16.9534 25.8944 19.3799H26.8944ZM27.9412 13.5049L28.8544 13.9125C29.3273 12.8532 29.9697 11.9033 30.7854 11.0591L30.0662 10.3643L29.3471 9.66937C28.3711 10.6794 27.5968 11.8233 27.0281 13.0972L27.9412 13.5049ZM30.0662 10.3643L30.7813 11.0633C31.6046 10.2211 32.4847 9.61514 33.4203 9.22457L33.035 8.30176L32.6497 7.37895C31.4395 7.88421 30.3404 8.65323 29.3512 9.66523L30.0662 10.3643ZM33.035 8.30176L33.4249 9.22263C34.7062 8.68015 36.2152 8.39551 37.9725 8.39551V7.39551V6.39551C36.0006 6.39551 34.2179 6.71503 32.6451 7.38088L33.035 8.30176ZM37.9725 7.39551V8.39551C41.1233 8.39551 43.5448 9.36363 45.3467 11.2306L46.0662 10.5361L46.7858 9.84167C44.5461 7.52114 41.5717 6.39551 37.9725 6.39551V7.39551ZM46.0662 10.5361L45.3485 11.2324C47.1522 13.0916 48.1131 15.7258 48.1131 19.2705H49.1131H50.1131C50.1131 15.3569 49.0428 12.1681 46.784 9.83982L46.0662 10.5361ZM49.1131 19.2705H48.1131C48.1131 22.784 47.1625 25.4051 45.3762 27.2654L46.0975 27.958L46.8188 28.6506C49.0534 26.3235 50.1131 23.1528 50.1131 19.2705H49.1131ZM46.0975 27.958L45.3779 27.2636C43.5868 29.1197 41.176 30.083 38.035 30.083V31.083V32.083C41.6231 32.083 44.5874 30.963 46.8171 28.6524L46.0975 27.958ZM38.035 31.083V30.083C34.8467 30.083 32.4162 29.1214 30.6278 27.2774L29.91 27.9736L29.1922 28.6698C31.4246 30.9717 34.4108 32.083 38.035 32.083V31.083ZM29.91 27.9736L30.6296 27.2792C28.8426 25.4275 27.8944 22.8371 27.8944 19.3799H26.8944H25.8944C25.8944 23.2144 26.9565 26.3531 29.1904 28.668L29.91 27.9736ZM31.66 19.2236H30.66C30.66 21.956 31.2899 24.2019 32.7104 25.7953L33.4569 25.1299L34.2033 24.4644C33.228 23.3704 32.66 21.6788 32.66 19.2236H31.66ZM33.4569 25.1299L32.713 25.7982C34.1067 27.3494 35.9011 28.1299 38.0194 28.1299V27.1299V26.1299C36.4502 26.1299 35.2029 25.577 34.2007 24.4616L33.4569 25.1299ZM38.0194 27.1299V28.1299C40.1352 28.1299 41.9222 27.3562 43.2977 25.8102L42.5506 25.1455L41.8035 24.4808C40.8249 25.5806 39.591 26.1299 38.0194 26.1299V27.1299ZM42.5506 25.1455L43.2974 25.8106C44.7117 24.2226 45.3319 21.946 45.3319 19.1611H44.3319H43.3319C43.3319 21.6887 42.7645 23.4018 41.8039 24.4804L42.5506 25.1455ZM44.3319 19.1611H45.3319C45.3319 16.4126 44.7296 14.1686 43.3426 12.6192L42.5975 13.2861L41.8524 13.9531C42.7779 14.987 43.3319 16.6597 43.3319 19.1611H44.3319ZM42.5975 13.2861L43.3456 12.6225C41.9889 11.0932 40.1783 10.3486 38.0194 10.3486V11.3486V12.3486C39.6729 12.3486 40.9144 12.8957 41.8494 13.9497L42.5975 13.2861ZM38.0194 11.3486V10.3486C35.855 10.3486 34.0365 11.1073 32.6626 12.653L33.41 13.3174L34.1574 13.9817C35.1168 12.9024 36.3713 12.3486 38.0194 12.3486V11.3486ZM33.41 13.3174L32.6652 12.6501C31.2681 14.2093 30.66 16.4632 30.66 19.2236H31.66H32.66C32.66 16.7132 33.2185 15.0296 34.1548 13.9847L33.41 13.3174ZM56.9137 30.6924H55.9137V31.6924H56.9137V30.6924ZM56.9137 7.78613V6.78613H55.9137V7.78613H56.9137ZM71.9762 8.41113L71.6232 9.34679L71.6338 9.35067L71.9762 8.41113ZM74.1325 18.4736L74.8734 19.1453L74.8765 19.1418L74.1325 18.4736ZM69.6012 20.583L69.4577 19.5934L66.6247 20.0044L69.0974 21.4468L69.6012 20.583ZM72.07 22.5049L71.336 23.1841L71.3415 23.1899L72.07 22.5049ZM74.7106 26.2236L73.8607 26.7505L73.863 26.7542L74.7106 26.2236ZM77.5075 30.6924V31.6924H79.3131L78.3552 30.1619L77.5075 30.6924ZM71.9762 30.6924L71.1458 31.2495L71.4429 31.6924H71.9762V30.6924ZM68.6325 25.708L67.8004 26.2627L67.8021 26.2651L68.6325 25.708ZM66.195 22.3486L65.4639 23.031L65.4716 23.0391L66.195 22.3486ZM64.8044 21.3955L64.4642 22.3359L64.4731 22.3391L64.4821 22.3422L64.8044 21.3955ZM61.5387 21.1299V20.1299H60.5387V21.1299H61.5387ZM61.5387 30.6924V31.6924H62.5387V30.6924H61.5387ZM61.5387 17.4736H60.5387V18.4736H61.5387V17.4736ZM70.2575 12.6455L69.4947 13.2922L69.5023 13.3011L69.5101 13.3099L70.2575 12.6455ZM68.5231 11.7393L68.6875 10.7529L68.6741 10.7506L68.6607 10.7488L68.5231 11.7393ZM61.5387 11.6611V10.6611H60.5387V11.6611H61.5387ZM56.9137 30.6924H57.9137V7.78613H56.9137H55.9137V30.6924H56.9137ZM56.9137 7.78613V8.78613H66.6481V7.78613V6.78613H56.9137V7.78613ZM66.6481 7.78613V8.78613C69.0767 8.78613 70.6984 8.99777 71.6232 9.34673L71.9762 8.41113L72.3293 7.47553C71.0457 6.99116 69.1154 6.78613 66.6481 6.78613V7.78613ZM71.9762 8.41113L71.6338 9.35067C72.5301 9.67735 73.2486 10.2583 73.8034 11.1339L74.6481 10.5986L75.4928 10.0634C74.7143 8.83477 73.6516 7.95741 72.3187 7.4716L71.9762 8.41113ZM74.6481 10.5986L73.8034 11.1339C74.3598 12.012 74.6481 13.0262 74.6481 14.208H75.6481H76.6481C76.6481 12.6815 76.2698 11.2895 75.4928 10.0634L74.6481 10.5986ZM75.6481 14.208H74.6481C74.6481 15.7162 74.2115 16.8891 73.3885 17.8054L74.1325 18.4736L74.8765 19.1418C76.0744 17.8081 76.6481 16.1374 76.6481 14.208H75.6481ZM74.1325 18.4736L73.3916 17.802C72.5844 18.6924 71.3187 19.3234 69.4577 19.5934L69.6012 20.583L69.7448 21.5726C71.9046 21.2593 73.6597 20.484 74.8734 19.1453L74.1325 18.4736ZM69.6012 20.583L69.0974 21.4468C70.0298 21.9907 70.7701 22.5725 71.336 23.1841L72.07 22.5049L72.804 21.8257C72.0782 21.0415 71.1727 20.342 70.1051 19.7192L69.6012 20.583ZM72.07 22.5049L71.3415 23.1899C71.9242 23.8096 72.7604 24.9755 73.8607 26.7505L74.7106 26.2236L75.5606 25.6968C74.4525 23.9093 73.5283 22.596 72.7985 21.8199L72.07 22.5049ZM74.7106 26.2236L73.863 26.7542L76.6598 31.2229L77.5075 30.6924L78.3552 30.1619L75.5583 25.6931L74.7106 26.2236ZM77.5075 30.6924V29.6924H71.9762V30.6924V31.6924H77.5075V30.6924ZM71.9762 30.6924L72.8067 30.1353L69.4629 25.1509L68.6325 25.708L67.8021 26.2651L71.1458 31.2495L71.9762 30.6924ZM68.6325 25.708L69.4645 25.1533C68.2895 23.3908 67.4279 22.1919 66.9184 21.6582L66.195 22.3486L65.4716 23.0391C65.8371 23.422 66.6005 24.4627 67.8004 26.2627L68.6325 25.708ZM66.195 22.3486L66.9261 21.6663C66.4027 21.1056 65.8053 20.6799 65.1266 20.4489L64.8044 21.3955L64.4821 22.3422C64.7827 22.4445 65.1123 22.6542 65.4639 23.031L66.195 22.3486ZM64.8044 21.3955L65.1445 20.4551C64.4827 20.2157 63.5598 20.1299 62.4762 20.1299V21.1299V22.1299C63.5177 22.1299 64.1469 22.2211 64.4642 22.3359L64.8044 21.3955ZM62.4762 21.1299V20.1299H61.5387V21.1299V22.1299H62.4762V21.1299ZM61.5387 21.1299H60.5387V30.6924H61.5387H62.5387V21.1299H61.5387ZM61.5387 30.6924V29.6924H56.9137V30.6924V31.6924H61.5387V30.6924ZM61.5387 17.4736V18.4736H64.9606V17.4736V16.4736H61.5387V17.4736ZM64.9606 17.4736V18.4736C66.081 18.4736 67.0069 18.4501 67.7313 18.401C68.4244 18.3541 69.0263 18.2793 69.4385 18.1393L69.1169 17.1924L68.7953 16.2455C68.6554 16.293 68.2885 16.3588 67.5962 16.4056C66.9352 16.4503 66.059 16.4736 64.9606 16.4736V17.4736ZM69.1169 17.1924L69.4385 18.1393C70.1847 17.8858 70.7988 17.434 71.24 16.787L70.4137 16.2236L69.5875 15.6603C69.4037 15.9299 69.1532 16.1239 68.7953 16.2455L69.1169 17.1924ZM70.4137 16.2236L71.24 16.787C71.6902 16.1266 71.8825 15.3449 71.8825 14.5049H70.8825H69.8825C69.8825 15.0398 69.7623 15.404 69.5875 15.6603L70.4137 16.2236ZM70.8825 14.5049H71.8825C71.8825 13.5477 71.6194 12.6724 71.0049 11.9811L70.2575 12.6455L69.5101 13.3099C69.7289 13.5561 69.8825 13.9204 69.8825 14.5049H70.8825ZM70.2575 12.6455L71.0203 11.9988C70.4305 11.3033 69.6197 10.9082 68.6875 10.7529L68.5231 11.7393L68.3587 12.7257C68.9265 12.8203 69.272 13.0294 69.4947 13.2922L70.2575 12.6455ZM68.5231 11.7393L68.6607 10.7488C68.1996 10.6847 66.9875 10.6611 65.1481 10.6611V11.6611V12.6611C67.0587 12.6611 68.0967 12.6896 68.3856 12.7298L68.5231 11.7393ZM65.1481 11.6611V10.6611H61.5387V11.6611V12.6611H65.1481V11.6611ZM61.5387 11.6611H60.5387V17.4736H61.5387H62.5387V11.6611H61.5387ZM89.3394 30.6924H88.3394V31.6924H89.3394V30.6924ZM89.3394 11.6611H90.3394V10.6611H89.3394V11.6611ZM82.5425 11.6611H81.5425V12.6611H82.5425V11.6611ZM82.5425 7.78613V6.78613H81.5425V7.78613H82.5425ZM100.746 7.78613H101.746V6.78613H100.746V7.78613ZM100.746 11.6611V12.6611H101.746V11.6611H100.746ZM93.9644 11.6611V10.6611H92.9644V11.6611H93.9644ZM93.9644 30.6924V31.6924H94.9644V30.6924H93.9644ZM89.3394 30.6924H90.3394V11.6611H89.3394H88.3394V30.6924H89.3394ZM89.3394 11.6611V10.6611H82.5425V11.6611V12.6611H89.3394V11.6611ZM82.5425 11.6611H83.5425V7.78613H82.5425H81.5425V11.6611H82.5425ZM82.5425 7.78613V8.78613H100.746V7.78613V6.78613H82.5425V7.78613ZM100.746 7.78613H99.7456V11.6611H100.746H101.746V7.78613H100.746ZM100.746 11.6611V10.6611H93.9644V11.6611V12.6611H100.746V11.6611ZM93.9644 11.6611H92.9644V30.6924H93.9644H94.9644V11.6611H93.9644ZM93.9644 30.6924V29.6924H89.3394V30.6924V31.6924H93.9644V30.6924ZM107.937 30.6924H106.937V31.6924H107.937V30.6924ZM107.937 7.78613V6.78613H106.937V7.78613H107.937ZM123.64 7.78613H124.64V6.78613H123.64V7.78613ZM123.64 11.6611V12.6611H124.64V11.6611H123.64ZM112.562 11.6611V10.6611H111.562V11.6611H112.562ZM112.562 17.083H111.562V18.083H112.562V17.083ZM122.124 17.083H123.124V16.083H122.124V17.083ZM122.124 20.958V21.958H123.124V20.958H122.124ZM112.562 20.958V19.958H111.562V20.958H112.562ZM112.562 30.6924V31.6924H113.562V30.6924H112.562ZM107.937 30.6924H108.937V7.78613H107.937H106.937V30.6924H107.937ZM107.937 7.78613V8.78613H123.64V7.78613V6.78613H107.937V7.78613ZM123.64 7.78613H122.64V11.6611H123.64H124.64V7.78613H123.64ZM123.64 11.6611V10.6611H112.562V11.6611V12.6611H123.64V11.6611ZM112.562 11.6611H111.562V17.083H112.562H113.562V11.6611H112.562ZM112.562 17.083V18.083H122.124V17.083V16.083H112.562V17.083ZM122.124 17.083H121.124V20.958H122.124H123.124V17.083H122.124ZM122.124 20.958V19.958H112.562V20.958V21.958H122.124V20.958ZM112.562 20.958H111.562V30.6924H112.562H113.562V20.958H112.562ZM112.562 30.6924V29.6924H107.937V30.6924V31.6924H112.562V30.6924ZM131.738 13.5049L130.824 13.0972L130.822 13.1015L131.738 13.5049ZM133.863 10.3643L133.147 9.66522L133.143 9.66937L133.863 10.3643ZM136.831 8.30176L137.217 9.22458L137.221 9.22263L136.831 8.30176ZM149.863 10.5361L149.143 11.2306L149.145 11.2324L149.863 10.5361ZM149.894 27.958L150.613 28.6524L150.615 28.6506L149.894 27.958ZM133.706 27.9736L132.987 28.668L132.988 28.6698L133.706 27.9736ZM137.253 25.1299L136.507 25.7953L136.509 25.7982L137.253 25.1299ZM146.347 25.1455L145.6 24.4804L145.6 24.4808L146.347 25.1455ZM146.394 13.2861L145.646 13.9498L145.649 13.9531L146.394 13.2861ZM137.206 13.3174L137.951 13.9847L137.954 13.9817L137.206 13.3174ZM130.691 19.3799H131.691C131.691 17.1397 132.027 15.3284 132.653 13.9082L131.738 13.5049L130.822 13.1015C130.053 14.848 129.691 16.9534 129.691 19.3799H130.691ZM131.738 13.5049L132.651 13.9125C133.124 12.8532 133.766 11.9033 134.582 11.0591L133.863 10.3643L133.143 9.66937C132.167 10.6794 131.393 11.8233 130.824 13.0972L131.738 13.5049ZM133.863 10.3643L134.578 11.0633C135.401 10.2211 136.281 9.61514 137.217 9.22457L136.831 8.30176L136.446 7.37895C135.236 7.88421 134.137 8.65323 133.147 9.66523L133.863 10.3643ZM136.831 8.30176L137.221 9.22263C138.502 8.68015 140.011 8.39551 141.769 8.39551V7.39551V6.39551C139.797 6.39551 138.014 6.71503 136.441 7.38088L136.831 8.30176ZM141.769 7.39551V8.39551C144.92 8.39551 147.341 9.36363 149.143 11.2306L149.863 10.5361L150.582 9.84167C148.342 7.52114 145.368 6.39551 141.769 6.39551V7.39551ZM149.863 10.5361L149.145 11.2324C150.948 13.0916 151.909 15.7258 151.909 19.2705H152.909H153.909C153.909 15.3569 152.839 12.1681 150.58 9.83982L149.863 10.5361ZM152.909 19.2705H151.909C151.909 22.784 150.959 25.4051 149.172 27.2654L149.894 27.958L150.615 28.6506C152.85 26.3235 153.909 23.1528 153.909 19.2705H152.909ZM149.894 27.958L149.174 27.2636C147.383 29.1197 144.972 30.083 141.831 30.083V31.083V32.083C145.419 32.083 148.384 30.963 150.613 28.6524L149.894 27.958ZM141.831 31.083V30.083C138.643 30.083 136.212 29.1214 134.424 27.2774L133.706 27.9736L132.988 28.6698C135.221 30.9717 138.207 32.083 141.831 32.083V31.083ZM133.706 27.9736L134.426 27.2792C132.639 25.4275 131.691 22.8371 131.691 19.3799H130.691H129.691C129.691 23.2144 130.753 26.3531 132.987 28.668L133.706 27.9736ZM135.456 19.2236H134.456C134.456 21.956 135.086 24.2019 136.507 25.7953L137.253 25.1299L138 24.4644C137.024 23.3704 136.456 21.6788 136.456 19.2236H135.456ZM137.253 25.1299L136.509 25.7982C137.903 27.3494 139.697 28.1299 141.816 28.1299V27.1299V26.1299C140.246 26.1299 138.999 25.577 137.997 24.4616L137.253 25.1299ZM141.816 27.1299V28.1299C143.931 28.1299 145.718 27.3562 147.094 25.8102L146.347 25.1455L145.6 24.4808C144.621 25.5806 143.387 26.1299 141.816 26.1299V27.1299ZM146.347 25.1455L147.094 25.8106C148.508 24.2226 149.128 21.946 149.128 19.1611H148.128H147.128C147.128 21.6887 146.561 23.4018 145.6 24.4804L146.347 25.1455ZM148.128 19.1611H149.128C149.128 16.4126 148.526 14.1686 147.139 12.6192L146.394 13.2861L145.649 13.9531C146.574 14.987 147.128 16.6597 147.128 19.1611H148.128ZM146.394 13.2861L147.142 12.6225C145.785 11.0932 143.975 10.3486 141.816 10.3486V11.3486V12.3486C143.469 12.3486 144.711 12.8957 145.646 13.9497L146.394 13.2861ZM141.816 11.3486V10.3486C139.651 10.3486 137.833 11.1073 136.459 12.653L137.206 13.3174L137.954 13.9817C138.913 12.9024 140.168 12.3486 141.816 12.3486V11.3486ZM137.206 13.3174L136.461 12.6501C135.064 14.2093 134.456 16.4632 134.456 19.2236H135.456H136.456C136.456 16.7132 137.015 15.0296 137.951 13.9847L137.206 13.3174ZM160.819 30.6924H159.819V31.6924H160.819V30.6924ZM160.819 7.97363V6.97363H159.819V7.97363H160.819ZM165.444 7.97363H166.444V6.97363H165.444V7.97363ZM165.444 26.833H164.444V27.833H165.444V26.833ZM176.944 26.833H177.944V25.833H176.944V26.833ZM176.944 30.6924V31.6924H177.944V30.6924H176.944ZM160.819 30.6924H161.819V7.97363H160.819H159.819V30.6924H160.819ZM160.819 7.97363V8.97363H165.444V7.97363V6.97363H160.819V7.97363ZM165.444 7.97363H164.444V26.833H165.444H166.444V7.97363H165.444ZM165.444 26.833V27.833H176.944V26.833V25.833H165.444V26.833ZM176.944 26.833H175.944V30.6924H176.944H177.944V26.833H176.944ZM176.944 30.6924V29.6924H160.819V30.6924V31.6924H176.944V30.6924ZM184.276 30.6924H183.276V31.6924H184.276V30.6924ZM184.276 7.78613V6.78613H183.276V7.78613H184.276ZM188.901 7.78613H189.901V6.78613H188.901V7.78613ZM188.901 30.6924V31.6924H189.901V30.6924H188.901ZM184.276 30.6924H185.276V7.78613H184.276H183.276V30.6924H184.276ZM184.276 7.78613V8.78613H188.901V7.78613V6.78613H184.276V7.78613ZM188.901 7.78613H187.901V30.6924H188.901H189.901V7.78613H188.901ZM188.901 30.6924V29.6924H184.276V30.6924V31.6924H188.901V30.6924ZM197.592 13.5049L196.679 13.0972L196.677 13.1015L197.592 13.5049ZM199.717 10.3643L199.002 9.66522L198.998 9.66937L199.717 10.3643ZM202.686 8.30176L203.072 9.22458L203.076 9.22263L202.686 8.30176ZM215.717 10.5361L214.998 11.2306L215 11.2324L215.717 10.5361ZM215.749 27.958L216.468 28.6524L216.47 28.6506L215.749 27.958ZM199.561 27.9736L198.842 28.668L198.843 28.6698L199.561 27.9736ZM203.108 25.1299L202.362 25.7953L202.364 25.7982L203.108 25.1299ZM212.202 25.1455L211.455 24.4804L211.455 24.4808L212.202 25.1455ZM212.249 13.2861L211.501 13.9498L211.504 13.9531L212.249 13.2861ZM203.061 13.3174L203.806 13.9847L203.809 13.9817L203.061 13.3174ZM196.546 19.3799H197.546C197.546 17.1397 197.882 15.3284 198.508 13.9082L197.592 13.5049L196.677 13.1015C195.908 14.848 195.546 16.9534 195.546 19.3799H196.546ZM197.592 13.5049L198.506 13.9125C198.979 12.8532 199.621 11.9033 200.437 11.0591L199.717 10.3643L198.998 9.66937C198.022 10.6794 197.248 11.8233 196.679 13.0972L197.592 13.5049ZM199.717 10.3643L200.433 11.0633C201.256 10.2211 202.136 9.61514 203.072 9.22457L202.686 8.30176L202.301 7.37895C201.091 7.88421 199.992 8.65323 199.002 9.66523L199.717 10.3643ZM202.686 8.30176L203.076 9.22263C204.357 8.68015 205.866 8.39551 207.624 8.39551V7.39551V6.39551C205.652 6.39551 203.869 6.71503 202.296 7.38088L202.686 8.30176ZM207.624 7.39551V8.39551C210.775 8.39551 213.196 9.36363 214.998 11.2306L215.717 10.5361L216.437 9.84167C214.197 7.52114 211.223 6.39551 207.624 6.39551V7.39551ZM215.717 10.5361L215 11.2324C216.803 13.0916 217.764 15.7258 217.764 19.2705H218.764H219.764C219.764 15.3569 218.694 12.1681 216.435 9.83982L215.717 10.5361ZM218.764 19.2705H217.764C217.764 22.784 216.814 25.4051 215.027 27.2654L215.749 27.958L216.47 28.6506C218.705 26.3235 219.764 23.1528 219.764 19.2705H218.764ZM215.749 27.958L215.029 27.2636C213.238 29.1197 210.827 30.083 207.686 30.083V31.083V32.083C211.274 32.083 214.239 30.963 216.468 28.6524L215.749 27.958ZM207.686 31.083V30.083C204.498 30.083 202.067 29.1214 200.279 27.2774L199.561 27.9736L198.843 28.6698C201.076 30.9717 204.062 32.083 207.686 32.083V31.083ZM199.561 27.9736L200.281 27.2792C198.494 25.4275 197.546 22.8371 197.546 19.3799H196.546H195.546C195.546 23.2144 196.608 26.3531 198.842 28.668L199.561 27.9736ZM201.311 19.2236H200.311C200.311 21.956 200.941 24.2019 202.362 25.7953L203.108 25.1299L203.855 24.4644C202.879 23.3704 202.311 21.6788 202.311 19.2236H201.311ZM203.108 25.1299L202.364 25.7982C203.758 27.3494 205.552 28.1299 207.671 28.1299V27.1299V26.1299C206.101 26.1299 204.854 25.577 203.852 24.4616L203.108 25.1299ZM207.671 27.1299V28.1299C209.786 28.1299 211.573 27.3562 212.949 25.8102L212.202 25.1455L211.455 24.4808C210.476 25.5806 209.242 26.1299 207.671 26.1299V27.1299ZM212.202 25.1455L212.949 25.8106C214.363 24.2226 214.983 21.946 214.983 19.1611H213.983H212.983C212.983 21.6887 212.416 23.4018 211.455 24.4804L212.202 25.1455ZM213.983 19.1611H214.983C214.983 16.4126 214.381 14.1686 212.994 12.6192L212.249 13.2861L211.504 13.9531C212.429 14.987 212.983 16.6597 212.983 19.1611H213.983ZM212.249 13.2861L212.997 12.6225C211.64 11.0932 209.83 10.3486 207.671 10.3486V11.3486V12.3486C209.324 12.3486 210.566 12.8957 211.501 13.9497L212.249 13.2861ZM207.671 11.3486V10.3486C205.506 10.3486 203.688 11.1073 202.314 12.653L203.061 13.3174L203.809 13.9817C204.768 12.9024 206.023 12.3486 207.671 12.3486V11.3486ZM203.061 13.3174L202.316 12.6501C200.919 14.2093 200.311 16.4632 200.311 19.2236H201.311H202.311C202.311 16.7132 202.87 15.0296 203.806 13.9847L203.061 13.3174Z" fill="white" mask="url(#path-1-outside-1_1361_476)"/>
<rect x="127.406" y="6.47266" width="27.4297" height="27.5708" fill="#121212"/>
<path d="M141.121 6.47266V34.0434" stroke="white" stroke-width="1.8"/>
<path d="M153.059 13.3652L129.182 27.1506" stroke="white" stroke-width="1.8"/>
<path d="M153.059 27.1504L129.182 13.365" stroke="white" stroke-width="1.8"/>
<path d="M148.008 32.1963L134.222 8.31933" stroke="white" stroke-width="1.8"/>
<path d="M134.227 32.1963L148.012 8.31933" stroke="white" stroke-width="1.8"/>
<path d="M127.336 20.2578L154.907 20.2578" stroke="white" stroke-width="1.8"/>
<circle cx="141.121" cy="20.2581" r="8.60574" fill="#121212"/>
</svg>
