<svg width="221" height="38" viewBox="0 0 221 38" fill="none" xmlns="http://www.w3.org/2000/svg">
<path d="M2.32812 30.0391V7.13281H9.75C12.5625 7.13281 14.3958 7.2474 15.25 7.47656C16.5625 7.82031 17.6615 8.57031 18.5469 9.72656C19.4323 10.8724 19.875 12.3568 19.875 14.1797C19.875 15.5859 19.6198 16.7682 19.1094 17.7266C18.599 18.6849 17.9479 19.4401 17.1562 19.9922C16.375 20.5339 15.5781 20.8932 14.7656 21.0703C13.6615 21.2891 12.0625 21.3984 9.96875 21.3984H6.95312V30.0391H2.32812ZM6.95312 11.0078V17.5078H9.48438C11.3073 17.5078 12.526 17.388 13.1406 17.1484C13.7552 16.9089 14.2344 16.5339 14.5781 16.0234C14.9323 15.513 15.1094 14.9193 15.1094 14.2422C15.1094 13.4089 14.8646 12.7214 14.375 12.1797C13.8854 11.638 13.2656 11.2995 12.5156 11.1641C11.9635 11.0599 10.8542 11.0078 9.1875 11.0078H6.95312ZM26.8944 18.7266C26.8944 16.3932 27.2433 14.4349 27.9412 12.8516C28.4621 11.6849 29.1704 10.638 30.0662 9.71094C30.9725 8.78385 31.9621 8.09635 33.035 7.64844C34.4621 7.04427 36.1079 6.74219 37.9725 6.74219C41.3475 6.74219 44.0454 7.78906 46.0662 9.88281C48.0975 11.9766 49.1131 14.888 49.1131 18.6172C49.1131 22.3151 48.1079 25.2109 46.0975 27.3047C44.0871 29.388 41.3996 30.4297 38.035 30.4297C34.6287 30.4297 31.9204 29.3932 29.91 27.3203C27.8996 25.237 26.8944 22.3724 26.8944 18.7266ZM31.66 18.5703C31.66 21.1641 32.259 23.1328 33.4569 24.4766C34.6548 25.8099 36.1756 26.4766 38.0194 26.4766C39.8631 26.4766 41.3735 25.8151 42.5506 24.4922C43.7381 23.1589 44.3319 21.1641 44.3319 18.5078C44.3319 15.8828 43.7537 13.9245 42.5975 12.6328C41.4517 11.3411 39.9256 10.6953 38.0194 10.6953C36.1131 10.6953 34.5767 11.3516 33.41 12.6641C32.2433 13.9661 31.66 15.9349 31.66 18.5703ZM56.9137 30.0391V7.13281H66.6481C69.096 7.13281 70.8721 7.34115 71.9762 7.75781C73.0908 8.16406 73.9815 8.89323 74.6481 9.94531C75.3148 10.9974 75.6481 12.2005 75.6481 13.5547C75.6481 15.2734 75.1429 16.6953 74.1325 17.8203C73.1221 18.9349 71.6117 19.638 69.6012 19.9297C70.6012 20.513 71.4242 21.1536 72.07 21.8516C72.7262 22.5495 73.6065 23.7891 74.7106 25.5703L77.5075 30.0391H71.9762L68.6325 25.0547C67.445 23.2734 66.6325 22.1536 66.195 21.6953C65.7575 21.2266 65.294 20.9089 64.8044 20.7422C64.3148 20.5651 63.5387 20.4766 62.4762 20.4766H61.5387V30.0391H56.9137ZM61.5387 16.8203H64.9606C67.1794 16.8203 68.5648 16.7266 69.1169 16.5391C69.669 16.3516 70.1012 16.0286 70.4137 15.5703C70.7262 15.112 70.8825 14.5391 70.8825 13.8516C70.8825 13.0807 70.6742 12.4609 70.2575 11.9922C69.8512 11.513 69.2731 11.2109 68.5231 11.0859C68.1481 11.0339 67.0231 11.0078 65.1481 11.0078H61.5387V16.8203ZM89.3394 30.0391V11.0078H82.5425V7.13281H100.746V11.0078H93.9644V30.0391H89.3394ZM107.937 30.0391V7.13281H123.64V11.0078H112.562V16.4297H122.124V20.3047H112.562V30.0391H107.937ZM130.691 18.7266C130.691 16.3932 131.04 14.4349 131.738 12.8516C132.258 11.6849 132.967 10.638 133.863 9.71094C134.769 8.78385 135.758 8.09635 136.831 7.64844C138.258 7.04427 139.904 6.74219 141.769 6.74219C145.144 6.74219 147.842 7.78906 149.863 9.88281C151.894 11.9766 152.909 14.888 152.909 18.6172C152.909 22.3151 151.904 25.2109 149.894 27.3047C147.883 29.388 145.196 30.4297 141.831 30.4297C138.425 30.4297 135.717 29.3932 133.706 27.3203C131.696 25.237 130.691 22.3724 130.691 18.7266ZM135.456 18.5703C135.456 21.1641 136.055 23.1328 137.253 24.4766C138.451 25.8099 139.972 26.4766 141.816 26.4766C143.659 26.4766 145.17 25.8151 146.347 24.4922C147.534 23.1589 148.128 21.1641 148.128 18.5078C148.128 15.8828 147.55 13.9245 146.394 12.6328C145.248 11.3411 143.722 10.6953 141.816 10.6953C139.909 10.6953 138.373 11.3516 137.206 12.6641C136.04 13.9661 135.456 15.9349 135.456 18.5703ZM160.819 30.0391V7.32031H165.444V26.1797H176.944V30.0391H160.819ZM184.276 30.0391V7.13281H188.901V30.0391H184.276ZM196.546 18.7266C196.546 16.3932 196.895 14.4349 197.592 12.8516C198.113 11.6849 198.822 10.638 199.717 9.71094C200.624 8.78385 201.613 8.09635 202.686 7.64844C204.113 7.04427 205.759 6.74219 207.624 6.74219C210.999 6.74219 213.697 7.78906 215.717 9.88281C217.749 11.9766 218.764 14.888 218.764 18.6172C218.764 22.3151 217.759 25.2109 215.749 27.3047C213.738 29.388 211.051 30.4297 207.686 30.4297C204.28 30.4297 201.572 29.3932 199.561 27.3203C197.551 25.237 196.546 22.3724 196.546 18.7266ZM201.311 18.5703C201.311 21.1641 201.91 23.1328 203.108 24.4766C204.306 25.8099 205.827 26.4766 207.671 26.4766C209.514 26.4766 211.025 25.8151 212.202 24.4922C213.389 23.1589 213.983 21.1641 213.983 18.5078C213.983 15.8828 213.405 13.9245 212.249 12.6328C211.103 11.3411 209.577 10.6953 207.671 10.6953C205.764 10.6953 204.228 11.3516 203.061 12.6641C201.895 13.9661 201.311 15.9349 201.311 18.5703Z" fill="white"/>
<rect x="127.406" y="5.81934" width="27.4297" height="27.5708" fill="#121212"/>
<path d="M141.121 5.81934V33.3901" stroke="white" stroke-width="1.8"/>
<path d="M153.059 12.7119L129.182 26.4973" stroke="white" stroke-width="1.8"/>
<path d="M153.059 26.4971L129.182 12.7117" stroke="white" stroke-width="1.8"/>
<path d="M148.008 31.543L134.222 7.66601" stroke="white" stroke-width="1.8"/>
<path d="M134.227 31.543L148.012 7.66601" stroke="white" stroke-width="1.8"/>
<path d="M127.336 19.6045L154.907 19.6045" stroke="white" stroke-width="1.8"/>
<circle cx="141.121" cy="19.6048" r="8.60574" fill="#121212"/>
</svg>
