<svg width="38" height="38" viewBox="0 0 38 38" fill="none" xmlns="http://www.w3.org/2000/svg">
<path d="M9.32727 19.3455C14.4786 19.3455 18.6545 15.0148 18.6545 9.67273C18.6545 4.33063 14.4786 0 9.32727 0C4.17596 0 0 4.33063 0 9.67273C0 15.0148 4.17596 19.3455 9.32727 19.3455Z" fill="white"/>
<path d="M28.673 19.3455C33.8243 19.3455 38.0002 15.0148 38.0002 9.67273C38.0002 4.33063 33.8243 0 28.673 0C23.5217 0 19.3457 4.33063 19.3457 9.67273C19.3457 15.0148 23.5217 19.3455 28.673 19.3455Z" fill="white"/>
<path d="M9.32727 38C14.4786 38 18.6545 33.824 18.6545 28.6727C18.6545 23.5214 14.4786 19.3455 9.32727 19.3455C4.17596 19.3455 0 23.5214 0 28.6727C0 33.824 4.17596 38 9.32727 38Z" fill="white"/>
<path d="M28.673 38C33.8243 38 38.0002 33.824 38.0002 28.6727C38.0002 23.5214 33.8243 19.3455 28.673 19.3455C23.5217 19.3455 19.3457 23.5214 19.3457 28.6727C19.3457 33.824 23.5217 38 28.673 38Z" fill="white"/>
</svg>
