<svg width="72" height="72" viewBox="0 0 72 72" fill="none" xmlns="http://www.w3.org/2000/svg">
<path fill-rule="evenodd" clip-rule="evenodd" d="M62.8657 8.95046C67.9531 14.0378 67.953 22.2858 62.8657 27.373C57.7785 32.4603 49.5305 32.4603 44.4432 27.373C39.3559 22.2857 39.3559 14.0377 44.4432 8.95046C49.5304 3.8632 57.7784 3.86315 62.8657 8.95046ZM0.171963 40.8672C-0.953632 33.7614 3.89452 27.0885 11.0004 25.963C18.1064 24.8375 24.7791 29.6856 25.9045 36.7916C27.0301 43.8974 22.1819 50.5703 15.0761 51.6959C7.97014 52.8213 1.29735 47.9731 0.171963 40.8672ZM45.883 60.8456C44.7576 67.9516 38.0847 72.7998 30.9789 71.6741C23.8729 70.5487 19.0247 63.8759 20.1503 56.7701C21.2758 49.6641 27.9486 44.8159 35.0544 45.9415C42.1604 47.0669 47.0086 53.7398 45.883 60.8456ZM19.8983 2.09308C26.3085 -1.17307 34.1529 1.37571 37.4191 7.78603C40.6854 14.1964 38.1365 22.0408 31.7263 25.307C25.316 28.5731 17.4716 26.0243 14.2054 19.614C10.9392 13.2037 13.4878 5.35943 19.8983 2.09308ZM64.0239 34.3908C70.4344 37.6572 72.983 45.5014 69.7169 51.9117C66.4505 58.3221 58.6063 60.8708 52.196 57.6046C45.7856 54.3383 43.2369 46.494 46.5031 40.0838C49.7692 33.6735 57.6137 31.1247 64.0239 34.3908Z" fill="white"/>
</svg>
