<svg width="26" height="26" viewBox="0 0 26 26" fill="none" xmlns="http://www.w3.org/2000/svg">
<path d="M8.83464 3.03735H17.5846C20.918 3.03735 23.6263 5.74569 23.6263 9.07902V17.829C23.6263 19.4314 22.9898 20.9681 21.8567 22.1011C20.7237 23.2342 19.187 23.8707 17.5846 23.8707H8.83464C5.5013 23.8707 2.79297 21.1624 2.79297 17.829V9.07902C2.79297 7.47667 3.4295 5.93995 4.56253 4.80692C5.69556 3.67388 7.23229 3.03735 8.83464 3.03735ZM8.6263 5.12069C7.63174 5.12069 6.67791 5.51578 5.97465 6.21904C5.27139 6.9223 4.8763 7.87612 4.8763 8.87069V18.0374C4.8763 20.1103 6.55339 21.7874 8.6263 21.7874H17.793C18.7875 21.7874 19.7414 21.3923 20.4446 20.689C21.1479 19.9857 21.543 19.0319 21.543 18.0374V8.87069C21.543 6.79777 19.8659 5.12069 17.793 5.12069H8.6263ZM18.6784 6.68319C19.0237 6.68319 19.3549 6.82037 19.5991 7.06456C19.8433 7.30875 19.9805 7.63994 19.9805 7.98527C19.9805 8.3306 19.8433 8.66179 19.5991 8.90598C19.3549 9.15017 19.0237 9.28735 18.6784 9.28735C18.3331 9.28735 18.0019 9.15017 17.7577 8.90598C17.5135 8.66179 17.3763 8.3306 17.3763 7.98527C17.3763 7.63994 17.5135 7.30875 17.7577 7.06456C18.0019 6.82037 18.3331 6.68319 18.6784 6.68319ZM13.2096 8.24569C14.591 8.24569 15.9157 8.79442 16.8925 9.77117C17.8692 10.7479 18.418 12.0727 18.418 13.454C18.418 14.8354 17.8692 16.1601 16.8925 17.1369C15.9157 18.1136 14.591 18.6624 13.2096 18.6624C11.8283 18.6624 10.5035 18.1136 9.52679 17.1369C8.55004 16.1601 8.0013 14.8354 8.0013 13.454C8.0013 12.0727 8.55004 10.7479 9.52679 9.77117C10.5035 8.79442 11.8283 8.24569 13.2096 8.24569ZM13.2096 10.329C12.3808 10.329 11.586 10.6583 10.9999 11.2443C10.4139 11.8304 10.0846 12.6252 10.0846 13.454C10.0846 14.2828 10.4139 15.0777 10.9999 15.6637C11.586 16.2498 12.3808 16.579 13.2096 16.579C14.0384 16.579 14.8333 16.2498 15.4193 15.6637C16.0054 15.0777 16.3346 14.2828 16.3346 13.454C16.3346 12.6252 16.0054 11.8304 15.4193 11.2443C14.8333 10.6583 14.0384 10.329 13.2096 10.329Z" fill="#121212"/>
</svg>
