<svg width="26" height="26" viewBox="0 0 26 26" fill="none" xmlns="http://www.w3.org/2000/svg">
<path d="M23.4276 7.4405C23.488 7.35716 23.3984 7.24779 23.3026 7.28529C22.6158 7.55155 21.8984 7.73106 21.1672 7.81966C21.9795 7.33441 22.6093 6.59484 22.9588 5.7155C22.9942 5.62591 22.8963 5.5457 22.813 5.59258C22.0557 6.01029 21.2401 6.31133 20.3911 6.48529C20.3736 6.4888 20.3556 6.48777 20.3386 6.4823C20.3216 6.47683 20.3064 6.4671 20.2942 6.45404C19.6554 5.77995 18.8142 5.33249 17.8981 5.17947C16.9821 5.02645 16.0411 5.1762 15.2178 5.60604C14.3945 6.03587 13.7338 6.72236 13.3358 7.56148C12.9377 8.40059 12.824 9.34659 13.012 10.2561C13.0153 10.272 13.015 10.2884 13.011 10.304C13.0071 10.3197 12.9996 10.3343 12.9891 10.3467C12.9787 10.359 12.9655 10.3689 12.9507 10.3754C12.9359 10.3819 12.9198 10.3849 12.9036 10.3842C11.2551 10.2819 9.64494 9.84376 8.17183 9.09681C6.69871 8.34987 5.39374 7.30983 4.33695 6.0405C4.3264 6.02729 4.31274 6.01691 4.29719 6.01029C4.28163 6.00367 4.26468 6.00102 4.24785 6.00257C4.23102 6.00412 4.21483 6.00982 4.20075 6.01917C4.18667 6.02851 4.17513 6.04121 4.16716 6.05612C3.83827 6.68003 3.66664 7.37479 3.66716 8.08008C3.66583 8.78256 3.83822 9.47447 4.16899 10.0942C4.49976 10.7139 4.97864 11.2423 5.563 11.6322C4.94391 11.6153 4.33612 11.4624 3.78279 11.1842C3.71195 11.1478 3.62654 11.1988 3.62966 11.278C3.67124 12.2166 4.01177 13.1174 4.60154 13.8488C5.22817 14.6077 6.09767 15.1269 7.063 15.3186C6.69117 15.4308 6.30549 15.4904 5.91716 15.4957C5.70599 15.4929 5.49518 15.4772 5.28591 15.4488C5.20779 15.4384 5.14425 15.5113 5.17133 15.5842C5.46969 16.3919 6.00463 17.0908 6.70632 17.5898C7.40801 18.0887 8.24383 18.3645 9.10466 18.3811C7.44249 19.6884 5.35535 20.3344 3.24529 20.1947C3.13487 20.1874 3.08383 20.3342 3.17862 20.3905C5.04447 21.4977 7.17461 22.0807 9.34425 22.078C10.948 22.0947 12.539 21.7916 14.0243 21.1865C15.5097 20.5814 16.8595 19.6865 17.9951 18.5539C19.1307 17.4213 20.0293 16.0738 20.6383 14.5901C21.2473 13.1064 21.5546 11.5162 21.5422 9.91237V9.41237C21.5422 9.3962 21.5459 9.38025 21.5532 9.36579C21.5604 9.35132 21.5709 9.33874 21.5838 9.32904C22.2904 8.79637 22.912 8.15961 23.4276 7.4405Z" fill="#121212"/>
</svg>
