<svg width="26" height="26" viewBox="0 0 26 26" fill="none" xmlns="http://www.w3.org/2000/svg">
<path fill-rule="evenodd" clip-rule="evenodd" d="M13.2096 5.27698C11.969 5.27698 10.5221 5.30614 9.11172 5.34573L9.05443 5.34781C7.61901 5.38844 6.46068 5.42073 5.54818 5.57177C4.59714 5.72906 3.80755 6.0301 3.1763 6.67906C2.54297 7.3301 2.26693 8.13531 2.13672 9.09885C2.01172 10.0259 2.01172 11.2009 2.01172 12.6614V14.2489C2.01172 15.7072 2.01172 16.8822 2.13672 17.8103C2.26589 18.7739 2.54297 19.5791 3.1763 20.2301C3.80755 20.8801 4.59714 21.1801 5.54818 21.3374C6.46068 21.4884 7.61901 21.5207 9.05443 21.5614L9.11172 21.5634C10.5232 21.603 11.969 21.6322 13.2096 21.6322C14.4503 21.6322 15.8971 21.603 17.3076 21.5634L17.3648 21.5614C18.8003 21.5207 19.9586 21.4884 20.8711 21.3374C21.8221 21.1801 22.6117 20.8791 23.243 20.2301C23.8763 19.5791 24.1534 18.7739 24.2826 17.8103C24.4076 16.8832 24.4076 15.7082 24.4076 14.2478V12.6603C24.4076 11.2009 24.4076 10.0259 24.2826 9.09885C24.1534 8.13531 23.8763 7.3301 23.243 6.67906C22.6117 6.02906 21.8221 5.72906 20.8711 5.57177C19.9586 5.42073 18.8003 5.38844 17.3638 5.34781L17.3076 5.34573C15.942 5.30428 14.5759 5.28136 13.2096 5.27698ZM12.0346 16.2155C11.9158 16.2834 11.7813 16.3189 11.6445 16.3184C11.5077 16.3179 11.3734 16.2815 11.2551 16.2129C11.1367 16.1442 11.0385 16.0457 10.9702 15.9272C10.9019 15.8086 10.8659 15.6742 10.8659 15.5374V11.3707C10.8659 11.2339 10.9019 11.0995 10.9702 10.981C11.0385 10.8624 11.1367 10.7639 11.2551 10.6952C11.3734 10.6266 11.5077 10.5902 11.6445 10.5897C11.7813 10.5893 11.9158 10.6247 12.0346 10.6926L15.6805 12.7759C15.8 12.8443 15.8993 12.943 15.9683 13.0621C16.0374 13.1812 16.0738 13.3164 16.0738 13.4541C16.0738 13.5917 16.0374 13.7269 15.9683 13.846C15.8993 13.9651 15.8 14.0638 15.6805 14.1322L12.0346 16.2155Z" fill="#121212"/>
</svg>
