<svg width="24" height="25" viewBox="0 0 24 25" fill="none" xmlns="http://www.w3.org/2000/svg">
<path d="M8.49795 4.67725C8.8612 4.67725 9.1959 4.87426 9.37225 5.19188L10.5955 7.39528C10.7556 7.68378 10.7632 8.03273 10.6156 8.32788L9.43715 10.6847C9.43715 10.6847 9.77865 12.4404 11.2079 13.8696C12.6371 15.2988 14.3869 15.6344 14.3869 15.6344L16.7434 14.4562C17.0387 14.3085 17.3879 14.3162 17.6765 14.4766L19.8862 15.7051C20.2035 15.8816 20.4003 16.2161 20.4003 16.5791V19.1159C20.4003 20.4077 19.2003 21.3408 17.9763 20.9277C15.4623 20.0795 11.56 18.4644 9.08655 15.9909C6.61315 13.5175 4.998 9.61518 4.14973 7.10123C3.73672 5.87718 4.66976 4.67725 5.9616 4.67725H8.49795Z" fill="#2F88FF" stroke="black" stroke-width="2" stroke-linejoin="round"/>
</svg>
