<svg width="1700" height="161" viewBox="0 0 1700 161" fill="none" xmlns="http://www.w3.org/2000/svg">
<g clip-path="url(#clip0_158_4928)">
<path d="M41.9936 5.46191H0V155.943H41.9936V5.46191Z" fill="#121212" fill-opacity="0.1"/>
<path d="M1037.95 155.941H995.957V156.371H1037.95V155.941Z" fill="#121212" fill-opacity="0.1"/>
<path d="M1037.95 5.45947H995.957V155.941H1037.95V5.45947Z" fill="#121212" fill-opacity="0.1"/>
<path d="M1130.59 5.45947H1088.6V155.941H1130.59V5.45947Z" fill="#121212" fill-opacity="0.1"/>
<path d="M1130.59 155.941H1088.6V156.371H1130.59V155.941Z" fill="#121212" fill-opacity="0.1"/>
<path d="M1320.86 5.45947H1278.87V155.941H1320.86V5.45947Z" fill="#121212" fill-opacity="0.1"/>
<path d="M1320.86 155.941H1278.87V156.371H1320.86V155.941Z" fill="#121212" fill-opacity="0.1"/>
<path d="M1252.68 55.3164H1157.57V97.1865H1252.68V55.3164Z" fill="#121212" fill-opacity="0.1"/>
<path d="M1416.23 155.941H1374.23V156.371H1416.23V155.941Z" fill="#121212" fill-opacity="0.1"/>
<path d="M1416.23 5.45947H1374.23V155.941H1416.23V5.45947Z" fill="#121212" fill-opacity="0.1"/>
<path d="M1510.66 155.941H1468.67V156.371H1510.66V155.941Z" fill="#121212" fill-opacity="0.1"/>
<path d="M1510.66 5.45947H1468.67V155.941H1510.66V5.45947Z" fill="#121212" fill-opacity="0.1"/>
<path d="M1699.99 155.941H1658V156.371H1699.99V155.941Z" fill="#121212" fill-opacity="0.1"/>
<path d="M1699.99 5.45947H1658V155.941H1699.99V5.45947Z" fill="#121212" fill-opacity="0.1"/>
<path d="M901.927 5.45957L901.909 5.44238L901.892 5.45957H859.904V155.941V156.371H901.898V155.941V62.4838L945.926 104.314L974.502 74.418L901.927 5.45957Z" fill="#121212" fill-opacity="0.1"/>
<path d="M1588.26 104.314L1616.83 74.4179L1544.26 5.45947H1544.23L1515.67 35.338L1588.26 104.314Z" fill="#121212" fill-opacity="0.1"/>
<path d="M1544.25 5.44238L1544.22 5.46415H1544.27L1544.25 5.44238Z" fill="#121212" fill-opacity="0.1"/>
<path d="M107.667 61.4355H60.6055V96.0408H107.667V61.4355Z" fill="#121212" fill-opacity="0.1"/>
<path d="M107.668 5.45947V61.4352V96.0405V155.941H149.667V5.45947H107.668Z" fill="#121212" fill-opacity="0.1"/>
<path d="M844.492 36.9995V5.45947H771.894H769.136H729.9V155.941H769.136H771.894H844.492V124.401H771.894V94.3904H827.322V62.8504H771.894V36.9995H844.492Z" fill="#121212" fill-opacity="0.1"/>
<path d="M260.305 5.45947H208.956L156.137 155.941H200.63L212.628 121.754H256.627L268.625 155.941H313.119L260.305 5.45947ZM224.391 88.2371L234.625 59.0747L244.859 88.2371H224.391Z" fill="#121212" fill-opacity="0.1"/>
<path d="M419.614 5.45947H413.408V61.4696V83.3214L359.572 7.73976L357.945 5.45947H343.425H317.572V61.4352V96.0405V155.941H359.572V70.8944L360.388 72.046L383.396 104.342L413.408 146.47L419.614 155.179L420.223 156.033H429.159H455.408V5.45947H419.614Z" fill="#121212" fill-opacity="0.1"/>
<path d="M546.572 41.6063C544.997 39.0797 542.722 37.1833 539.745 35.9171C536.769 34.6567 533.022 34.0207 528.506 34.0207C524.403 34.0207 520.961 34.565 518.191 35.6478C515.421 36.7307 513.33 38.2318 511.934 40.1454C510.531 42.059 509.83 44.2476 509.83 46.6997C509.692 50.6702 511.267 53.85 514.554 56.2334C517.841 58.6168 523.07 60.7137 530.258 62.5185L542.676 65.1196C558.478 68.7348 570.091 74.5272 577.521 82.5082C584.945 90.4892 588.726 100.653 588.864 113.006C588.864 123.187 586.451 131.838 581.63 138.954C576.809 146.07 569.93 151.524 561.001 155.311C552.071 159.104 541.349 161 528.827 161C516.306 161 504.676 158.943 495.166 154.824C485.656 150.705 478.335 144.477 473.204 136.135C468.072 127.793 465.406 117.337 465.199 104.772H502.556C502.826 109.539 504.027 113.601 506.147 116.959C508.267 120.316 511.209 122.849 514.973 124.544C518.737 126.24 523.185 127.088 528.316 127.088C532.695 127.088 536.424 126.475 539.504 125.249C542.584 124.023 544.928 122.362 546.532 120.265C548.141 118.173 548.945 115.75 548.945 113.006C548.945 110.404 548.192 108.17 546.687 106.291C545.181 104.412 542.751 102.733 539.401 101.255C536.051 99.7765 531.637 98.4186 526.161 97.1925L511.175 93.6174C497.556 90.5866 487.144 85.476 479.927 78.2857C472.71 71.1011 469.101 61.5445 469.101 49.6274C469.101 39.8761 471.629 31.2649 476.697 23.7881C481.76 16.3113 488.788 10.5017 497.786 6.34792C506.785 2.19414 517.065 0.120117 528.626 0.120117C540.188 0.120117 550.64 2.19987 559.363 6.34792C568.086 10.5017 574.843 16.4087 579.63 24.0631C584.417 31.7175 586.813 40.6037 586.813 50.716H549.353C549.077 47.1753 548.158 44.1445 546.583 41.6178L546.572 41.6063Z" fill="#121212" fill-opacity="0.1"/>
<path d="M676.191 41.6063C674.617 39.0797 672.341 37.1833 669.364 35.9171C666.388 34.6567 662.641 34.0207 658.125 34.0207C654.022 34.0207 650.58 34.565 647.81 35.6478C645.041 36.7307 642.949 38.2318 641.553 40.1454C640.151 42.059 639.45 44.2476 639.45 46.6997C639.312 50.6702 640.886 53.85 644.173 56.2334C647.46 58.6168 652.689 60.7137 659.877 62.5185L672.295 65.1196C688.097 68.7348 699.71 74.5272 707.14 82.5082C714.565 90.4892 718.346 100.653 718.483 113.006C718.483 123.187 716.07 131.838 711.249 138.954C706.428 146.07 699.55 151.524 690.62 155.311C681.69 159.104 670.968 161 658.447 161C645.926 161 634.295 158.943 624.785 154.824C615.275 150.705 607.954 144.477 602.823 136.135C597.691 127.793 595.025 117.337 594.818 104.772H632.175C632.445 109.539 633.646 113.601 635.766 116.959C637.887 120.316 640.829 122.849 644.592 124.544C648.356 126.24 652.804 127.088 657.935 127.088C662.314 127.088 666.043 126.475 669.123 125.249C672.203 124.023 674.548 122.362 676.151 120.265C677.76 118.173 678.564 115.75 678.564 113.006C678.564 110.404 677.811 108.17 676.306 106.291C674.8 104.412 672.37 102.733 669.02 101.255C665.67 99.7765 661.257 98.4186 655.78 97.1925L640.794 93.6174C627.176 90.5866 616.763 85.476 609.546 78.2857C602.329 71.1011 598.72 61.5445 598.72 49.6274C598.72 39.8761 601.248 31.2649 606.317 23.7881C611.379 16.3113 618.407 10.5017 627.405 6.34792C636.404 2.19414 646.684 0.120117 658.246 0.120117C669.807 0.120117 680.259 2.19987 688.982 6.34792C697.705 10.5017 704.463 16.4087 709.249 24.0631C714.036 31.7175 716.432 40.6037 716.432 50.716H678.972C678.696 47.1753 677.777 44.1445 676.203 41.6178L676.191 41.6063Z" fill="#121212" fill-opacity="0.1"/>
</g>
<defs>
<clipPath id="clip0_158_4928">
<rect width="1700" height="160.886" fill="white" transform="translate(0 0.114258)"/>
</clipPath>
</defs>
</svg>
