<svg width="17" height="18" viewBox="0 0 17 18" fill="none" xmlns="http://www.w3.org/2000/svg">
<path d="M8.5 0.561035C13.2 0.561036 17 4.36104 17 9.06104C17 13.761 13.2 17.561 8.5 17.561C3.8 17.561 3.90207e-07 13.761 0 9.06104C4.10887e-07 4.36104 3.8 0.561035 8.5 0.561035ZM15.9902 9.44678C15.7895 13.4096 12.5128 16.561 8.5 16.561C4.48724 16.561 1.21054 13.4096 1.00977 9.44678V9.44775C1.21023 13.4172 4.47971 16.561 8.5 16.561C12.5203 16.561 15.7898 13.4172 15.9902 9.44775V9.44678ZM8.5 1.56104C4.35 1.56104 1 4.91104 1 9.06104L1.00977 8.67529C1.21054 4.71242 4.48724 1.56104 8.5 1.56104ZM8.5 1.56104C12.6421 1.56104 16 4.9189 16 9.06104L15.9902 8.67432C15.7962 4.83296 12.7281 1.76479 8.88672 1.5708L8.5 1.56104Z" fill="white"/>
<path d="M8.3502 4.21113L13.2002 9.06113L8.3502 13.9111L7.65019 13.2111L11.8002 9.06113L7.6502 4.91113L8.3502 4.21113Z" fill="black"/>
<path d="M12.5 9.56104L4 9.56103L4 8.56103L12.5 8.56104L12.5 9.56104Z" fill="black"/>
</svg>
