<svg width="78" height="24" viewBox="0 0 78 24" fill="none" xmlns="http://www.w3.org/2000/svg">
<path d="M16.082 20.3805V23.0836H0.941406C0.920573 22.4065 1.02995 21.7555 1.26953 21.1305C1.65495 20.0992 2.26953 19.0836 3.11328 18.0836C3.96745 17.0836 5.19661 15.9274 6.80078 14.6149C9.29036 12.5732 10.9727 10.9586 11.8477 9.77112C12.7227 8.5732 13.1602 7.44299 13.1602 6.38049C13.1602 5.26591 12.7591 4.32841 11.957 3.56799C11.1654 2.79716 10.1289 2.41174 8.84766 2.41174C7.49349 2.41174 6.41016 2.81799 5.59766 3.63049C4.78516 4.44299 4.3737 5.56799 4.36328 7.00549L1.47266 6.70862C1.67057 4.55237 2.41536 2.91174 3.70703 1.78674C4.9987 0.651326 6.73307 0.0836182 8.91016 0.0836182C11.1081 0.0836182 12.8477 0.692993 14.1289 1.91174C15.4102 3.13049 16.0508 4.64091 16.0508 6.44299C16.0508 7.35966 15.8633 8.2607 15.4883 9.14612C15.1133 10.0315 14.4883 10.9638 13.6133 11.943C12.7487 12.9222 11.306 14.2659 9.28516 15.9742C7.59766 17.3909 6.51432 18.3545 6.03516 18.8649C5.55599 19.3649 5.16016 19.8701 4.84766 20.3805H16.082ZM21.6733 11.7867C21.6733 9.07841 21.9493 6.90133 22.5014 5.25549C23.0639 3.59924 23.892 2.3232 24.9858 1.42737C26.0899 0.531535 27.4754 0.0836182 29.142 0.0836182C30.3712 0.0836182 31.4493 0.333618 32.3764 0.833618C33.3035 1.3232 34.0691 2.03674 34.6733 2.97424C35.2774 3.90133 35.7514 5.03674 36.0952 6.38049C36.4389 7.71383 36.6108 9.51591 36.6108 11.7867C36.6108 14.4742 36.3347 16.6461 35.7827 18.3024C35.2306 19.9482 34.4024 21.2242 33.2983 22.1305C32.2045 23.0263 30.8191 23.4742 29.142 23.4742C26.9337 23.4742 25.1993 22.6826 23.9389 21.0992C22.4285 19.193 21.6733 16.0888 21.6733 11.7867ZM24.5639 11.7867C24.5639 15.5472 25.0014 18.0524 25.8764 19.3024C26.7618 20.542 27.8504 21.1617 29.142 21.1617C30.4337 21.1617 31.517 20.5367 32.392 19.2867C33.2774 18.0367 33.7202 15.5367 33.7202 11.7867C33.7202 8.01591 33.2774 5.5107 32.392 4.27112C31.517 3.03153 30.4233 2.41174 29.1108 2.41174C27.8191 2.41174 26.7879 2.95862 26.017 4.05237C25.0483 5.4482 24.5639 8.02633 24.5639 11.7867ZM56.827 20.3805V23.0836H41.6864C41.6656 22.4065 41.7749 21.7555 42.0145 21.1305C42.3999 20.0992 43.0145 19.0836 43.8583 18.0836C44.7124 17.0836 45.9416 15.9274 47.5458 14.6149C50.0354 12.5732 51.7177 10.9586 52.5927 9.77112C53.4677 8.5732 53.9052 7.44299 53.9052 6.38049C53.9052 5.26591 53.5041 4.32841 52.702 3.56799C51.9104 2.79716 50.8739 2.41174 49.5927 2.41174C48.2385 2.41174 47.1552 2.81799 46.3427 3.63049C45.5302 4.44299 45.1187 5.56799 45.1083 7.00549L42.2177 6.70862C42.4156 4.55237 43.1604 2.91174 44.452 1.78674C45.7437 0.651326 47.4781 0.0836182 49.6552 0.0836182C51.8531 0.0836182 53.5927 0.692993 54.8739 1.91174C56.1552 3.13049 56.7958 4.64091 56.7958 6.44299C56.7958 7.35966 56.6083 8.2607 56.2333 9.14612C55.8583 10.0315 55.2333 10.9638 54.3583 11.943C53.4937 12.9222 52.051 14.2659 50.0302 15.9742C48.3427 17.3909 47.2593 18.3545 46.7802 18.8649C46.301 19.3649 45.9052 19.8701 45.5927 20.3805H56.827ZM62.4183 17.0836L65.3714 16.8336C65.5902 18.2711 66.0954 19.3545 66.887 20.0836C67.6891 20.8024 68.6527 21.1617 69.7777 21.1617C71.1318 21.1617 72.2777 20.6513 73.2152 19.6305C74.1527 18.6097 74.6214 17.2555 74.6214 15.568C74.6214 13.9638 74.1683 12.6982 73.262 11.7711C72.3662 10.844 71.1891 10.3805 69.7308 10.3805C68.8245 10.3805 68.0068 10.5888 67.2777 11.0055C66.5485 11.4117 65.9756 11.943 65.5589 12.5992L62.9183 12.2555L65.137 0.489868H76.5277V3.17737H67.387L66.1527 9.33362C67.5277 8.37528 68.9704 7.89612 70.4808 7.89612C72.4808 7.89612 74.1683 8.58883 75.5433 9.97424C76.9183 11.3597 77.6058 13.1409 77.6058 15.318C77.6058 17.3909 77.0016 19.1826 75.7933 20.693C74.3245 22.5472 72.3193 23.4742 69.7777 23.4742C67.6943 23.4742 65.9912 22.8909 64.6683 21.7242C63.3558 20.5576 62.6058 19.0107 62.4183 17.0836Z" fill="#121212"/>
</svg>
