<svg width="78" height="24" viewBox="0 0 78 24" fill="none" xmlns="http://www.w3.org/2000/svg">
<path d="M16.082 20.8784V23.5815H0.941406C0.920573 22.9045 1.02995 22.2534 1.26953 21.6284C1.65495 20.5972 2.26953 19.5815 3.11328 18.5815C3.96745 17.5815 5.19661 16.4253 6.80078 15.1128C9.29036 13.0711 10.9727 11.4565 11.8477 10.269C12.7227 9.07113 13.1602 7.94092 13.1602 6.87842C13.1602 5.76383 12.7591 4.82633 11.957 4.06592C11.1654 3.29508 10.1289 2.90967 8.84766 2.90967C7.49349 2.90967 6.41016 3.31592 5.59766 4.12842C4.78516 4.94092 4.3737 6.06592 4.36328 7.50342L1.47266 7.20654C1.67057 5.05029 2.41536 3.40967 3.70703 2.28467C4.9987 1.14925 6.73307 0.581543 8.91016 0.581543C11.1081 0.581543 12.8477 1.19092 14.1289 2.40967C15.4102 3.62842 16.0508 5.13883 16.0508 6.94092C16.0508 7.85758 15.8633 8.75863 15.4883 9.64404C15.1133 10.5295 14.4883 11.4618 13.6133 12.4409C12.7487 13.4201 11.306 14.7638 9.28516 16.4722C7.59766 17.8888 6.51432 18.8524 6.03516 19.3628C5.55599 19.8628 5.16016 20.368 4.84766 20.8784H16.082ZM21.6733 12.2847C21.6733 9.57633 21.9493 7.39925 22.5014 5.75342C23.0639 4.09717 23.892 2.82113 24.9858 1.92529C26.0899 1.02946 27.4754 0.581543 29.142 0.581543C30.3712 0.581543 31.4493 0.831543 32.3764 1.33154C33.3035 1.82113 34.0691 2.53467 34.6733 3.47217C35.2774 4.39925 35.7514 5.53467 36.0952 6.87842C36.4389 8.21175 36.6108 10.0138 36.6108 12.2847C36.6108 14.9722 36.3347 17.144 35.7827 18.8003C35.2306 20.4461 34.4024 21.7222 33.2983 22.6284C32.2045 23.5243 30.8191 23.9722 29.142 23.9722C26.9337 23.9722 25.1993 23.1805 23.9389 21.5972C22.4285 19.6909 21.6733 16.5868 21.6733 12.2847ZM24.5639 12.2847C24.5639 16.0451 25.0014 18.5503 25.8764 19.8003C26.7618 21.0399 27.8504 21.6597 29.142 21.6597C30.4337 21.6597 31.517 21.0347 32.392 19.7847C33.2774 18.5347 33.7202 16.0347 33.7202 12.2847C33.7202 8.51383 33.2774 6.00863 32.392 4.76904C31.517 3.52946 30.4233 2.90967 29.1108 2.90967C27.8191 2.90967 26.7879 3.45654 26.017 4.55029C25.0483 5.94613 24.5639 8.52425 24.5639 12.2847ZM56.827 20.8784V23.5815H41.6864C41.6656 22.9045 41.7749 22.2534 42.0145 21.6284C42.3999 20.5972 43.0145 19.5815 43.8583 18.5815C44.7124 17.5815 45.9416 16.4253 47.5458 15.1128C50.0354 13.0711 51.7177 11.4565 52.5927 10.269C53.4677 9.07113 53.9052 7.94092 53.9052 6.87842C53.9052 5.76383 53.5041 4.82633 52.702 4.06592C51.9104 3.29508 50.8739 2.90967 49.5927 2.90967C48.2385 2.90967 47.1552 3.31592 46.3427 4.12842C45.5302 4.94092 45.1187 6.06592 45.1083 7.50342L42.2177 7.20654C42.4156 5.05029 43.1604 3.40967 44.452 2.28467C45.7437 1.14925 47.4781 0.581543 49.6552 0.581543C51.8531 0.581543 53.5927 1.19092 54.8739 2.40967C56.1552 3.62842 56.7958 5.13883 56.7958 6.94092C56.7958 7.85758 56.6083 8.75863 56.2333 9.64404C55.8583 10.5295 55.2333 11.4618 54.3583 12.4409C53.4937 13.4201 52.051 14.7638 50.0302 16.4722C48.3427 17.8888 47.2593 18.8524 46.7802 19.3628C46.301 19.8628 45.9052 20.368 45.5927 20.8784H56.827ZM62.4183 17.5815L65.3714 17.3315C65.5902 18.769 66.0954 19.8524 66.887 20.5815C67.6891 21.3003 68.6527 21.6597 69.7777 21.6597C71.1318 21.6597 72.2777 21.1493 73.2152 20.1284C74.1527 19.1076 74.6214 17.7534 74.6214 16.0659C74.6214 14.4618 74.1683 13.1961 73.262 12.269C72.3662 11.342 71.1891 10.8784 69.7308 10.8784C68.8245 10.8784 68.0068 11.0868 67.2777 11.5034C66.5485 11.9097 65.9756 12.4409 65.5589 13.0972L62.9183 12.7534L65.137 0.987793H76.5277V3.67529H67.387L66.1527 9.83154C67.5277 8.87321 68.9704 8.39404 70.4808 8.39404C72.4808 8.39404 74.1683 9.08675 75.5433 10.4722C76.9183 11.8576 77.6058 13.6388 77.6058 15.8159C77.6058 17.8888 77.0016 19.6805 75.7933 21.1909C74.3245 23.0451 72.3193 23.9722 69.7777 23.9722C67.6943 23.9722 65.9912 23.3888 64.6683 22.2222C63.3558 21.0555 62.6058 19.5086 62.4183 17.5815Z" fill="white"/>
</svg>
