<svg width="222" height="38" viewBox="0 0 222 38" fill="none" xmlns="http://www.w3.org/2000/svg">
<path d="M2.35156 30.6188V7.71259H9.77344C12.5859 7.71259 14.4193 7.82717 15.2734 8.05634C16.5859 8.40009 17.6849 9.15009 18.5703 10.3063C19.4557 11.4522 19.8984 12.9365 19.8984 14.7595C19.8984 16.1657 19.6432 17.348 19.1328 18.3063C18.6224 19.2647 17.9714 20.0199 17.1797 20.572C16.3984 21.1136 15.6016 21.473 14.7891 21.6501C13.6849 21.8688 12.0859 21.9782 9.99219 21.9782H6.97656V30.6188H2.35156ZM6.97656 11.5876V18.0876H9.50781C11.3307 18.0876 12.5495 17.9678 13.1641 17.7282C13.7786 17.4886 14.2578 17.1136 14.6016 16.6032C14.9557 16.0928 15.1328 15.499 15.1328 14.822C15.1328 13.9886 14.888 13.3011 14.3984 12.7595C13.9089 12.2178 13.2891 11.8793 12.5391 11.7438C11.987 11.6397 10.8776 11.5876 9.21094 11.5876H6.97656ZM26.9178 19.3063C26.9178 16.973 27.2668 15.0147 27.9647 13.4313C28.4855 12.2647 29.1939 11.2178 30.0897 10.2907C30.9959 9.36363 31.9855 8.67613 33.0584 8.22821C34.4855 7.62404 36.1314 7.32196 37.9959 7.32196C41.3709 7.32196 44.0689 8.36884 46.0897 10.4626C48.1209 12.5563 49.1366 15.4678 49.1366 19.197C49.1366 22.8949 48.1314 25.7907 46.1209 27.8845C44.1105 29.9678 41.423 31.0095 38.0584 31.0095C34.6522 31.0095 31.9439 29.973 29.9334 27.9001C27.923 25.8168 26.9178 22.9522 26.9178 19.3063ZM31.6834 19.1501C31.6834 21.7438 32.2824 23.7126 33.4803 25.0563C34.6782 26.3897 36.1991 27.0563 38.0428 27.0563C39.8866 27.0563 41.397 26.3949 42.5741 25.072C43.7616 23.7386 44.3553 21.7438 44.3553 19.0876C44.3553 16.4626 43.7772 14.5043 42.6209 13.2126C41.4751 11.9209 39.9491 11.2751 38.0428 11.2751C36.1366 11.2751 34.6001 11.9313 33.4334 13.2438C32.2668 14.5459 31.6834 16.5147 31.6834 19.1501ZM56.9372 30.6188V7.71259H66.6716C69.1195 7.71259 70.8955 7.92092 71.9997 8.33759C73.1143 8.74384 74.0049 9.473 74.6716 10.5251C75.3382 11.5772 75.6716 12.7803 75.6716 14.1345C75.6716 15.8532 75.1664 17.2751 74.1559 18.4001C73.1455 19.5147 71.6351 20.2178 69.6247 20.5095C70.6247 21.0928 71.4476 21.7334 72.0934 22.4313C72.7497 23.1293 73.6299 24.3688 74.7341 26.1501L77.5309 30.6188H71.9997L68.6559 25.6345C67.4684 23.8532 66.6559 22.7334 66.2184 22.2751C65.7809 21.8063 65.3174 21.4886 64.8278 21.322C64.3382 21.1449 63.5622 21.0563 62.4997 21.0563H61.5622V30.6188H56.9372ZM61.5622 17.4001H64.9841C67.2028 17.4001 68.5882 17.3063 69.1403 17.1188C69.6924 16.9313 70.1247 16.6084 70.4372 16.1501C70.7497 15.6918 70.9059 15.1188 70.9059 14.4313C70.9059 13.6605 70.6976 13.0407 70.2809 12.572C69.8747 12.0928 69.2966 11.7907 68.5466 11.6657C68.1716 11.6136 67.0466 11.5876 65.1716 11.5876H61.5622V17.4001ZM89.3628 30.6188V11.5876H82.5659V7.71259H100.769V11.5876H93.9878V30.6188H89.3628ZM107.96 30.6188V7.71259H123.663V11.5876H112.585V17.0095H122.148V20.8845H112.585V30.6188H107.96ZM130.714 19.3063C130.714 16.973 131.063 15.0147 131.761 13.4313C132.282 12.2647 132.99 11.2178 133.886 10.2907C134.792 9.36363 135.782 8.67613 136.855 8.22821C138.282 7.62404 139.928 7.32196 141.792 7.32196C145.167 7.32196 147.865 8.36884 149.886 10.4626C151.917 12.5563 152.933 15.4678 152.933 19.197C152.933 22.8949 151.928 25.7907 149.917 27.8845C147.907 29.9678 145.219 31.0095 141.855 31.0095C138.448 31.0095 135.74 29.973 133.73 27.9001C131.719 25.8168 130.714 22.9522 130.714 19.3063ZM135.48 19.1501C135.48 21.7438 136.079 23.7126 137.277 25.0563C138.474 26.3897 139.995 27.0563 141.839 27.0563C143.683 27.0563 145.193 26.3949 146.37 25.072C147.558 23.7386 148.152 21.7438 148.152 19.0876C148.152 16.4626 147.573 14.5043 146.417 13.2126C145.271 11.9209 143.745 11.2751 141.839 11.2751C139.933 11.2751 138.396 11.9313 137.23 13.2438C136.063 14.5459 135.48 16.5147 135.48 19.1501ZM160.843 30.6188V7.90009H165.468V26.7595H176.968V30.6188H160.843ZM184.3 30.6188V7.71259H188.925V30.6188H184.3ZM196.569 19.3063C196.569 16.973 196.918 15.0147 197.616 13.4313C198.137 12.2647 198.845 11.2178 199.741 10.2907C200.647 9.36363 201.637 8.67613 202.71 8.22821C204.137 7.62404 205.783 7.32196 207.647 7.32196C211.022 7.32196 213.72 8.36884 215.741 10.4626C217.772 12.5563 218.788 15.4678 218.788 19.197C218.788 22.8949 217.783 25.7907 215.772 27.8845C213.762 29.9678 211.074 31.0095 207.71 31.0095C204.303 31.0095 201.595 29.973 199.585 27.9001C197.574 25.8168 196.569 22.9522 196.569 19.3063ZM201.335 19.1501C201.335 21.7438 201.934 23.7126 203.132 25.0563C204.329 26.3897 205.85 27.0563 207.694 27.0563C209.538 27.0563 211.048 26.3949 212.225 25.072C213.413 23.7386 214.007 21.7438 214.007 19.0876C214.007 16.4626 213.428 14.5043 212.272 13.2126C211.126 11.9209 209.6 11.2751 207.694 11.2751C205.788 11.2751 204.251 11.9313 203.085 13.2438C201.918 14.5459 201.335 16.5147 201.335 19.1501Z" fill="white"/>
<rect x="127.43" y="6.39911" width="27.4297" height="27.5708" fill="#0B0B0B"/>
<path d="M141.145 6.39923V33.97" stroke="white" stroke-width="1.8"/>
<path d="M153.082 13.2919L129.205 27.0773" stroke="white" stroke-width="1.8"/>
<path d="M153.082 27.0773L129.205 13.2919" stroke="white" stroke-width="1.8"/>
<path d="M148.031 32.123L134.246 8.24609" stroke="white" stroke-width="1.8"/>
<path d="M134.25 32.123L148.035 8.24609" stroke="white" stroke-width="1.8"/>
<path d="M127.359 20.1846L154.93 20.1846" stroke="white" stroke-width="1.8"/>
<circle cx="141.145" cy="20.1845" r="8.60574" fill="#0B0B0B"/>
</svg>
