<svg width="222" height="38" viewBox="0 0 222 38" fill="none" xmlns="http://www.w3.org/2000/svg">
<path d="M2.35156 30.7325V7.82623H9.77344C12.5859 7.82623 14.4193 7.94082 15.2734 8.16998C16.5859 8.51373 17.6849 9.26373 18.5703 10.42C19.4557 11.5658 19.8984 13.0502 19.8984 14.8731C19.8984 16.2794 19.6432 17.4616 19.1328 18.42C18.6224 19.3783 17.9714 20.1335 17.1797 20.6856C16.3984 21.2273 15.6016 21.5866 14.7891 21.7637C13.6849 21.9825 12.0859 22.0919 9.99219 22.0919H6.97656V30.7325H2.35156ZM6.97656 11.7012V18.2012H9.50781C11.3307 18.2012 12.5495 18.0814 13.1641 17.8419C13.7786 17.6023 14.2578 17.2273 14.6016 16.7169C14.9557 16.2064 15.1328 15.6127 15.1328 14.9356C15.1328 14.1023 14.888 13.4148 14.3984 12.8731C13.9089 12.3314 13.2891 11.9929 12.5391 11.8575C11.987 11.7533 10.8776 11.7012 9.21094 11.7012H6.97656ZM26.9178 19.42C26.9178 17.0866 27.2668 15.1283 27.9647 13.545C28.4855 12.3783 29.1939 11.3314 30.0897 10.4044C30.9959 9.47727 31.9855 8.78977 33.0584 8.34186C34.4855 7.73769 36.1314 7.43561 37.9959 7.43561C41.3709 7.43561 44.0689 8.48248 46.0897 10.5762C48.1209 12.67 49.1366 15.5814 49.1366 19.3106C49.1366 23.0085 48.1314 25.9044 46.1209 27.9981C44.1105 30.0814 41.423 31.1231 38.0584 31.1231C34.6522 31.1231 31.9439 30.0866 29.9334 28.0137C27.923 25.9304 26.9178 23.0658 26.9178 19.42ZM31.6834 19.2637C31.6834 21.8575 32.2824 23.8262 33.4803 25.17C34.6782 26.5033 36.1991 27.17 38.0428 27.17C39.8866 27.17 41.397 26.5085 42.5741 25.1856C43.7616 23.8523 44.3553 21.8575 44.3553 19.2012C44.3553 16.5762 43.7772 14.6179 42.6209 13.3262C41.4751 12.0346 39.9491 11.3887 38.0428 11.3887C36.1366 11.3887 34.6001 12.045 33.4334 13.3575C32.2668 14.6596 31.6834 16.6283 31.6834 19.2637ZM56.9372 30.7325V7.82623H66.6716C69.1195 7.82623 70.8955 8.03457 71.9997 8.45123C73.1143 8.85748 74.0049 9.58665 74.6716 10.6387C75.3382 11.6908 75.6716 12.8939 75.6716 14.2481C75.6716 15.9669 75.1664 17.3887 74.1559 18.5137C73.1455 19.6283 71.6351 20.3314 69.6247 20.6231C70.6247 21.2064 71.4476 21.8471 72.0934 22.545C72.7497 23.2429 73.6299 24.4825 74.7341 26.2637L77.5309 30.7325H71.9997L68.6559 25.7481C67.4684 23.9669 66.6559 22.8471 66.2184 22.3887C65.7809 21.92 65.3174 21.6023 64.8278 21.4356C64.3382 21.2585 63.5622 21.17 62.4997 21.17H61.5622V30.7325H56.9372ZM61.5622 17.5137H64.9841C67.2028 17.5137 68.5882 17.42 69.1403 17.2325C69.6924 17.045 70.1247 16.7221 70.4372 16.2637C70.7497 15.8054 70.9059 15.2325 70.9059 14.545C70.9059 13.7741 70.6976 13.1544 70.2809 12.6856C69.8747 12.2064 69.2966 11.9044 68.5466 11.7794C68.1716 11.7273 67.0466 11.7012 65.1716 11.7012H61.5622V17.5137ZM89.3628 30.7325V11.7012H82.5659V7.82623H100.769V11.7012H93.9878V30.7325H89.3628ZM107.96 30.7325V7.82623H123.663V11.7012H112.585V17.1231H122.148V20.9981H112.585V30.7325H107.96ZM130.714 19.42C130.714 17.0866 131.063 15.1283 131.761 13.545C132.282 12.3783 132.99 11.3314 133.886 10.4044C134.792 9.47727 135.782 8.78977 136.855 8.34186C138.282 7.73769 139.928 7.43561 141.792 7.43561C145.167 7.43561 147.865 8.48248 149.886 10.5762C151.917 12.67 152.933 15.5814 152.933 19.3106C152.933 23.0085 151.928 25.9044 149.917 27.9981C147.907 30.0814 145.219 31.1231 141.855 31.1231C138.448 31.1231 135.74 30.0866 133.73 28.0137C131.719 25.9304 130.714 23.0658 130.714 19.42ZM135.48 19.2637C135.48 21.8575 136.079 23.8262 137.277 25.17C138.474 26.5033 139.995 27.17 141.839 27.17C143.683 27.17 145.193 26.5085 146.37 25.1856C147.558 23.8523 148.152 21.8575 148.152 19.2012C148.152 16.5762 147.573 14.6179 146.417 13.3262C145.271 12.0346 143.745 11.3887 141.839 11.3887C139.933 11.3887 138.396 12.045 137.23 13.3575C136.063 14.6596 135.48 16.6283 135.48 19.2637ZM160.843 30.7325V8.01373H165.468V26.8731H176.968V30.7325H160.843ZM184.3 30.7325V7.82623H188.925V30.7325H184.3ZM196.569 19.42C196.569 17.0866 196.918 15.1283 197.616 13.545C198.137 12.3783 198.845 11.3314 199.741 10.4044C200.647 9.47727 201.637 8.78977 202.71 8.34186C204.137 7.73769 205.783 7.43561 207.647 7.43561C211.022 7.43561 213.72 8.48248 215.741 10.5762C217.772 12.67 218.788 15.5814 218.788 19.3106C218.788 23.0085 217.783 25.9044 215.772 27.9981C213.762 30.0814 211.074 31.1231 207.71 31.1231C204.303 31.1231 201.595 30.0866 199.585 28.0137C197.574 25.9304 196.569 23.0658 196.569 19.42ZM201.335 19.2637C201.335 21.8575 201.934 23.8262 203.132 25.17C204.329 26.5033 205.85 27.17 207.694 27.17C209.538 27.17 211.048 26.5085 212.225 25.1856C213.413 23.8523 214.007 21.8575 214.007 19.2012C214.007 16.5762 213.428 14.6179 212.272 13.3262C211.126 12.0346 209.6 11.3887 207.694 11.3887C205.788 11.3887 204.251 12.045 203.085 13.3575C201.918 14.6596 201.335 16.6283 201.335 19.2637Z" fill="#121212"/>
<rect x="127.43" y="6.51276" width="27.4297" height="27.5708" fill="white"/>
<path d="M141.145 6.51288V34.0836" stroke="#121212" stroke-width="1.8"/>
<path d="M153.082 13.4056L129.205 27.1909" stroke="#121212" stroke-width="1.8"/>
<path d="M153.082 27.1909L129.205 13.4055" stroke="#121212" stroke-width="1.8"/>
<path d="M148.031 32.2367L134.246 8.35973" stroke="#121212" stroke-width="1.8"/>
<path d="M134.25 32.2367L148.035 8.35973" stroke="#121212" stroke-width="1.8"/>
<path d="M127.359 20.2983L154.93 20.2983" stroke="#121212" stroke-width="1.8"/>
<circle cx="141.145" cy="20.2982" r="8.60574" fill="white"/>
</svg>
