<svg width="67" height="67" viewBox="0 0 67 67" fill="none" xmlns="http://www.w3.org/2000/svg">
<path d="M37.1571 28.3146C37.3869 27.5515 37.5451 26.7624 37.6316 25.9472C37.6786 25.5604 37.8664 25.2044 38.1591 24.9472C38.4519 24.69 38.829 24.5496 39.2187 24.5528H42.9498C43.9101 24.5528 44.6485 25.3819 44.5647 26.3367C43.7133 35.9637 36.0446 43.6324 26.4189 44.4825C26.1937 44.5046 25.9663 44.4795 25.7513 44.4088C25.5363 44.338 25.3385 44.2231 25.1704 44.0715C25.0024 43.9199 24.8678 43.7348 24.7754 43.5282C24.683 43.3216 24.6347 43.098 24.6336 42.8717V39.5454C24.6336 38.3311 25.2283 37.6359 26.0295 37.5522C26.8312 37.4673 27.6233 37.308 28.3954 37.0762C28.8536 36.9409 29.3398 36.9318 29.8027 37.05C30.2656 37.1682 30.6879 37.4092 31.0252 37.7476L32.622 39.3444C35.5014 37.7842 37.8651 35.4205 39.4253 32.5411L37.8271 30.9443C37.4887 30.6071 37.2477 30.1847 37.1295 29.7218C37.0113 29.2589 37.0203 28.7727 37.1557 28.3146M30.9191 24.1982C28.0402 25.7587 25.677 28.1223 24.1172 31.0015" stroke="#121212" stroke-width="0.5" stroke-linecap="round" stroke-linejoin="round"/>
<path d="M53.502 47.9596C62.1939 39.5316 62.1939 27.4688 53.502 19.0407C51.641 17.2071 49.7938 15.3594 47.9605 13.4979C39.5339 4.80604 27.4697 4.80604 19.0417 13.4979C17.2075 15.3589 15.3594 17.2061 13.4974 19.0394C4.80555 27.4674 4.80555 39.5302 13.4974 47.9582C15.3589 49.7919 17.2066 51.6395 19.0403 53.5011C27.4669 62.1929 39.5311 62.1929 47.9591 53.5011C49.7928 51.6395 51.6405 49.7933 53.502 47.9596Z" stroke="#121212" stroke-width="0.5" stroke-linecap="round" stroke-linejoin="round"/>
<path d="M48.4125 43.8879C50.5503 40.8444 51.6932 37.2137 51.6843 33.4945C51.6843 23.4584 43.5508 15.3096 33.4994 15.3096C23.448 15.3096 15.3145 23.457 15.3145 33.4945C15.3145 43.5445 23.448 51.6948 33.4994 51.6948C37.3798 51.6948 40.9629 50.4902 43.9081 48.4229H43.9067L53.9958 58.512C54.595 59.1099 55.407 59.4457 56.2535 59.4457C57.1001 59.4457 57.9121 59.1099 58.5113 58.512C59.1092 57.9128 59.4451 57.1008 59.4451 56.2542C59.4451 55.4077 59.1092 54.5957 58.5113 53.9965L48.4083 43.892L48.4125 43.8879Z" stroke="#121212" stroke-width="0.5" stroke-linecap="round" stroke-linejoin="round"/>
</svg>
