<svg width="369" height="315" viewBox="0 0 369 315" fill="none" xmlns="http://www.w3.org/2000/svg">
<g clip-path="url(#clip0_903_2019)">
<path d="M194.027 134.209L174.967 138.232L195.431 170.215L210.04 193.571L286.519 224.368L312.601 209.986" fill="#0C27C2"/>
<path d="M170.912 126.016L217.361 101.176L215.857 94.2356C215.857 94.2356 226.19 92.8288 230.804 99.0642C235.418 105.3 236.824 110.059 236.824 110.059C236.824 110.059 284.474 113.849 299.222 130.444C313.969 147.039 354.295 207.383 349.481 243.287C344.667 279.191 319.086 287.639 296.815 287.036C274.543 286.433 210.042 261.691 210.042 261.691C210.042 261.691 219.438 213.818 213.085 194.106C213.085 194.106 279.663 204.262 290.899 209.996" fill="#0C27C2"/>
<path d="M258.258 188.874C258.258 188.874 262.84 196.714 263.959 202.969" stroke="white" stroke-miterlimit="10"/>
<path d="M213.08 194.103C196.21 190.785 165.497 192.392 165.497 192.392V135.972H97.2812C115.237 116.863 156.902 113.31 156.902 113.31C160.513 93.4638 176.565 90.7145 176.565 90.7145L177.635 90.665L181.248 120.487" fill="#0C27C2"/>
<path d="M162.808 35.655C162.914 35.1778 163.227 35.3533 163.52 35.5215C166.043 37.2324 170.702 37.8233 174.504 36.8739C177.789 36.1668 180.662 34.2457 183.76 32.8661C191.4 29.0438 199.089 30.6236 201.422 37.1532C202.544 40.1102 202.887 43.715 202.949 46.8426C202.949 47.3198 202.934 47.7697 202.899 48.2296C202.843 49.0801 202.655 49.5944 202.833 49.8194C203.526 50.3138 205.708 49.7526 207.148 49.1889C209.225 48.2939 211.472 46.6349 213.935 46.5978C216.332 46.4767 218.172 48.4027 218.919 50.5462C220.271 54.1906 219.77 58.7472 217.178 61.1974C214.895 63.3657 211.612 63.9368 208.552 64.2582C207.489 64.3966 206.192 64.1815 205.679 65.346C205.242 66.2411 205.003 67.2547 204.712 68.2313C204.48 69.1115 204.115 70.276 204.029 70.998C203.945 71.7001 204.233 71.663 204.801 71.6358C213.094 71.2353 235.238 67.3339 232.648 47.745C232.527 46.4816 232.35 45.5322 233.173 44.61C234.934 42.6642 237.78 39.3413 237.921 34.5597C237.992 31.6324 236.796 28.2056 234.84 26.245C231.852 23.3894 227.487 22.6254 223.499 23.1224C223.097 23.1372 222.663 23.0952 222.535 22.6847C222.374 22.2422 222.473 20.7637 222.431 19.7006C222.315 16.6496 221.881 13.4874 220.285 10.4661C218.914 7.94676 217.114 6.27541 215.001 4.88345C210.934 1.60752 203.538 -1.40634 193.309 0.697676C187.498 1.68416 182.088 3.35056 176.586 5.41502C170.285 7.74402 164.527 12.3551 161.592 18.6201C157.547 27.9559 159.138 35.8849 160.889 42.1796C161.496 43.4752 162.176 42.3502 162.361 41.3242C162.768 39.6355 162.536 37.262 162.805 35.6747L162.81 35.655H162.808Z" fill="#121212"/>
<path d="M163.868 59.9751C167.883 59.8703 171.039 55.959 170.916 51.2388C170.794 46.5186 167.44 42.777 163.424 42.8817C159.409 42.9864 156.254 46.8978 156.376 51.618C156.499 56.3382 159.853 60.0798 163.868 59.9751Z" stroke="#121212" stroke-miterlimit="10"/>
<path d="M184.438 60.8325C188.453 60.7278 191.609 56.8164 191.487 52.0962C191.364 47.376 188.01 43.6344 183.995 43.7391C179.98 43.8438 176.824 47.7552 176.946 52.4754C177.069 57.1956 180.423 60.9372 184.438 60.8325Z" stroke="#121212" stroke-miterlimit="10"/>
<path d="M170.912 51.245C170.912 51.245 173.879 49.0372 176.944 51.8878" stroke="#121212" stroke-miterlimit="10"/>
<path d="M191.479 52.788L204.724 49.6406" stroke="#121212" stroke-miterlimit="10"/>
<path d="M162.16 59.7881C162.16 59.7881 158.024 84.2698 176.029 84.0695C194.037 83.8693 195.403 88.2578 204.123 70.4491" stroke="#121212" stroke-miterlimit="10"/>
<path d="M213.55 53.5625C213.55 53.5625 208.268 53.743 206.529 59.788" stroke="#121212" stroke-miterlimit="10"/>
<path d="M176.945 84.0645L177.638 91.2097" stroke="#121212" stroke-miterlimit="10"/>
<path d="M215.858 93.2568L212.926 70.5107" stroke="#121212" stroke-miterlimit="10"/>
<path d="M170.912 126.008L217.361 101.168L215.857 94.2278C215.857 94.2278 226.19 92.821 230.804 99.0564C235.418 105.292 236.824 110.051 236.824 110.051C236.824 110.051 284.474 113.841 299.222 130.436C313.969 147.031 354.295 207.375 349.481 243.279C344.667 279.183 319.086 287.631 296.815 287.028C274.543 286.425 210.042 261.684 210.042 261.684C210.042 261.684 219.438 213.81 213.085 194.098C213.085 194.098 279.663 204.255 290.899 209.988" stroke="white" stroke-miterlimit="10"/>
<path d="M258.258 188.867C258.258 188.867 262.84 196.707 263.959 202.962" stroke="white" stroke-miterlimit="10"/>
<path d="M213.08 194.096C196.21 190.778 165.497 192.385 165.497 192.385V135.965H97.2812C115.237 116.856 156.902 113.303 156.902 113.303C160.513 93.457 176.565 90.7077 176.565 90.7077L177.635 90.6582L181.248 120.48" stroke="#07166E" stroke-miterlimit="10"/>
<path d="M165.636 135.891V136.041H165.783V192.675L165.64 192.681L165.393 192.69L165.237 192.696V192.386L165.239 192.385V136.438H48.7168V172.968H48.1699V135.891H165.636Z" fill="#121212" stroke="black" stroke-width="0.3"/>
<path d="M165.786 293.332H136.166V292.784H165.239V255.906L165.354 255.879C165.395 255.869 165.436 255.858 165.478 255.849C165.519 255.839 165.56 255.829 165.601 255.819L165.786 255.774V293.332Z" fill="#121212" stroke="black" stroke-width="0.3"/>
<path d="M131.046 239.857C131.393 237.444 133.253 234.979 136.069 233.147V230.116C133.223 231.192 130.377 232.294 127.926 233.298C118.834 237.017 115.995 232.02 115.968 231.968C113.499 224.865 120.434 219.873 122.402 218.627C118.298 219.099 115.66 218.58 114.555 217.084C113.485 215.633 114.291 213.83 114.325 213.756C114.37 213.581 114.429 213.385 114.491 213.19C116.806 206.112 126.545 201.31 136.069 198.232V181.716C136.069 176.947 132.197 173.065 127.44 173.065H48.5664V216.459C52.0338 203.632 63.7232 194.195 77.6148 194.195C94.2365 194.195 107.709 207.704 107.709 224.365C107.709 241.027 94.234 254.536 77.6148 254.536C63.7232 254.536 52.0338 245.099 48.5664 232.272V272.337H109.107V288.428H48.5664V292.93H136.069V245.205C134.723 245.133 133.231 244.743 132.138 243.591C131.213 242.614 130.836 241.321 131.046 239.852V239.857Z" fill="white"/>
<path d="M48.3192 288.432H46.2082V272.342H48.3192V231.305C47.7964 229.077 47.5201 226.756 47.5201 224.37C47.5201 221.984 47.7988 219.662 48.3192 217.435V173.067H19.2461V313.754H136.069V293.184H48.3192V288.435V288.432Z" fill="white"/>
<path d="M114.725 213.267C114.663 213.457 114.606 213.648 114.555 213.838C114.54 213.875 113.77 215.606 114.752 216.938C115.835 218.404 118.668 218.879 122.944 218.311L123.605 218.221L123.018 218.54C122.922 218.592 113.413 223.883 116.187 231.869C116.207 231.899 118.952 236.7 127.827 233.068C130.306 232.055 133.189 230.937 136.064 229.852V198.489C126.624 201.55 116.999 206.297 114.72 213.264L114.725 213.267Z" fill="white"/>
<path d="M131.29 239.891C131.091 241.281 131.446 242.505 132.316 243.424C133.355 244.522 134.778 244.896 136.07 244.965V233.443C133.389 235.226 131.621 237.585 131.29 239.891Z" fill="white"/>
<path d="M48.5669 216.459V173.065H48.3203V217.433C48.3968 217.106 48.4806 216.782 48.5669 216.459Z" fill="white"/>
<path d="M48.3203 272.339H48.5669V232.274C48.4806 231.953 48.3968 231.629 48.3203 231.3V272.337V272.339Z" fill="white"/>
<path d="M48.5669 288.433H48.3203V293.182H136.07V292.935H48.5669V288.433Z" fill="white"/>
<path d="M136.317 232.991V230.024C136.275 230.039 136.235 230.057 136.193 230.071V233.065C136.233 233.041 136.277 233.016 136.317 232.991Z" fill="black"/>
<path d="M136.193 245.215V292.935H136.317V245.22C136.275 245.22 136.235 245.22 136.193 245.217V245.215Z" fill="black"/>
<path d="M136.193 181.717V198.193C136.234 198.18 136.274 198.165 136.316 198.153V181.717C136.316 176.811 132.336 172.818 127.44 172.818H48.5664V172.942H127.44C132.274 172.942 136.193 176.871 136.193 181.717Z" fill="black"/>
<path d="M136.192 313.876H19.1233V172.942H48.3197V172.818H19V314H136.316V293.182H136.192V313.876Z" fill="black"/>
<path d="M48.5669 172.818H48.3203V172.942H48.5669V172.818Z" fill="black"/>
<path d="M136.317 292.935H136.193V293.182H136.317V292.935Z" fill="black"/>
<path d="M136.077 245.061C136.12 245.063 136.155 245.064 136.191 245.064H136.342V293.085H135.918V245.051L136.077 245.061Z" fill="black" stroke="#121212" stroke-width="0.3"/>
<path d="M48.4697 172.791V173.215H19.3965V313.603H135.919V293.031H136.342V314.025H18.9727V172.791H48.4697Z" fill="black" stroke="#121212" stroke-width="0.3"/>
<path d="M136.068 233.147C136.11 233.12 136.15 233.093 136.192 233.065V230.071C136.15 230.086 136.11 230.103 136.068 230.118V233.149V233.147Z" fill="black"/>
<path d="M127.44 172.791C132.357 172.791 136.343 176.788 136.343 181.716V198.304L136.235 198.336C136.217 198.341 136.199 198.348 136.179 198.354C136.159 198.361 136.135 198.369 136.111 198.376L135.919 198.433V181.716C135.919 177.029 132.114 173.215 127.44 173.215H48.416V172.791H127.44Z" fill="black" stroke="#121212" stroke-width="0.3"/>
<path d="M48.5669 172.941H48.3203V173.065H48.5669V172.941Z" fill="black"/>
<path d="M136.192 292.935H136.068V293.182H136.192V292.935Z" fill="black"/>
<path d="M77.6148 254.539C94.2365 254.539 107.709 241.029 107.709 224.368C107.709 207.706 94.234 194.197 77.6148 194.197C63.7232 194.197 52.0338 203.634 48.5664 216.461V232.277C52.0338 245.104 63.7232 254.541 77.6148 254.541V254.539Z" fill="#EBEBEB"/>
<path d="M47.5215 224.368C47.5215 226.754 47.8002 229.075 48.3205 231.303V217.433C47.7977 219.66 47.5215 221.982 47.5215 224.368Z" fill="#D9D9D9"/>
<path d="M48.3203 231.303C48.3968 231.629 48.4806 231.953 48.5669 232.277V216.461C48.4806 216.782 48.3968 217.106 48.3203 217.435V231.305V231.303Z" fill="#D9D9D9"/>
<path d="M109.107 272.34H48.5664V288.43H109.107V272.34Z" fill="#EBEBEB"/>
<path d="M162.067 235.609L161.278 236.188C161.214 236.235 158.185 238.47 154.91 241.259C153.271 242.655 151.572 244.188 150.152 245.654C148.819 247.032 147.743 248.341 147.19 249.415L147.087 249.627C146.421 251.065 146.052 252.885 146.113 254.604C146.174 256.319 146.662 257.907 147.679 258.924L147.68 258.925L147.697 258.941C149.371 260.596 152.318 260.538 156.306 258.618H156.307L156.958 258.33C158.203 257.802 161.171 256.639 165.359 255.626L165.544 255.581V256.145L165.43 256.172C159.946 257.504 156.593 259.085 156.541 259.11L156.542 259.111C153.94 260.364 151.967 260.751 150.475 260.657C149.165 260.575 148.232 260.122 147.575 259.571L147.311 259.33C146.171 258.203 145.647 256.467 145.577 254.653C145.507 252.837 145.891 250.917 146.595 249.396L146.792 249.007C147.299 248.079 148.13 247.025 149.134 245.932C150.284 244.679 151.67 243.363 153.082 242.11C155.399 240.054 157.79 238.163 159.324 236.983L139.452 244.971L139.441 244.976L139.396 244.831L139.44 244.975C139.396 244.988 137.997 245.412 136.312 245.369L136.166 245.366V244.821L136.32 244.825C137.891 244.866 139.211 244.472 139.268 244.455L161.923 235.349L162.067 235.609Z" fill="#121212" stroke="black" stroke-width="0.3"/>
<path d="M165.539 192.656L165.404 192.67C164.199 192.792 154.045 193.873 143.196 196.608L142.145 196.878C140.273 197.367 138.322 197.925 136.362 198.555L136.166 198.618V198.04L136.271 198.007C138.217 197.383 140.153 196.831 142.01 196.346L143.072 196.073C154.027 193.313 164.273 192.232 165.374 192.121L165.539 192.104V192.656Z" fill="#121212" stroke="black" stroke-width="0.3"/>
<path d="M151.382 224.252L151.486 224.475L151.544 224.599L151.425 224.668L136.979 233.049C136.781 233.164 136.588 233.284 136.396 233.405L136.166 233.55V232.906L136.236 232.861C136.39 232.764 136.545 232.67 136.705 232.577L148.586 225.685C145.733 226.705 141.067 228.389 136.369 230.162L136.166 230.238V229.653L136.264 229.617C143.729 226.8 151.082 224.214 151.195 224.174L151.324 224.128L151.382 224.252Z" fill="#121212" stroke="black" stroke-width="0.3"/>
<path d="M174.184 254.174C183.413 253.299 197.034 253.804 211.066 260.671L211.215 260.743L211.128 260.885L211.008 261.079L210.937 261.194L210.814 261.135C196.907 254.33 183.402 253.827 174.249 254.692L173.377 254.78C170.997 255.035 168.807 255.387 166.854 255.775L166.031 255.944L165.85 255.982V255.448L165.969 255.423C168.127 254.969 170.591 254.553 173.305 254.263L174.184 254.174Z" fill="#121212" stroke="black" stroke-width="0.3"/>
<path d="M165.389 255.772V256.027C165.47 256.007 165.554 255.987 165.635 255.968V255.713C165.554 255.733 165.47 255.752 165.389 255.772Z" fill="#07166E"/>
<path d="M165.509 192.508L165.487 192.261C165.487 192.261 165.447 192.266 165.391 192.271V192.52C165.462 192.513 165.504 192.508 165.511 192.508H165.509Z" fill="#07166E"/>
<path d="M136.224 198.601L136.119 198.634C131.405 200.161 126.652 202.108 122.796 204.539C119.057 206.896 116.18 209.696 114.982 212.992L114.872 213.312C114.811 213.497 114.755 213.689 114.704 213.877L114.698 213.893C114.691 213.911 114.501 214.337 114.432 214.919C114.362 215.502 114.416 216.225 114.877 216.849L114.978 216.975C115.504 217.595 116.404 218.026 117.679 218.239C119.036 218.467 120.797 218.444 122.929 218.161L123.59 218.072L123.682 218.353L123.095 218.672L123.094 218.671C122.999 218.724 120.647 220.047 118.644 222.329C116.622 224.633 114.976 227.889 116.327 231.802C116.341 231.825 116.382 231.892 116.453 231.988C116.543 232.11 116.682 232.28 116.875 232.473C117.262 232.858 117.868 233.337 118.746 233.703C120.499 234.434 123.363 234.733 127.774 232.929L129.705 232.15C131.698 231.357 133.858 230.525 136.016 229.711L136.219 229.634V230.219L136.121 230.256C133.987 231.062 131.856 231.884 129.889 232.667L127.982 233.437C123.408 235.307 120.382 234.995 118.487 234.185C116.6 233.378 115.86 232.088 115.834 232.037L115.829 232.027L115.825 232.017C114.569 228.404 115.708 225.329 117.398 223.012C118.838 221.038 120.684 219.605 121.81 218.837C120.02 219.007 118.521 218.978 117.323 218.742C116.075 218.497 115.139 218.026 114.547 217.317L114.434 217.173C113.87 216.407 113.803 215.551 113.877 214.888C113.948 214.253 114.149 213.781 114.184 213.702C114.228 213.527 114.285 213.335 114.348 213.143L114.381 213.039H114.389C115.587 209.498 118.612 206.537 122.501 204.084C126.43 201.605 131.259 199.631 136.027 198.089L136.224 198.025V198.601Z" fill="#121212" stroke="black" stroke-width="0.3"/>
<path d="M136.219 245.368L136.062 245.36C134.78 245.294 133.35 244.941 132.246 243.913L132.029 243.699C131.067 242.686 130.68 241.345 130.897 239.836L130.936 239.604C131.373 237.208 133.238 234.81 135.987 233.021L136.219 232.871V233.524L136.152 233.569C133.492 235.338 131.763 237.667 131.438 239.914C131.245 241.266 131.587 242.44 132.425 243.322L132.617 243.512C133.598 244.423 134.884 244.752 136.077 244.815L136.219 244.823V245.368Z" fill="#121212" stroke="black" stroke-width="0.3"/>
<path d="M136.193 198.192V198.451C136.235 198.439 136.275 198.424 136.317 198.412V198.152C136.275 198.165 136.235 198.18 136.193 198.192Z" fill="#07166E"/>
<path d="M136.193 230.071C136.235 230.056 136.275 230.039 136.317 230.024V229.76C136.275 229.775 136.235 229.792 136.193 229.807V230.071Z" fill="#07166E"/>
<path d="M136.193 245.214C136.235 245.214 136.275 245.217 136.317 245.217V244.972C136.275 244.972 136.235 244.972 136.193 244.97V245.214Z" fill="#07166E"/>
<path d="M136.193 233.065V233.362C136.235 233.335 136.275 233.308 136.317 233.28V232.991C136.277 233.016 136.233 233.041 136.193 233.065Z" fill="#07166E"/>
<path d="M136.192 198.452V198.192C136.15 198.205 136.11 198.22 136.068 198.232V198.492C136.11 198.479 136.15 198.464 136.192 198.452Z" fill="#07166E"/>
<path d="M136.068 244.965V245.21C136.11 245.21 136.15 245.215 136.192 245.215V244.97C136.15 244.97 136.11 244.965 136.068 244.963V244.965Z" fill="#07166E"/>
<path d="M136.068 233.444C136.11 233.417 136.15 233.389 136.192 233.362V233.065C136.15 233.093 136.11 233.12 136.068 233.147V233.444Z" fill="#07166E"/>
<path d="M136.068 230.116C136.11 230.101 136.15 230.084 136.192 230.069V229.805C136.15 229.82 136.11 229.837 136.068 229.852V230.116Z" fill="#07166E"/>
<path d="M126.676 217.027C126.676 217.027 138.915 210.592 145.736 209.988" stroke="#121212" stroke-width="0.7" stroke-miterlimit="10"/>
</g>
<path d="M0 314L369 314" stroke="#121212" stroke-opacity="0.3"/>
<defs>
<clipPath id="clip0_903_2019">
<rect width="331" height="314" fill="white" transform="translate(19)"/>
</clipPath>
</defs>
</svg>
