<svg width="369" height="327" viewBox="0 0 369 327" fill="none" xmlns="http://www.w3.org/2000/svg">
<path d="M0 326L369 326" stroke="#121212" stroke-opacity="0.3"/>
<path d="M246 39L255.5 24.5L267.5 30L246 39Z" fill="#EBEBEB"/>
<ellipse cx="284.5" cy="17.5" rx="39.5" ry="17.5" fill="#EBEBEB"/>
<g clip-path="url(#clip0_903_1979)">
<path d="M191.032 85.3738L190.002 106.471C206.191 105.804 212.307 94.5355 212.307 94.5355C221.33 78.7861 219.324 44.6173 202.684 23.3285C186.044 2.03969 162.784 20.2598 162.784 20.2598C162.784 20.2598 152.493 16.79 145.408 25.3316C138.322 33.8732 127.698 67.4416 131.974 83.6586C136.24 99.8362 143.236 101.404 157.005 104.657C157.037 104.664 157.069 104.672 157.104 104.679L161.547 72.4519" fill="#121212"/>
<path d="M174.812 42.8818H205.955C205.955 42.8818 217.518 78.2516 190.718 85.4594C190.718 85.4594 177 91.112 163.655 72.2816C163.631 72.2471 163.606 72.2127 163.582 72.1782C163.582 72.1782 144.268 76.182 146.939 57.5632C146.939 57.5632 149.278 49.5557 158.502 56.2959C158.502 56.2959 167.892 66.1048 174.81 42.8818H174.812Z" fill="white" stroke="#121212" stroke-miterlimit="10"/>
<path d="M153.762 61.7694C153.762 61.7694 159.208 61.0016 161.547 66.9741" stroke="#121212" stroke-miterlimit="10"/>
<path d="M254.607 283.28L222.99 113.872C217.825 111.431 192.343 111.431 190.233 111.434C190.285 111.818 190.346 112.199 190.42 112.576C190.783 114.453 191.495 116.252 192.185 117.992C192.744 119.402 193.321 120.859 193.715 122.36C194.366 124.663 194.248 126.386 193.348 127.624C192.276 129.1 190.122 129.858 186.571 130.008C185.999 130.038 185.425 130.053 184.853 130.053C174.064 130.053 163.649 124.882 156.714 115.999C155.605 114.763 155.393 113.324 155.497 111.712L122.786 113.073C123.166 114.315 125.517 122.98 123.949 142.187C122.392 161.283 116.536 195.019 97.4961 247.322L170.833 221.183C170.875 221.16 176.617 218.163 184.567 217.11C191.909 216.138 202.691 216.664 212.356 224.709C225.339 235.512 232.646 245.766 231.907 252.142C231.646 254.389 230.423 256.072 228.272 257.145L228.23 257.158C228.23 257.158 228.119 257.168 227.934 257.168C226.936 257.168 223.547 256.88 220.008 253.329C221.275 259.591 219.355 260.694 216.164 261.89C215.757 262.042 215.338 262.109 214.917 262.111C211.883 262.111 208.596 258.615 207.634 257.51C207.667 257.795 207.686 258.083 207.689 258.371C207.716 261.705 206.661 264.009 204.717 264.855C201.954 266.056 197.723 264.255 193.097 259.911C191.899 260.276 175.491 265.372 167.548 272.444C167.016 272.919 166.321 273.544 165.48 274.3C160.534 278.744 150.114 288.108 138.509 297.562C148.981 297.626 233.021 298.116 244.503 297.555C247.839 297.393 250.412 296.233 252.152 294.11C255.578 289.929 254.622 283.348 254.612 283.282L254.607 283.28Z" fill="#0C27C2"/>
<path d="M190.232 111.434C189.917 109.084 190.006 106.606 190.119 104.421C190.235 102.305 190.351 100.233 190.464 98.1828C190.708 93.8 190.94 89.6609 191.154 85.3814L190.908 85.3691C190.693 89.6486 190.462 93.7877 190.218 98.1705C190.104 100.22 189.988 102.292 189.873 104.409C189.752 106.7 189.663 109.308 190.03 111.769L190.124 111.437C190.146 111.437 190.186 111.437 190.232 111.437V111.434Z" fill="#121212"/>
<path d="M155.628 111.584H155.697L155.744 111.685C155.795 110.883 155.926 110.036 156.066 109.146C156.13 108.732 156.197 108.309 156.256 107.883C156.537 106.047 156.818 104.204 157.104 102.327L157.491 99.7845C157.89 97.1661 158.297 94.4764 158.706 91.7646C159.687 85.2704 160.7 78.5572 161.671 72.4691L161.427 72.4297C160.453 78.5178 159.44 85.2335 158.459 91.7276C158.05 94.4395 157.644 97.1292 157.244 99.7475L156.857 102.29C156.572 104.165 156.293 106.008 156.01 107.846C155.951 108.272 155.884 108.693 155.82 109.106C155.677 110.017 155.544 110.883 155.492 111.707L155.63 111.702L155.625 111.582L155.628 111.584Z" fill="#121212"/>
<path d="M156.712 115.997C163.647 124.88 174.062 130.05 184.851 130.05C185.423 130.05 185.997 130.036 186.569 130.006C190.12 129.856 192.274 129.101 193.346 127.622C194.245 126.381 194.366 124.659 193.713 122.358C193.319 120.857 192.742 119.4 192.183 117.99C191.493 116.25 190.78 114.449 190.418 112.573C190.344 112.197 190.283 111.816 190.231 111.432C190.186 111.432 190.147 111.432 190.122 111.432L190.029 111.764C190.071 112.052 190.12 112.337 190.174 112.62C190.541 114.52 191.258 116.329 191.951 118.081C192.505 119.484 193.082 120.933 193.472 122.422C194.102 124.649 193.994 126.303 193.141 127.476C192.116 128.889 190.024 129.615 186.554 129.76C185.985 129.79 185.415 129.804 184.848 129.804C174.135 129.804 163.79 124.669 156.899 115.839C155.839 114.655 155.637 113.258 155.741 111.685L155.694 111.579H155.625L155.63 111.702L155.492 111.707C155.388 113.319 155.603 114.759 156.709 115.994L156.712 115.997Z" fill="#121212"/>
<path d="M122.65 113.073C122.613 113.083 122.574 113.095 122.537 113.105C122.865 114.156 125.285 122.746 123.702 142.165C122.145 161.276 116.277 195.061 97.1727 247.482L97.084 247.728L157.727 226.112L157.759 225.996L97.3575 247.524C134.349 146.021 122.687 112.952 122.687 112.952L155.627 111.582L155.622 111.456L122.446 112.837L122.458 112.871C122.5 112.859 122.542 112.846 122.584 112.834L122.65 113.07V113.073Z" fill="#121212"/>
<path d="M97.3579 247.523L157.759 225.996L157.727 226.111L170.929 221.406C170.986 221.377 176.696 218.399 184.604 217.351C191.894 216.386 202.599 216.91 212.194 224.896C225.112 235.645 232.387 245.82 231.658 252.113C231.406 254.263 230.238 255.88 228.178 256.914C227.86 256.938 223.959 257.13 219.907 252.878C219.939 253.031 219.974 253.183 220.003 253.328C223.542 256.879 226.931 257.167 227.929 257.167C228.114 257.167 228.217 257.157 228.225 257.157L228.267 257.145C230.416 256.072 231.64 254.389 231.902 252.142C232.644 245.766 225.334 235.512 212.351 224.709C202.686 216.664 191.904 216.137 184.562 217.11C176.612 218.165 170.87 221.16 170.828 221.182L97.491 247.321C116.531 195.016 122.389 161.283 123.944 142.187C125.509 122.98 123.161 114.313 122.781 113.072L155.63 111.707L155.625 111.586L122.685 112.957C122.685 112.957 134.347 146.023 97.3555 247.528L97.3579 247.523Z" fill="#121212"/>
<path d="M207.061 236.895L206.992 237.131C207.081 237.155 215.852 239.764 218.738 249.393C221.638 259.069 219.82 260.253 216.071 261.656C215.699 261.793 215.317 261.857 214.925 261.857C211.618 261.857 207.84 257.384 207.561 257.049C207.586 257.201 207.608 257.354 207.628 257.507C208.589 258.609 211.877 262.108 214.91 262.108C215.334 262.108 215.753 262.04 216.157 261.887C219.351 260.691 221.269 259.591 220.002 253.326C219.903 253.227 219.807 253.129 219.709 253.025L219.886 252.856C219.886 252.856 219.898 252.868 219.903 252.873C219.677 251.829 219.371 250.656 218.969 249.319C216.044 239.557 207.145 236.917 207.056 236.89L207.061 236.895Z" fill="#121212"/>
<path d="M219.713 253.029C219.811 253.132 219.908 253.23 220.006 253.329C219.977 253.184 219.942 253.031 219.91 252.879C219.905 252.871 219.898 252.866 219.893 252.861L219.715 253.031L219.713 253.029Z" fill="#121212"/>
<path d="M122.595 112.82L122.639 112.943C122.641 112.949 122.642 112.953 122.643 112.954C122.645 112.96 122.648 112.968 122.651 112.978C122.658 112.997 122.667 113.024 122.678 113.059L122.726 113.207L122.575 113.249C113.474 115.8 103.214 122.416 92.832 132.439L91.8271 133.42C81.4821 143.62 71.2447 156.948 62.2227 171.965L62.2217 171.964C42.5356 204.736 31.3039 240.122 31.3975 269.046L31.418 270.988C31.7875 290.892 36.8845 305.502 46.5449 314.472L47.1963 315.062C60.9679 327.254 80.1343 325.929 91.707 325.124L93.0596 325.031L93.0703 325.03C97.0402 324.761 102.762 322.347 110.218 317.78C117.672 313.214 126.839 306.508 137.688 297.685L137.73 297.65L137.785 297.651C137.899 297.654 138.038 297.653 138.209 297.653H138.631L138.304 297.92C136.518 299.371 134.706 300.825 132.884 302.262L131.058 303.692C122.051 310.704 114.357 316.053 108.021 319.708C101.889 323.246 97.012 325.209 93.4414 325.549L93.0996 325.576L91.7471 325.67C88.6054 325.886 84.8226 326.15 80.6963 326.15C77.5077 326.15 74.1135 325.992 70.6445 325.537L69.9492 325.442C60.5454 324.102 52.7411 320.724 46.7471 315.394L46.1729 314.871C36.2204 305.629 31.0815 290.533 30.8574 270.027L30.8506 269.047C30.8037 254.11 33.7233 237.584 39.5186 219.923L40.0244 218.4C45.3315 202.658 52.8262 186.538 61.751 171.682L62.6025 170.275C71.4353 155.798 81.385 142.945 91.4414 133.029L92.4512 132.045C102.876 121.98 113.21 115.308 122.413 112.727L122.547 112.689L122.595 112.82Z" fill="#121212" stroke="black" stroke-width="0.3"/>
<path d="M207.548 257.029C207.548 257.029 207.556 257.037 207.566 257.049C206.299 249.607 195.379 243.182 195.261 243.113L195.137 243.327C195.261 243.399 207.376 250.525 207.44 258.371C207.467 261.602 206.464 263.824 204.616 264.628C201.939 265.795 197.782 263.991 193.213 259.682L193.161 259.633L193.092 259.653C192.919 259.704 175.626 264.916 167.38 272.257C166.848 272.732 166.153 273.357 165.31 274.113C155.302 283.107 146.221 290.923 138.078 297.557C138.204 297.557 138.344 297.557 138.504 297.56C150.11 288.102 160.529 278.741 165.475 274.297C166.316 273.542 167.011 272.917 167.543 272.442C175.486 265.372 191.894 260.273 193.092 259.909C197.715 264.252 201.947 266.053 204.712 264.852C206.656 264.006 207.711 261.703 207.684 258.368C207.684 258.08 207.662 257.792 207.63 257.507C207.477 257.332 207.381 257.214 207.356 257.184L207.548 257.029Z" fill="#121212"/>
<path d="M122.538 113.105C122.575 113.095 122.615 113.083 122.652 113.073L122.585 112.836C122.543 112.848 122.501 112.861 122.459 112.873L122.503 112.996C122.503 112.996 122.518 113.038 122.541 113.107L122.538 113.105Z" fill="#121212"/>
<path d="M207.548 257.029L207.355 257.184C207.38 257.214 207.476 257.332 207.629 257.507C207.612 257.354 207.59 257.202 207.562 257.049C207.553 257.037 207.548 257.032 207.545 257.029H207.548Z" fill="#121212"/>
<path d="M137.541 297.552C137.487 297.552 137.452 297.552 137.438 297.552V297.798C137.465 297.798 137.58 297.798 137.778 297.798C137.827 297.756 137.879 297.717 137.928 297.675C137.649 297.675 137.507 297.673 137.507 297.673L137.541 297.55V297.552Z" fill="#121212"/>
<path d="M254.852 283.238L223.223 113.764L223.211 113.702L223.156 113.675C217.878 111.089 191.225 111.18 190.091 111.185V111.431C190.091 111.431 190.108 111.431 190.125 111.431L190.16 111.308C190.16 111.308 217.858 111.183 223.171 113.786L254.8 283.26C254.8 283.26 256.904 297.075 244.575 297.675C232.93 298.241 147.784 297.739 138.357 297.68C138.308 297.722 138.256 297.761 138.207 297.803C144.072 297.84 182.091 298.064 211.295 298.064C227.159 298.064 240.427 297.998 244.511 297.798C247.919 297.634 250.554 296.442 252.34 294.262C255.835 289.998 254.864 283.309 254.852 283.238Z" fill="#121212"/>
<path d="M222.99 113.872L254.606 283.279C254.616 283.345 255.572 289.926 252.147 294.107C250.407 296.23 247.834 297.389 244.497 297.552C233.015 298.11 148.975 297.621 138.504 297.559C138.455 297.599 138.405 297.64 138.354 297.68C147.78 297.736 232.924 298.241 244.571 297.675C256.901 297.074 254.796 283.259 254.796 283.259L223.167 113.786C217.854 111.182 190.156 111.308 190.156 111.308L190.122 111.431C191.231 111.431 217.711 111.377 222.987 113.869L222.99 113.872Z" fill="#121212"/>
<path d="M137.54 297.553L137.506 297.676C137.506 297.676 137.651 297.676 137.927 297.678C137.977 297.639 138.026 297.597 138.078 297.558C137.826 297.558 137.646 297.555 137.54 297.555V297.553Z" fill="#121212"/>
<path d="M137.93 297.678C137.88 297.72 137.829 297.759 137.779 297.801C137.893 297.801 138.036 297.801 138.206 297.803C138.255 297.761 138.307 297.722 138.356 297.68C138.191 297.68 138.048 297.68 137.93 297.678Z" fill="#121212"/>
<path d="M138.078 297.558C138.029 297.599 137.979 297.639 137.928 297.678C138.046 297.678 138.189 297.678 138.354 297.681C138.403 297.641 138.453 297.599 138.504 297.56C138.344 297.56 138.204 297.56 138.078 297.558Z" fill="#121212"/>
<path d="M223.688 116.931C245.991 130.545 264.203 163.791 274.785 189.927C275.695 192.154 276.732 194.802 277.538 196.764C277.669 197.071 277.75 197.248 277.782 197.285C273.708 183.45 262.579 147.958 258.737 135.146C258.207 133.178 258.113 132.223 257.795 129.688C256.943 123.096 256.519 111.736 258.739 104.204C259.641 100.845 260.918 97.8399 262.421 94.786C267.609 84.8122 274.953 69.1071 280.833 64.3577C282.696 62.763 285.328 62.0346 287.307 63.7006C290.646 66.0876 291.107 73.3964 289.074 79.8782C286.893 87.8932 282.602 95.0051 277.94 101.743" stroke="#121212" stroke-miterlimit="10"/>
<path d="M289.998 77.7575C291.405 74.5683 293.061 71.0542 294.888 67.6312C296.731 64.4296 300.349 56.828 304.504 57.2365C306.884 57.4211 308.644 60.3421 308.748 62.9309C309.1 68.1922 305.921 72.8186 302.781 76.7806C300.253 79.8862 297.386 83.0434 294.476 85.2557" stroke="#121212" stroke-miterlimit="10"/>
<path d="M308.9 63.4872C310.113 60.859 312.119 58.344 314.948 57.1849C317.033 56.2449 319.67 56.4442 320.986 58.3637C323.724 62.333 321.094 70.5695 316.284 77.4845C312.908 82.571 308.511 87.2073 304.1 91.1175" stroke="#121212" stroke-miterlimit="10"/>
<path d="M320.692 68.7404C321.572 67.8053 322.469 66.848 323.697 66.063C325.528 64.8941 328.123 63.9442 330.242 64.2912C338.939 66.0679 326.725 86.4585 319.167 95.1035C317.629 96.9393 316.027 98.7332 314.428 100.522" stroke="#121212" stroke-miterlimit="10"/>
<path d="M320.345 93.9203C323.645 91.3979 328.179 88.3883 332.221 88.0881C338.727 88.0438 333.303 96.4426 331.445 99.0856C329.52 101.861 327.79 103.968 325.841 106.279C322.605 110.071 319.835 113.322 315.539 117.345C309.758 122.624 302.017 126.965 298.34 133.803" stroke="#121212" stroke-miterlimit="10"/>
<path d="M242.098 297.941L251.12 325.877" stroke="#121212" stroke-miterlimit="10"/>
<path d="M171.271 142.202C171.746 142.202 171.746 141.464 171.271 141.464C170.795 141.464 170.795 142.202 171.271 142.202Z" fill="#0C27C2"/>
</g>
<path d="M304.933 126.031C319.998 152.84 337.252 187.161 336.87 218.714C336.606 242.296 322.852 261.929 299.023 266.329C282.578 269.476 265.758 264.013 250.082 258.361" stroke="#121212" stroke-miterlimit="10"/>
<defs>
<clipPath id="clip0_903_1979">
<rect width="306" height="313" fill="white" transform="translate(31 13)"/>
</clipPath>
</defs>
</svg>
