<svg width="222" height="38" viewBox="0 0 222 38" fill="none" xmlns="http://www.w3.org/2000/svg">
<mask id="path-1-outside-1_1361_460" maskUnits="userSpaceOnUse" x="1.57812" y="5.16016" width="219" height="27" fill="black">
<rect fill="white" x="1.57812" y="5.16016" width="219" height="27"/>
<path d="M2.90625 30.1602V7.25391H10.3281C13.1406 7.25391 14.974 7.36849 15.8281 7.59766C17.1406 7.94141 18.2396 8.69141 19.125 9.84766C20.0104 10.9935 20.4531 12.4779 20.4531 14.3008C20.4531 15.707 20.1979 16.8893 19.6875 17.8477C19.1771 18.806 18.526 19.5612 17.7344 20.1133C16.9531 20.6549 16.1562 21.0143 15.3438 21.1914C14.2396 21.4102 12.6406 21.5195 10.5469 21.5195H7.53125V30.1602H2.90625ZM7.53125 11.1289V17.6289H10.0625C11.8854 17.6289 13.1042 17.5091 13.7188 17.2695C14.3333 17.0299 14.8125 16.6549 15.1562 16.1445C15.5104 15.6341 15.6875 15.0404 15.6875 14.3633C15.6875 13.5299 15.4427 12.8424 14.9531 12.3008C14.4635 11.7591 13.8438 11.4206 13.0938 11.2852C12.5417 11.181 11.4323 11.1289 9.76562 11.1289H7.53125ZM27.4725 18.8477C27.4725 16.5143 27.8215 14.556 28.5194 12.9727C29.0402 11.806 29.7485 10.7591 30.6444 9.83203C31.5506 8.90495 32.5402 8.21745 33.6131 7.76953C35.0402 7.16536 36.686 6.86328 38.5506 6.86328C41.9256 6.86328 44.6235 7.91016 46.6444 10.0039C48.6756 12.0977 49.6912 15.0091 49.6912 18.7383C49.6912 22.4362 48.686 25.332 46.6756 27.4258C44.6652 29.5091 41.9777 30.5508 38.6131 30.5508C35.2069 30.5508 32.4985 29.5143 30.4881 27.4414C28.4777 25.3581 27.4725 22.4935 27.4725 18.8477ZM32.2381 18.6914C32.2381 21.2852 32.8371 23.2539 34.035 24.5977C35.2329 25.931 36.7537 26.5977 38.5975 26.5977C40.4412 26.5977 41.9517 25.9362 43.1287 24.6133C44.3162 23.2799 44.91 21.2852 44.91 18.6289C44.91 16.0039 44.3319 14.0456 43.1756 12.7539C42.0298 11.4622 40.5037 10.8164 38.5975 10.8164C36.6912 10.8164 35.1548 11.4727 33.9881 12.7852C32.8215 14.0872 32.2381 16.056 32.2381 18.6914ZM57.4919 30.1602V7.25391H67.2262C69.6742 7.25391 71.4502 7.46224 72.5544 7.87891C73.669 8.28516 74.5596 9.01432 75.2262 10.0664C75.8929 11.1185 76.2262 12.3216 76.2262 13.6758C76.2262 15.3945 75.721 16.8164 74.7106 17.9414C73.7002 19.056 72.1898 19.7591 70.1794 20.0508C71.1794 20.6341 72.0023 21.2747 72.6481 21.9727C73.3044 22.6706 74.1846 23.9102 75.2887 25.6914L78.0856 30.1602H72.5544L69.2106 25.1758C68.0231 23.3945 67.2106 22.2747 66.7731 21.8164C66.3356 21.3477 65.8721 21.0299 65.3825 20.8633C64.8929 20.6862 64.1169 20.5977 63.0544 20.5977H62.1169V30.1602H57.4919ZM62.1169 16.9414H65.5387C67.7575 16.9414 69.1429 16.8477 69.695 16.6602C70.2471 16.4727 70.6794 16.1497 70.9919 15.6914C71.3044 15.2331 71.4606 14.6602 71.4606 13.9727C71.4606 13.2018 71.2523 12.582 70.8356 12.1133C70.4294 11.6341 69.8512 11.332 69.1012 11.207C68.7262 11.1549 67.6012 11.1289 65.7262 11.1289H62.1169V16.9414ZM89.9175 30.1602V11.1289H83.1206V7.25391H101.324V11.1289H94.5425V30.1602H89.9175ZM108.515 30.1602V7.25391H124.218V11.1289H113.14V16.5508H122.702V20.4258H113.14V30.1602H108.515ZM131.269 18.8477C131.269 16.5143 131.618 14.556 132.316 12.9727C132.836 11.806 133.545 10.7591 134.441 9.83203C135.347 8.90495 136.336 8.21745 137.409 7.76953C138.836 7.16536 140.482 6.86328 142.347 6.86328C145.722 6.86328 148.42 7.91016 150.441 10.0039C152.472 12.0977 153.488 15.0091 153.488 18.7383C153.488 22.4362 152.482 25.332 150.472 27.4258C148.461 29.5091 145.774 30.5508 142.409 30.5508C139.003 30.5508 136.295 29.5143 134.284 27.4414C132.274 25.3581 131.269 22.4935 131.269 18.8477ZM136.034 18.6914C136.034 21.2852 136.633 23.2539 137.831 24.5977C139.029 25.931 140.55 26.5977 142.394 26.5977C144.238 26.5977 145.748 25.9362 146.925 24.6133C148.113 23.2799 148.706 21.2852 148.706 18.6289C148.706 16.0039 148.128 14.0456 146.972 12.7539C145.826 11.4622 144.3 10.8164 142.394 10.8164C140.488 10.8164 138.951 11.4727 137.784 12.7852C136.618 14.0872 136.034 16.056 136.034 18.6914ZM161.397 30.1602V7.44141H166.022V26.3008H177.522V30.1602H161.397ZM184.854 30.1602V7.25391H189.479V30.1602H184.854ZM197.124 18.8477C197.124 16.5143 197.473 14.556 198.171 12.9727C198.691 11.806 199.4 10.7591 200.296 9.83203C201.202 8.90495 202.191 8.21745 203.264 7.76953C204.691 7.16536 206.337 6.86328 208.202 6.86328C211.577 6.86328 214.275 7.91016 216.296 10.0039C218.327 12.0977 219.342 15.0091 219.342 18.7383C219.342 22.4362 218.337 25.332 216.327 27.4258C214.316 29.5091 211.629 30.5508 208.264 30.5508C204.858 30.5508 202.15 29.5143 200.139 27.4414C198.129 25.3581 197.124 22.4935 197.124 18.8477ZM201.889 18.6914C201.889 21.2852 202.488 23.2539 203.686 24.5977C204.884 25.931 206.405 26.5977 208.249 26.5977C210.092 26.5977 211.603 25.9362 212.78 24.6133C213.967 23.2799 214.561 21.2852 214.561 18.6289C214.561 16.0039 213.983 14.0456 212.827 12.7539C211.681 11.4622 210.155 10.8164 208.249 10.8164C206.342 10.8164 204.806 11.4727 203.639 12.7852C202.473 14.0872 201.889 16.056 201.889 18.6914Z"/>
</mask>
<path d="M2.90625 30.1602V7.25391H10.3281C13.1406 7.25391 14.974 7.36849 15.8281 7.59766C17.1406 7.94141 18.2396 8.69141 19.125 9.84766C20.0104 10.9935 20.4531 12.4779 20.4531 14.3008C20.4531 15.707 20.1979 16.8893 19.6875 17.8477C19.1771 18.806 18.526 19.5612 17.7344 20.1133C16.9531 20.6549 16.1562 21.0143 15.3438 21.1914C14.2396 21.4102 12.6406 21.5195 10.5469 21.5195H7.53125V30.1602H2.90625ZM7.53125 11.1289V17.6289H10.0625C11.8854 17.6289 13.1042 17.5091 13.7188 17.2695C14.3333 17.0299 14.8125 16.6549 15.1562 16.1445C15.5104 15.6341 15.6875 15.0404 15.6875 14.3633C15.6875 13.5299 15.4427 12.8424 14.9531 12.3008C14.4635 11.7591 13.8438 11.4206 13.0938 11.2852C12.5417 11.181 11.4323 11.1289 9.76562 11.1289H7.53125ZM27.4725 18.8477C27.4725 16.5143 27.8215 14.556 28.5194 12.9727C29.0402 11.806 29.7485 10.7591 30.6444 9.83203C31.5506 8.90495 32.5402 8.21745 33.6131 7.76953C35.0402 7.16536 36.686 6.86328 38.5506 6.86328C41.9256 6.86328 44.6235 7.91016 46.6444 10.0039C48.6756 12.0977 49.6912 15.0091 49.6912 18.7383C49.6912 22.4362 48.686 25.332 46.6756 27.4258C44.6652 29.5091 41.9777 30.5508 38.6131 30.5508C35.2069 30.5508 32.4985 29.5143 30.4881 27.4414C28.4777 25.3581 27.4725 22.4935 27.4725 18.8477ZM32.2381 18.6914C32.2381 21.2852 32.8371 23.2539 34.035 24.5977C35.2329 25.931 36.7537 26.5977 38.5975 26.5977C40.4412 26.5977 41.9517 25.9362 43.1287 24.6133C44.3162 23.2799 44.91 21.2852 44.91 18.6289C44.91 16.0039 44.3319 14.0456 43.1756 12.7539C42.0298 11.4622 40.5037 10.8164 38.5975 10.8164C36.6912 10.8164 35.1548 11.4727 33.9881 12.7852C32.8215 14.0872 32.2381 16.056 32.2381 18.6914ZM57.4919 30.1602V7.25391H67.2262C69.6742 7.25391 71.4502 7.46224 72.5544 7.87891C73.669 8.28516 74.5596 9.01432 75.2262 10.0664C75.8929 11.1185 76.2262 12.3216 76.2262 13.6758C76.2262 15.3945 75.721 16.8164 74.7106 17.9414C73.7002 19.056 72.1898 19.7591 70.1794 20.0508C71.1794 20.6341 72.0023 21.2747 72.6481 21.9727C73.3044 22.6706 74.1846 23.9102 75.2887 25.6914L78.0856 30.1602H72.5544L69.2106 25.1758C68.0231 23.3945 67.2106 22.2747 66.7731 21.8164C66.3356 21.3477 65.8721 21.0299 65.3825 20.8633C64.8929 20.6862 64.1169 20.5977 63.0544 20.5977H62.1169V30.1602H57.4919ZM62.1169 16.9414H65.5387C67.7575 16.9414 69.1429 16.8477 69.695 16.6602C70.2471 16.4727 70.6794 16.1497 70.9919 15.6914C71.3044 15.2331 71.4606 14.6602 71.4606 13.9727C71.4606 13.2018 71.2523 12.582 70.8356 12.1133C70.4294 11.6341 69.8512 11.332 69.1012 11.207C68.7262 11.1549 67.6012 11.1289 65.7262 11.1289H62.1169V16.9414ZM89.9175 30.1602V11.1289H83.1206V7.25391H101.324V11.1289H94.5425V30.1602H89.9175ZM108.515 30.1602V7.25391H124.218V11.1289H113.14V16.5508H122.702V20.4258H113.14V30.1602H108.515ZM131.269 18.8477C131.269 16.5143 131.618 14.556 132.316 12.9727C132.836 11.806 133.545 10.7591 134.441 9.83203C135.347 8.90495 136.336 8.21745 137.409 7.76953C138.836 7.16536 140.482 6.86328 142.347 6.86328C145.722 6.86328 148.42 7.91016 150.441 10.0039C152.472 12.0977 153.488 15.0091 153.488 18.7383C153.488 22.4362 152.482 25.332 150.472 27.4258C148.461 29.5091 145.774 30.5508 142.409 30.5508C139.003 30.5508 136.295 29.5143 134.284 27.4414C132.274 25.3581 131.269 22.4935 131.269 18.8477ZM136.034 18.6914C136.034 21.2852 136.633 23.2539 137.831 24.5977C139.029 25.931 140.55 26.5977 142.394 26.5977C144.238 26.5977 145.748 25.9362 146.925 24.6133C148.113 23.2799 148.706 21.2852 148.706 18.6289C148.706 16.0039 148.128 14.0456 146.972 12.7539C145.826 11.4622 144.3 10.8164 142.394 10.8164C140.488 10.8164 138.951 11.4727 137.784 12.7852C136.618 14.0872 136.034 16.056 136.034 18.6914ZM161.397 30.1602V7.44141H166.022V26.3008H177.522V30.1602H161.397ZM184.854 30.1602V7.25391H189.479V30.1602H184.854ZM197.124 18.8477C197.124 16.5143 197.473 14.556 198.171 12.9727C198.691 11.806 199.4 10.7591 200.296 9.83203C201.202 8.90495 202.191 8.21745 203.264 7.76953C204.691 7.16536 206.337 6.86328 208.202 6.86328C211.577 6.86328 214.275 7.91016 216.296 10.0039C218.327 12.0977 219.342 15.0091 219.342 18.7383C219.342 22.4362 218.337 25.332 216.327 27.4258C214.316 29.5091 211.629 30.5508 208.264 30.5508C204.858 30.5508 202.15 29.5143 200.139 27.4414C198.129 25.3581 197.124 22.4935 197.124 18.8477ZM201.889 18.6914C201.889 21.2852 202.488 23.2539 203.686 24.5977C204.884 25.931 206.405 26.5977 208.249 26.5977C210.092 26.5977 211.603 25.9362 212.78 24.6133C213.967 23.2799 214.561 21.2852 214.561 18.6289C214.561 16.0039 213.983 14.0456 212.827 12.7539C211.681 11.4622 210.155 10.8164 208.249 10.8164C206.342 10.8164 204.806 11.4727 203.639 12.7852C202.473 14.0872 201.889 16.056 201.889 18.6914Z" fill="#121212"/>
<path d="M2.90625 30.1602H1.90625V31.1602H2.90625V30.1602ZM2.90625 7.25391V6.25391H1.90625V7.25391H2.90625ZM15.8281 7.59766L15.569 8.56352L15.5748 8.56503L15.8281 7.59766ZM19.125 9.84766L18.331 10.4556L18.3337 10.4591L19.125 9.84766ZM17.7344 20.1133L18.3042 20.9351L18.3064 20.9335L17.7344 20.1133ZM15.3438 21.1914L15.5381 22.1723L15.5474 22.1705L15.5567 22.1685L15.3438 21.1914ZM7.53125 21.5195V20.5195H6.53125V21.5195H7.53125ZM7.53125 30.1602V31.1602H8.53125V30.1602H7.53125ZM7.53125 11.1289V10.1289H6.53125V11.1289H7.53125ZM7.53125 17.6289H6.53125V18.6289H7.53125V17.6289ZM15.1562 16.1445L14.3346 15.5744L14.3268 15.5859L15.1562 16.1445ZM13.0938 11.2852L12.9083 12.2678L12.9161 12.2692L13.0938 11.2852ZM2.90625 30.1602H3.90625V7.25391H2.90625H1.90625V30.1602H2.90625ZM2.90625 7.25391V8.25391H10.3281V7.25391V6.25391H2.90625V7.25391ZM10.3281 7.25391V8.25391C13.1694 8.25391 14.8652 8.37468 15.569 8.5635L15.8281 7.59766L16.0873 6.63181C15.0827 6.3623 13.1119 6.25391 10.3281 6.25391V7.25391ZM15.8281 7.59766L15.5748 8.56503C16.6559 8.84817 17.5703 9.46214 18.331 10.4556L19.125 9.84766L19.919 9.23968C18.9089 7.92068 17.6254 7.03464 16.0815 6.63028L15.8281 7.59766ZM19.125 9.84766L18.3337 10.4591C19.0521 11.3887 19.4531 12.6409 19.4531 14.3008H20.4531H21.4531C21.4531 12.3148 20.9688 10.5982 19.9163 9.23621L19.125 9.84766ZM20.4531 14.3008H19.4531C19.4531 15.59 19.2188 16.6004 18.8049 17.3776L19.6875 17.8477L20.5701 18.3177C21.177 17.1783 21.4531 15.824 21.4531 14.3008H20.4531ZM19.6875 17.8477L18.8049 17.3776C18.3594 18.2139 17.8088 18.8422 17.1624 19.293L17.7344 20.1133L18.3064 20.9335C19.2433 20.2802 19.9947 19.3981 20.5701 18.3177L19.6875 17.8477ZM17.7344 20.1133L17.1646 19.2915C16.4757 19.7691 15.7983 20.0689 15.1308 20.2143L15.3438 21.1914L15.5567 22.1685C16.5142 21.9598 17.4306 21.5408 18.3042 20.9351L17.7344 20.1133ZM15.3438 21.1914L15.1494 20.2105C14.1422 20.41 12.6208 20.5195 10.5469 20.5195V21.5195V22.5195C12.6604 22.5195 14.337 22.4103 15.5381 22.1723L15.3438 21.1914ZM10.5469 21.5195V20.5195H7.53125V21.5195V22.5195H10.5469V21.5195ZM7.53125 21.5195H6.53125V30.1602H7.53125H8.53125V21.5195H7.53125ZM7.53125 30.1602V29.1602H2.90625V30.1602V31.1602H7.53125V30.1602ZM7.53125 11.1289H6.53125V17.6289H7.53125H8.53125V11.1289H7.53125ZM7.53125 17.6289V18.6289H10.0625V17.6289V16.6289H7.53125V17.6289ZM10.0625 17.6289V18.6289C10.9925 18.6289 11.7882 18.5985 12.4416 18.5343C13.0783 18.4717 13.6455 18.3714 14.082 18.2012L13.7188 17.2695L13.3555 16.3378C13.1774 16.4073 12.8279 16.4867 12.2459 16.5439C11.6806 16.5994 10.9554 16.6289 10.0625 16.6289V17.6289ZM13.7188 17.2695L14.082 18.2012C14.8719 17.8933 15.5198 17.3949 15.9857 16.7031L15.1562 16.1445L14.3268 15.5859C14.1052 15.915 13.7947 16.1666 13.3555 16.3378L13.7188 17.2695ZM15.1562 16.1445L15.9778 16.7146C16.4587 16.0217 16.6875 15.2249 16.6875 14.3633H15.6875H14.6875C14.6875 14.8558 14.5622 15.2466 14.3347 15.5744L15.1562 16.1445ZM15.6875 14.3633H16.6875C16.6875 13.3197 16.3743 12.3818 15.695 11.6302L14.9531 12.3008L14.2113 12.9713C14.5112 13.3031 14.6875 13.7402 14.6875 14.3633H15.6875ZM14.9531 12.3008L15.695 11.6302C15.0503 10.917 14.2287 10.4739 13.2714 10.3011L13.0938 11.2852L12.9161 12.2692C13.4588 12.3672 13.8767 12.6012 14.2113 12.9713L14.9531 12.3008ZM13.0938 11.2852L13.2792 10.3025C12.6201 10.1781 11.4171 10.1289 9.76562 10.1289V11.1289V12.1289C11.4475 12.1289 12.4632 12.1838 12.9083 12.2678L13.0938 11.2852ZM9.76562 11.1289V10.1289H7.53125V11.1289V12.1289H9.76562V11.1289ZM28.5194 12.9727L27.6062 12.565L27.6043 12.5693L28.5194 12.9727ZM30.6444 9.83203L29.9293 9.13299L29.9253 9.13715L30.6444 9.83203ZM33.6131 7.76953L33.9984 8.69235L34.003 8.69041L33.6131 7.76953ZM46.6444 10.0039L45.9248 10.6984L45.9266 10.7002L46.6444 10.0039ZM46.6756 27.4258L47.3952 28.1202L47.3969 28.1184L46.6756 27.4258ZM30.4881 27.4414L29.7685 28.1358L29.7703 28.1376L30.4881 27.4414ZM34.035 24.5977L33.2885 25.2631L33.2911 25.266L34.035 24.5977ZM43.1287 24.6133L42.382 23.9482L42.3817 23.9486L43.1287 24.6133ZM43.1756 12.7539L42.4275 13.4175L42.4305 13.4209L43.1756 12.7539ZM33.9881 12.7852L34.7329 13.4525L34.7355 13.4495L33.9881 12.7852ZM27.4725 18.8477H28.4725C28.4725 16.6075 28.8084 14.7962 29.4344 13.376L28.5194 12.9727L27.6043 12.5693C26.8345 14.3158 26.4725 16.4212 26.4725 18.8477H27.4725ZM28.5194 12.9727L29.4325 13.3803C29.9055 12.3209 30.5478 11.371 31.3635 10.5269L30.6444 9.83203L29.9253 9.13715C28.9493 10.1472 28.175 11.2911 27.6062 12.565L28.5194 12.9727ZM30.6444 9.83203L31.3595 10.5311C32.1827 9.68889 33.0628 9.08291 33.9984 8.69234L33.6131 7.76953L33.2279 6.84672C32.0176 7.35198 30.9185 8.12101 29.9293 9.133L30.6444 9.83203ZM33.6131 7.76953L34.003 8.69041C35.2844 8.14793 36.7933 7.86328 38.5506 7.86328V6.86328V5.86328C36.5787 5.86328 34.7961 6.1828 33.2233 6.84866L33.6131 7.76953ZM38.5506 6.86328V7.86328C41.7014 7.86328 44.1229 8.8314 45.9249 10.6984L46.6444 10.0039L47.3639 9.30944C45.1242 6.98891 42.1498 5.86328 38.5506 5.86328V6.86328ZM46.6444 10.0039L45.9266 10.7002C47.7303 12.5594 48.6912 15.1936 48.6912 18.7383H49.6912H50.6912C50.6912 14.8247 49.6209 11.6359 47.3621 9.30759L46.6444 10.0039ZM49.6912 18.7383H48.6912C48.6912 22.2518 47.7406 24.8728 45.9543 26.7332L46.6756 27.4258L47.3969 28.1184C49.6315 25.7912 50.6912 22.6206 50.6912 18.7383H49.6912ZM46.6756 27.4258L45.956 26.7314C44.1649 28.5875 41.7542 29.5508 38.6131 29.5508V30.5508V31.5508C42.2013 31.5508 45.1655 30.4307 47.3952 28.1202L46.6756 27.4258ZM38.6131 30.5508V29.5508C35.4249 29.5508 32.9944 28.5892 31.206 26.7452L30.4881 27.4414L29.7703 28.1376C32.0027 30.4394 34.9889 31.5508 38.6131 31.5508V30.5508ZM30.4881 27.4414L31.2077 26.747C29.4208 24.8952 28.4725 22.3048 28.4725 18.8477H27.4725H26.4725C26.4725 22.6822 27.5347 25.8209 29.7685 28.1358L30.4881 27.4414ZM32.2381 18.6914H31.2381C31.2381 21.4238 31.868 23.6696 33.2885 25.2631L34.035 24.5977L34.7815 23.9322C33.8061 22.8382 33.2381 21.1465 33.2381 18.6914H32.2381ZM34.035 24.5977L33.2911 25.266C34.6848 26.8172 36.4792 27.5977 38.5975 27.5977V26.5977V25.5977C37.0283 25.5977 35.781 25.0448 34.7789 23.9293L34.035 24.5977ZM38.5975 26.5977V27.5977C40.7133 27.5977 42.5003 26.824 43.8758 25.278L43.1287 24.6133L42.3817 23.9486C41.4031 25.0484 40.1692 25.5977 38.5975 25.5977V26.5977ZM43.1287 24.6133L43.8755 25.2784C45.2898 23.6903 45.91 21.4138 45.91 18.6289H44.91H43.91C43.91 21.1565 43.3427 22.8695 42.382 23.9482L43.1287 24.6133ZM44.91 18.6289H45.91C45.91 15.8804 45.3077 13.6364 43.9207 12.0869L43.1756 12.7539L42.4305 13.4209C43.356 14.4547 43.91 16.1274 43.91 18.6289H44.91ZM43.1756 12.7539L43.9237 12.0903C42.5671 10.561 40.7564 9.81641 38.5975 9.81641V10.8164V11.8164C40.2511 11.8164 41.4925 12.3635 42.4276 13.4175L43.1756 12.7539ZM38.5975 10.8164V9.81641C36.4331 9.81641 34.6147 10.5751 33.2407 12.1208L33.9881 12.7852L34.7355 13.4495C35.6949 12.3702 36.9494 11.8164 38.5975 11.8164V10.8164ZM33.9881 12.7852L33.2434 12.1178C31.8463 13.6771 31.2381 15.931 31.2381 18.6914H32.2381H33.2381C33.2381 16.181 33.7967 14.4974 34.7329 13.4525L33.9881 12.7852ZM57.4919 30.1602H56.4919V31.1602H57.4919V30.1602ZM57.4919 7.25391V6.25391H56.4919V7.25391H57.4919ZM72.5544 7.87891L72.2013 8.81457L72.2119 8.81844L72.5544 7.87891ZM74.7106 17.9414L75.4515 18.6131L75.4546 18.6096L74.7106 17.9414ZM70.1794 20.0508L70.0358 19.0611L67.2028 19.4721L69.6755 20.9146L70.1794 20.0508ZM72.6481 21.9727L71.9141 22.6519L71.9196 22.6577L72.6481 21.9727ZM75.2887 25.6914L74.4388 26.2183L74.4411 26.2219L75.2887 25.6914ZM78.0856 30.1602V31.1602H79.8912L78.9333 29.6296L78.0856 30.1602ZM72.5544 30.1602L71.7239 30.7173L72.021 31.1602H72.5544V30.1602ZM69.2106 25.1758L68.3786 25.7305L68.3802 25.7329L69.2106 25.1758ZM66.7731 21.8164L66.042 22.4988L66.0498 22.5069L66.7731 21.8164ZM65.3825 20.8633L65.0424 21.8037L65.0513 21.8069L65.0602 21.8099L65.3825 20.8633ZM62.1169 20.5977V19.5977H61.1169V20.5977H62.1169ZM62.1169 30.1602V31.1602H63.1169V30.1602H62.1169ZM62.1169 16.9414H61.1169V17.9414H62.1169V16.9414ZM70.8356 12.1133L70.0729 12.76L70.0804 12.7689L70.0882 12.7776L70.8356 12.1133ZM69.1012 11.207L69.2656 10.2206L69.2523 10.2184L69.2388 10.2165L69.1012 11.207ZM62.1169 11.1289V10.1289H61.1169V11.1289H62.1169ZM57.4919 30.1602H58.4919V7.25391H57.4919H56.4919V30.1602H57.4919ZM57.4919 7.25391V8.25391H67.2262V7.25391V6.25391H57.4919V7.25391ZM67.2262 7.25391V8.25391C69.6548 8.25391 71.2766 8.46555 72.2013 8.81451L72.5544 7.87891L72.9074 6.9433C71.6238 6.45893 69.6935 6.25391 67.2262 6.25391V7.25391ZM72.5544 7.87891L72.2119 8.81844C73.1082 9.14513 73.8268 9.72611 74.3816 10.6017L75.2262 10.0664L76.0709 9.53116C75.2924 8.30254 74.2297 7.42519 72.8968 6.93937L72.5544 7.87891ZM75.2262 10.0664L74.3816 10.6017C74.938 11.4797 75.2262 12.494 75.2262 13.6758H76.2262H77.2262C77.2262 12.1493 76.8479 10.7573 76.0709 9.53116L75.2262 10.0664ZM76.2262 13.6758H75.2262C75.2262 15.1839 74.7896 16.3569 73.9666 17.2732L74.7106 17.9414L75.4546 18.6096C76.6525 17.2759 77.2262 15.6051 77.2262 13.6758H76.2262ZM74.7106 17.9414L73.9697 17.2698C73.1626 18.1602 71.8968 18.7911 70.0358 19.0611L70.1794 20.0508L70.3229 21.0404C72.4827 20.7271 74.2379 19.9518 75.4515 18.613L74.7106 17.9414ZM70.1794 20.0508L69.6755 20.9146C70.608 21.4585 71.3482 22.0403 71.9142 22.6518L72.6481 21.9727L73.3821 21.2935C72.6564 20.5092 71.7508 19.8097 70.6832 19.187L70.1794 20.0508ZM72.6481 21.9727L71.9196 22.6577C72.5023 23.2774 73.3385 24.4433 74.4388 26.2183L75.2887 25.6914L76.1387 25.1645C75.0307 23.3771 74.1064 22.0637 73.3766 21.2876L72.6481 21.9727ZM75.2887 25.6914L74.4411 26.2219L77.238 30.6907L78.0856 30.1602L78.9333 29.6296L76.1364 25.1609L75.2887 25.6914ZM78.0856 30.1602V29.1602H72.5544V30.1602V31.1602H78.0856V30.1602ZM72.5544 30.1602L73.3848 29.6031L70.0411 24.6187L69.2106 25.1758L68.3802 25.7329L71.7239 30.7173L72.5544 30.1602ZM69.2106 25.1758L70.0427 24.6211C68.8677 22.8586 68.006 21.6597 67.4965 21.1259L66.7731 21.8164L66.0498 22.5069C66.4153 22.8898 67.1786 23.9305 68.3786 25.7305L69.2106 25.1758ZM66.7731 21.8164L67.5042 21.1341C66.9808 20.5733 66.3834 20.1477 65.7048 19.9166L65.3825 20.8633L65.0602 21.8099C65.3608 21.9122 65.6904 22.122 66.0421 22.4987L66.7731 21.8164ZM65.3825 20.8633L65.7226 19.9229C65.0608 19.6835 64.1379 19.5977 63.0544 19.5977V20.5977V21.5977C64.0958 21.5977 64.725 21.6889 65.0424 21.8037L65.3825 20.8633ZM63.0544 20.5977V19.5977H62.1169V20.5977V21.5977H63.0544V20.5977ZM62.1169 20.5977H61.1169V30.1602H62.1169H63.1169V20.5977H62.1169ZM62.1169 30.1602V29.1602H57.4919V30.1602V31.1602H62.1169V30.1602ZM62.1169 16.9414V17.9414H65.5387V16.9414V15.9414H62.1169V16.9414ZM65.5387 16.9414V17.9414C66.6591 17.9414 67.585 17.9178 68.3094 17.8688C69.0025 17.8219 69.6044 17.747 70.0166 17.607L69.695 16.6602L69.3734 15.7133C69.2335 15.7608 68.8666 15.8265 68.1744 15.8734C67.5133 15.9181 66.6372 15.9414 65.5387 15.9414V16.9414ZM69.695 16.6602L70.0166 17.607C70.7628 17.3536 71.3769 16.9018 71.8181 16.2547L70.9919 15.6914L70.1656 15.1281C69.9818 15.3977 69.7314 15.5917 69.3734 15.7133L69.695 16.6602ZM70.9919 15.6914L71.8181 16.2547C72.2683 15.5944 72.4606 14.8127 72.4606 13.9727H71.4606H70.4606C70.4606 14.5076 70.3404 14.8717 70.1656 15.1281L70.9919 15.6914ZM71.4606 13.9727H72.4606C72.4606 13.0155 72.1975 12.1402 71.583 11.4489L70.8356 12.1133L70.0882 12.7776C70.3071 13.0239 70.4606 13.3882 70.4606 13.9727H71.4606ZM70.8356 12.1133L71.5984 11.4666C71.0087 10.771 70.1979 10.376 69.2656 10.2206L69.1012 11.207L68.9369 12.1934C69.5046 12.2881 69.8501 12.4972 70.0729 12.76L70.8356 12.1133ZM69.1012 11.207L69.2388 10.2165C68.7777 10.1525 67.5657 10.1289 65.7262 10.1289V11.1289V12.1289C67.6368 12.1289 68.6748 12.1574 68.9637 12.1975L69.1012 11.207ZM65.7262 11.1289V10.1289H62.1169V11.1289V12.1289H65.7262V11.1289ZM62.1169 11.1289H61.1169V16.9414H62.1169H63.1169V11.1289H62.1169ZM89.9175 30.1602H88.9175V31.1602H89.9175V30.1602ZM89.9175 11.1289H90.9175V10.1289H89.9175V11.1289ZM83.1206 11.1289H82.1206V12.1289H83.1206V11.1289ZM83.1206 7.25391V6.25391H82.1206V7.25391H83.1206ZM101.324 7.25391H102.324V6.25391H101.324V7.25391ZM101.324 11.1289V12.1289H102.324V11.1289H101.324ZM94.5425 11.1289V10.1289H93.5425V11.1289H94.5425ZM94.5425 30.1602V31.1602H95.5425V30.1602H94.5425ZM89.9175 30.1602H90.9175V11.1289H89.9175H88.9175V30.1602H89.9175ZM89.9175 11.1289V10.1289H83.1206V11.1289V12.1289H89.9175V11.1289ZM83.1206 11.1289H84.1206V7.25391H83.1206H82.1206V11.1289H83.1206ZM83.1206 7.25391V8.25391H101.324V7.25391V6.25391H83.1206V7.25391ZM101.324 7.25391H100.324V11.1289H101.324H102.324V7.25391H101.324ZM101.324 11.1289V10.1289H94.5425V11.1289V12.1289H101.324V11.1289ZM94.5425 11.1289H93.5425V30.1602H94.5425H95.5425V11.1289H94.5425ZM94.5425 30.1602V29.1602H89.9175V30.1602V31.1602H94.5425V30.1602ZM108.515 30.1602H107.515V31.1602H108.515V30.1602ZM108.515 7.25391V6.25391H107.515V7.25391H108.515ZM124.218 7.25391H125.218V6.25391H124.218V7.25391ZM124.218 11.1289V12.1289H125.218V11.1289H124.218ZM113.14 11.1289V10.1289H112.14V11.1289H113.14ZM113.14 16.5508H112.14V17.5508H113.14V16.5508ZM122.702 16.5508H123.702V15.5508H122.702V16.5508ZM122.702 20.4258V21.4258H123.702V20.4258H122.702ZM113.14 20.4258V19.4258H112.14V20.4258H113.14ZM113.14 30.1602V31.1602H114.14V30.1602H113.14ZM108.515 30.1602H109.515V7.25391H108.515H107.515V30.1602H108.515ZM108.515 7.25391V8.25391H124.218V7.25391V6.25391H108.515V7.25391ZM124.218 7.25391H123.218V11.1289H124.218H125.218V7.25391H124.218ZM124.218 11.1289V10.1289H113.14V11.1289V12.1289H124.218V11.1289ZM113.14 11.1289H112.14V16.5508H113.14H114.14V11.1289H113.14ZM113.14 16.5508V17.5508H122.702V16.5508V15.5508H113.14V16.5508ZM122.702 16.5508H121.702V20.4258H122.702H123.702V16.5508H122.702ZM122.702 20.4258V19.4258H113.14V20.4258V21.4258H122.702V20.4258ZM113.14 20.4258H112.14V30.1602H113.14H114.14V20.4258H113.14ZM113.14 30.1602V29.1602H108.515V30.1602V31.1602H113.14V30.1602ZM132.316 12.9727L131.402 12.565L131.401 12.5693L132.316 12.9727ZM134.441 9.83203L133.726 9.13299L133.722 9.13715L134.441 9.83203ZM137.409 7.76953L137.795 8.69235L137.799 8.69041L137.409 7.76953ZM150.441 10.0039L149.721 10.6984L149.723 10.7002L150.441 10.0039ZM150.472 27.4258L151.191 28.1202L151.193 28.1184L150.472 27.4258ZM134.284 27.4414L133.565 28.1358L133.567 28.1376L134.284 27.4414ZM137.831 24.5977L137.085 25.2631L137.087 25.266L137.831 24.5977ZM146.925 24.6133L146.178 23.9482L146.178 23.9486L146.925 24.6133ZM146.972 12.7539L146.224 13.4175L146.227 13.4209L146.972 12.7539ZM137.784 12.7852L138.529 13.4525L138.532 13.4495L137.784 12.7852ZM131.269 18.8477H132.269C132.269 16.6075 132.605 14.7962 133.231 13.376L132.316 12.9727L131.401 12.5693C130.631 14.3158 130.269 16.4212 130.269 18.8477H131.269ZM132.316 12.9727L133.229 13.3803C133.702 12.3209 134.344 11.371 135.16 10.5269L134.441 9.83203L133.722 9.13715C132.746 10.1472 131.971 11.2911 131.402 12.565L132.316 12.9727ZM134.441 9.83203L135.156 10.5311C135.979 9.68889 136.859 9.08291 137.795 8.69234L137.409 7.76953L137.024 6.84672C135.814 7.35198 134.715 8.12101 133.726 9.133L134.441 9.83203ZM137.409 7.76953L137.799 8.69041C139.081 8.14793 140.59 7.86328 142.347 7.86328V6.86328V5.86328C140.375 5.86328 138.592 6.1828 137.02 6.84866L137.409 7.76953ZM142.347 6.86328V7.86328C145.498 7.86328 147.919 8.8314 149.721 10.6984L150.441 10.0039L151.16 9.30944C148.92 6.98891 145.946 5.86328 142.347 5.86328V6.86328ZM150.441 10.0039L149.723 10.7002C151.527 12.5594 152.488 15.1936 152.488 18.7383H153.488H154.488C154.488 14.8247 153.417 11.6359 151.158 9.30759L150.441 10.0039ZM153.488 18.7383H152.488C152.488 22.2518 151.537 24.8728 149.751 26.7332L150.472 27.4258L151.193 28.1184C153.428 25.7912 154.488 22.6206 154.488 18.7383H153.488ZM150.472 27.4258L149.752 26.7314C147.961 28.5875 145.55 29.5508 142.409 29.5508V30.5508V31.5508C145.998 31.5508 148.962 30.4307 151.191 28.1202L150.472 27.4258ZM142.409 30.5508V29.5508C139.221 29.5508 136.791 28.5892 135.002 26.7452L134.284 27.4414L133.567 28.1376C135.799 30.4394 138.785 31.5508 142.409 31.5508V30.5508ZM134.284 27.4414L135.004 26.747C133.217 24.8952 132.269 22.3048 132.269 18.8477H131.269H130.269C130.269 22.6822 131.331 25.8209 133.565 28.1358L134.284 27.4414ZM136.034 18.6914H135.034C135.034 21.4238 135.664 23.6696 137.085 25.2631L137.831 24.5977L138.578 23.9322C137.602 22.8382 137.034 21.1465 137.034 18.6914H136.034ZM137.831 24.5977L137.087 25.266C138.481 26.8172 140.275 27.5977 142.394 27.5977V26.5977V25.5977C140.825 25.5977 139.577 25.0448 138.575 23.9293L137.831 24.5977ZM142.394 26.5977V27.5977C144.51 27.5977 146.297 26.824 147.672 25.278L146.925 24.6133L146.178 23.9486C145.199 25.0484 143.965 25.5977 142.394 25.5977V26.5977ZM146.925 24.6133L147.672 25.2784C149.086 23.6903 149.706 21.4138 149.706 18.6289H148.706H147.706C147.706 21.1565 147.139 22.8695 146.178 23.9482L146.925 24.6133ZM148.706 18.6289H149.706C149.706 15.8804 149.104 13.6364 147.717 12.0869L146.972 12.7539L146.227 13.4209C147.152 14.4547 147.706 16.1274 147.706 18.6289H148.706ZM146.972 12.7539L147.72 12.0903C146.363 10.561 144.553 9.81641 142.394 9.81641V10.8164V11.8164C144.047 11.8164 145.289 12.3635 146.224 13.4175L146.972 12.7539ZM142.394 10.8164V9.81641C140.229 9.81641 138.411 10.5751 137.037 12.1208L137.784 12.7852L138.532 13.4495C139.491 12.3702 140.746 11.8164 142.394 11.8164V10.8164ZM137.784 12.7852L137.04 12.1178C135.643 13.6771 135.034 15.931 135.034 18.6914H136.034H137.034C137.034 16.181 137.593 14.4974 138.529 13.4525L137.784 12.7852ZM161.397 30.1602H160.397V31.1602H161.397V30.1602ZM161.397 7.44141V6.44141H160.397V7.44141H161.397ZM166.022 7.44141H167.022V6.44141H166.022V7.44141ZM166.022 26.3008H165.022V27.3008H166.022V26.3008ZM177.522 26.3008H178.522V25.3008H177.522V26.3008ZM177.522 30.1602V31.1602H178.522V30.1602H177.522ZM161.397 30.1602H162.397V7.44141H161.397H160.397V30.1602H161.397ZM161.397 7.44141V8.44141H166.022V7.44141V6.44141H161.397V7.44141ZM166.022 7.44141H165.022V26.3008H166.022H167.022V7.44141H166.022ZM166.022 26.3008V27.3008H177.522V26.3008V25.3008H166.022V26.3008ZM177.522 26.3008H176.522V30.1602H177.522H178.522V26.3008H177.522ZM177.522 30.1602V29.1602H161.397V30.1602V31.1602H177.522V30.1602ZM184.854 30.1602H183.854V31.1602H184.854V30.1602ZM184.854 7.25391V6.25391H183.854V7.25391H184.854ZM189.479 7.25391H190.479V6.25391H189.479V7.25391ZM189.479 30.1602V31.1602H190.479V30.1602H189.479ZM184.854 30.1602H185.854V7.25391H184.854H183.854V30.1602H184.854ZM184.854 7.25391V8.25391H189.479V7.25391V6.25391H184.854V7.25391ZM189.479 7.25391H188.479V30.1602H189.479H190.479V7.25391H189.479ZM189.479 30.1602V29.1602H184.854V30.1602V31.1602H189.479V30.1602ZM198.171 12.9727L197.257 12.565L197.256 12.5693L198.171 12.9727ZM200.296 9.83203L199.581 9.13299L199.577 9.13715L200.296 9.83203ZM203.264 7.76953L203.65 8.69235L203.654 8.69041L203.264 7.76953ZM216.296 10.0039L215.576 10.6984L215.578 10.7002L216.296 10.0039ZM216.327 27.4258L217.046 28.1202L217.048 28.1184L216.327 27.4258ZM200.139 27.4414L199.42 28.1358L199.422 28.1376L200.139 27.4414ZM203.686 24.5977L202.94 25.2631L202.942 25.266L203.686 24.5977ZM212.78 24.6133L212.033 23.9482L212.033 23.9486L212.78 24.6133ZM212.827 12.7539L212.079 13.4175L212.082 13.4209L212.827 12.7539ZM203.639 12.7852L204.384 13.4525L204.387 13.4495L203.639 12.7852ZM197.124 18.8477H198.124C198.124 16.6075 198.46 14.7962 199.086 13.376L198.171 12.9727L197.256 12.5693C196.486 14.3158 196.124 16.4212 196.124 18.8477H197.124ZM198.171 12.9727L199.084 13.3803C199.557 12.3209 200.199 11.371 201.015 10.5269L200.296 9.83203L199.577 9.13715C198.601 10.1472 197.826 11.2911 197.257 12.565L198.171 12.9727ZM200.296 9.83203L201.011 10.5311C201.834 9.68889 202.714 9.08291 203.65 8.69234L203.264 7.76953L202.879 6.84672C201.669 7.35198 200.57 8.12101 199.581 9.133L200.296 9.83203ZM203.264 7.76953L203.654 8.69041C204.936 8.14793 206.445 7.86328 208.202 7.86328V6.86328V5.86328C206.23 5.86328 204.447 6.1828 202.875 6.84866L203.264 7.76953ZM208.202 6.86328V7.86328C211.353 7.86328 213.774 8.8314 215.576 10.6984L216.296 10.0039L217.015 9.30944C214.775 6.98891 211.801 5.86328 208.202 5.86328V6.86328ZM216.296 10.0039L215.578 10.7002C217.382 12.5594 218.342 15.1936 218.342 18.7383H219.342H220.342C220.342 14.8247 219.272 11.6359 217.013 9.30759L216.296 10.0039ZM219.342 18.7383H218.342C218.342 22.2518 217.392 24.8728 215.606 26.7332L216.327 27.4258L217.048 28.1184C219.283 25.7912 220.342 22.6206 220.342 18.7383H219.342ZM216.327 27.4258L215.607 26.7314C213.816 28.5875 211.405 29.5508 208.264 29.5508V30.5508V31.5508C211.853 31.5508 214.817 30.4307 217.046 28.1202L216.327 27.4258ZM208.264 30.5508V29.5508C205.076 29.5508 202.646 28.5892 200.857 26.7452L200.139 27.4414L199.422 28.1376C201.654 30.4394 204.64 31.5508 208.264 31.5508V30.5508ZM200.139 27.4414L200.859 26.747C199.072 24.8952 198.124 22.3048 198.124 18.8477H197.124H196.124C196.124 22.6822 197.186 25.8209 199.42 28.1358L200.139 27.4414ZM201.889 18.6914H200.889C200.889 21.4238 201.519 23.6696 202.94 25.2631L203.686 24.5977L204.433 23.9322C203.457 22.8382 202.889 21.1465 202.889 18.6914H201.889ZM203.686 24.5977L202.942 25.266C204.336 26.8172 206.13 27.5977 208.249 27.5977V26.5977V25.5977C206.68 25.5977 205.432 25.0448 204.43 23.9293L203.686 24.5977ZM208.249 26.5977V27.5977C210.365 27.5977 212.152 26.824 213.527 25.278L212.78 24.6133L212.033 23.9486C211.054 25.0484 209.82 25.5977 208.249 25.5977V26.5977ZM212.78 24.6133L213.527 25.2784C214.941 23.6903 215.561 21.4138 215.561 18.6289H214.561H213.561C213.561 21.1565 212.994 22.8695 212.033 23.9482L212.78 24.6133ZM214.561 18.6289H215.561C215.561 15.8804 214.959 13.6364 213.572 12.0869L212.827 12.7539L212.082 13.4209C213.007 14.4547 213.561 16.1274 213.561 18.6289H214.561ZM212.827 12.7539L213.575 12.0903C212.218 10.561 210.408 9.81641 208.249 9.81641V10.8164V11.8164C209.902 11.8164 211.144 12.3635 212.079 13.4175L212.827 12.7539ZM208.249 10.8164V9.81641C206.084 9.81641 204.266 10.5751 202.892 12.1208L203.639 12.7852L204.387 13.4495C205.346 12.3702 206.601 11.8164 208.249 11.8164V10.8164ZM203.639 12.7852L202.895 12.1178C201.498 13.6771 200.889 15.931 200.889 18.6914H201.889H202.889C202.889 16.181 203.448 14.4974 204.384 13.4525L203.639 12.7852Z" fill="#121212" mask="url(#path-1-outside-1_1361_460)"/>
<rect x="127.984" y="5.94043" width="27.4297" height="27.5708" fill="white"/>
<path d="M141.699 5.94043V33.5112" stroke="#121212" stroke-width="1.8"/>
<path d="M153.637 12.833L129.76 26.6184" stroke="#121212" stroke-width="1.8"/>
<path d="M153.637 26.6182L129.76 12.8328" stroke="#121212" stroke-width="1.8"/>
<path d="M148.586 31.6641L134.801 7.7871" stroke="#121212" stroke-width="1.8"/>
<path d="M134.805 31.6641L148.59 7.7871" stroke="#121212" stroke-width="1.8"/>
<path d="M127.914 19.7256L155.485 19.7256" stroke="#121212" stroke-width="1.8"/>
<circle cx="141.699" cy="19.7259" r="8.60574" fill="white"/>
</svg>
