<svg width="220" height="27" viewBox="0 0 220 27" fill="none" xmlns="http://www.w3.org/2000/svg">
<mask id="path-1-outside-1_1361_464" maskUnits="userSpaceOnUse" x="0.578125" y="0.160156" width="219" height="27" fill="black">
<rect fill="white" x="0.578125" y="0.160156" width="219" height="27"/>
<path d="M1.90625 25.1602V2.25391H9.32812C12.1406 2.25391 13.974 2.36849 14.8281 2.59766C16.1406 2.94141 17.2396 3.69141 18.125 4.84766C19.0104 5.99349 19.4531 7.47786 19.4531 9.30078C19.4531 10.707 19.1979 11.8893 18.6875 12.8477C18.1771 13.806 17.526 14.5612 16.7344 15.1133C15.9531 15.6549 15.1562 16.0143 14.3438 16.1914C13.2396 16.4102 11.6406 16.5195 9.54688 16.5195H6.53125V25.1602H1.90625ZM6.53125 6.12891V12.6289H9.0625C10.8854 12.6289 12.1042 12.5091 12.7188 12.2695C13.3333 12.0299 13.8125 11.6549 14.1562 11.1445C14.5104 10.6341 14.6875 10.0404 14.6875 9.36328C14.6875 8.52995 14.4427 7.84245 13.9531 7.30078C13.4635 6.75911 12.8438 6.42057 12.0938 6.28516C11.5417 6.18099 10.4323 6.12891 8.76562 6.12891H6.53125ZM26.4725 13.8477C26.4725 11.5143 26.8215 9.55599 27.5194 7.97266C28.0402 6.80599 28.7485 5.75911 29.6444 4.83203C30.5506 3.90495 31.5402 3.21745 32.6131 2.76953C34.0402 2.16536 35.686 1.86328 37.5506 1.86328C40.9256 1.86328 43.6235 2.91016 45.6444 5.00391C47.6756 7.09766 48.6912 10.0091 48.6912 13.7383C48.6912 17.4362 47.686 20.332 45.6756 22.4258C43.6652 24.5091 40.9777 25.5508 37.6131 25.5508C34.2069 25.5508 31.4985 24.5143 29.4881 22.4414C27.4777 20.3581 26.4725 17.4935 26.4725 13.8477ZM31.2381 13.6914C31.2381 16.2852 31.8371 18.2539 33.035 19.5977C34.2329 20.931 35.7537 21.5977 37.5975 21.5977C39.4412 21.5977 40.9517 20.9362 42.1287 19.6133C43.3162 18.2799 43.91 16.2852 43.91 13.6289C43.91 11.0039 43.3319 9.04557 42.1756 7.75391C41.0298 6.46224 39.5037 5.81641 37.5975 5.81641C35.6912 5.81641 34.1548 6.47266 32.9881 7.78516C31.8215 9.08724 31.2381 11.056 31.2381 13.6914ZM56.4919 25.1602V2.25391H66.2262C68.6742 2.25391 70.4502 2.46224 71.5544 2.87891C72.669 3.28516 73.5596 4.01432 74.2262 5.06641C74.8929 6.11849 75.2262 7.32161 75.2262 8.67578C75.2262 10.3945 74.721 11.8164 73.7106 12.9414C72.7002 14.056 71.1898 14.7591 69.1794 15.0508C70.1794 15.6341 71.0023 16.2747 71.6481 16.9727C72.3044 17.6706 73.1846 18.9102 74.2887 20.6914L77.0856 25.1602H71.5544L68.2106 20.1758C67.0231 18.3945 66.2106 17.2747 65.7731 16.8164C65.3356 16.3477 64.8721 16.0299 64.3825 15.8633C63.8929 15.6862 63.1169 15.5977 62.0544 15.5977H61.1169V25.1602H56.4919ZM61.1169 11.9414H64.5387C66.7575 11.9414 68.1429 11.8477 68.695 11.6602C69.2471 11.4727 69.6794 11.1497 69.9919 10.6914C70.3044 10.2331 70.4606 9.66016 70.4606 8.97266C70.4606 8.20182 70.2523 7.58203 69.8356 7.11328C69.4294 6.63411 68.8512 6.33203 68.1012 6.20703C67.7262 6.15495 66.6012 6.12891 64.7262 6.12891H61.1169V11.9414ZM88.9175 25.1602V6.12891H82.1206V2.25391H100.324V6.12891H93.5425V25.1602H88.9175ZM107.515 25.1602V2.25391H123.218V6.12891H112.14V11.5508H121.702V15.4258H112.14V25.1602H107.515ZM130.269 13.8477C130.269 11.5143 130.618 9.55599 131.316 7.97266C131.836 6.80599 132.545 5.75911 133.441 4.83203C134.347 3.90495 135.336 3.21745 136.409 2.76953C137.836 2.16536 139.482 1.86328 141.347 1.86328C144.722 1.86328 147.42 2.91016 149.441 5.00391C151.472 7.09766 152.488 10.0091 152.488 13.7383C152.488 17.4362 151.482 20.332 149.472 22.4258C147.461 24.5091 144.774 25.5508 141.409 25.5508C138.003 25.5508 135.295 24.5143 133.284 22.4414C131.274 20.3581 130.269 17.4935 130.269 13.8477ZM135.034 13.6914C135.034 16.2852 135.633 18.2539 136.831 19.5977C138.029 20.931 139.55 21.5977 141.394 21.5977C143.238 21.5977 144.748 20.9362 145.925 19.6133C147.113 18.2799 147.706 16.2852 147.706 13.6289C147.706 11.0039 147.128 9.04557 145.972 7.75391C144.826 6.46224 143.3 5.81641 141.394 5.81641C139.488 5.81641 137.951 6.47266 136.784 7.78516C135.618 9.08724 135.034 11.056 135.034 13.6914ZM160.397 25.1602V2.44141H165.022V21.3008H176.522V25.1602H160.397ZM183.854 25.1602V2.25391H188.479V25.1602H183.854ZM196.124 13.8477C196.124 11.5143 196.473 9.55599 197.171 7.97266C197.691 6.80599 198.4 5.75911 199.296 4.83203C200.202 3.90495 201.191 3.21745 202.264 2.76953C203.691 2.16536 205.337 1.86328 207.202 1.86328C210.577 1.86328 213.275 2.91016 215.296 5.00391C217.327 7.09766 218.342 10.0091 218.342 13.7383C218.342 17.4362 217.337 20.332 215.327 22.4258C213.316 24.5091 210.629 25.5508 207.264 25.5508C203.858 25.5508 201.15 24.5143 199.139 22.4414C197.129 20.3581 196.124 17.4935 196.124 13.8477ZM200.889 13.6914C200.889 16.2852 201.488 18.2539 202.686 19.5977C203.884 20.931 205.405 21.5977 207.249 21.5977C209.092 21.5977 210.603 20.9362 211.78 19.6133C212.967 18.2799 213.561 16.2852 213.561 13.6289C213.561 11.0039 212.983 9.04557 211.827 7.75391C210.681 6.46224 209.155 5.81641 207.249 5.81641C205.342 5.81641 203.806 6.47266 202.639 7.78516C201.473 9.08724 200.889 11.056 200.889 13.6914Z"/>
</mask>
<path d="M1.90625 25.1602V2.25391H9.32812C12.1406 2.25391 13.974 2.36849 14.8281 2.59766C16.1406 2.94141 17.2396 3.69141 18.125 4.84766C19.0104 5.99349 19.4531 7.47786 19.4531 9.30078C19.4531 10.707 19.1979 11.8893 18.6875 12.8477C18.1771 13.806 17.526 14.5612 16.7344 15.1133C15.9531 15.6549 15.1562 16.0143 14.3438 16.1914C13.2396 16.4102 11.6406 16.5195 9.54688 16.5195H6.53125V25.1602H1.90625ZM6.53125 6.12891V12.6289H9.0625C10.8854 12.6289 12.1042 12.5091 12.7188 12.2695C13.3333 12.0299 13.8125 11.6549 14.1562 11.1445C14.5104 10.6341 14.6875 10.0404 14.6875 9.36328C14.6875 8.52995 14.4427 7.84245 13.9531 7.30078C13.4635 6.75911 12.8438 6.42057 12.0938 6.28516C11.5417 6.18099 10.4323 6.12891 8.76562 6.12891H6.53125ZM26.4725 13.8477C26.4725 11.5143 26.8215 9.55599 27.5194 7.97266C28.0402 6.80599 28.7485 5.75911 29.6444 4.83203C30.5506 3.90495 31.5402 3.21745 32.6131 2.76953C34.0402 2.16536 35.686 1.86328 37.5506 1.86328C40.9256 1.86328 43.6235 2.91016 45.6444 5.00391C47.6756 7.09766 48.6912 10.0091 48.6912 13.7383C48.6912 17.4362 47.686 20.332 45.6756 22.4258C43.6652 24.5091 40.9777 25.5508 37.6131 25.5508C34.2069 25.5508 31.4985 24.5143 29.4881 22.4414C27.4777 20.3581 26.4725 17.4935 26.4725 13.8477ZM31.2381 13.6914C31.2381 16.2852 31.8371 18.2539 33.035 19.5977C34.2329 20.931 35.7537 21.5977 37.5975 21.5977C39.4412 21.5977 40.9517 20.9362 42.1287 19.6133C43.3162 18.2799 43.91 16.2852 43.91 13.6289C43.91 11.0039 43.3319 9.04557 42.1756 7.75391C41.0298 6.46224 39.5037 5.81641 37.5975 5.81641C35.6912 5.81641 34.1548 6.47266 32.9881 7.78516C31.8215 9.08724 31.2381 11.056 31.2381 13.6914ZM56.4919 25.1602V2.25391H66.2262C68.6742 2.25391 70.4502 2.46224 71.5544 2.87891C72.669 3.28516 73.5596 4.01432 74.2262 5.06641C74.8929 6.11849 75.2262 7.32161 75.2262 8.67578C75.2262 10.3945 74.721 11.8164 73.7106 12.9414C72.7002 14.056 71.1898 14.7591 69.1794 15.0508C70.1794 15.6341 71.0023 16.2747 71.6481 16.9727C72.3044 17.6706 73.1846 18.9102 74.2887 20.6914L77.0856 25.1602H71.5544L68.2106 20.1758C67.0231 18.3945 66.2106 17.2747 65.7731 16.8164C65.3356 16.3477 64.8721 16.0299 64.3825 15.8633C63.8929 15.6862 63.1169 15.5977 62.0544 15.5977H61.1169V25.1602H56.4919ZM61.1169 11.9414H64.5387C66.7575 11.9414 68.1429 11.8477 68.695 11.6602C69.2471 11.4727 69.6794 11.1497 69.9919 10.6914C70.3044 10.2331 70.4606 9.66016 70.4606 8.97266C70.4606 8.20182 70.2523 7.58203 69.8356 7.11328C69.4294 6.63411 68.8512 6.33203 68.1012 6.20703C67.7262 6.15495 66.6012 6.12891 64.7262 6.12891H61.1169V11.9414ZM88.9175 25.1602V6.12891H82.1206V2.25391H100.324V6.12891H93.5425V25.1602H88.9175ZM107.515 25.1602V2.25391H123.218V6.12891H112.14V11.5508H121.702V15.4258H112.14V25.1602H107.515ZM130.269 13.8477C130.269 11.5143 130.618 9.55599 131.316 7.97266C131.836 6.80599 132.545 5.75911 133.441 4.83203C134.347 3.90495 135.336 3.21745 136.409 2.76953C137.836 2.16536 139.482 1.86328 141.347 1.86328C144.722 1.86328 147.42 2.91016 149.441 5.00391C151.472 7.09766 152.488 10.0091 152.488 13.7383C152.488 17.4362 151.482 20.332 149.472 22.4258C147.461 24.5091 144.774 25.5508 141.409 25.5508C138.003 25.5508 135.295 24.5143 133.284 22.4414C131.274 20.3581 130.269 17.4935 130.269 13.8477ZM135.034 13.6914C135.034 16.2852 135.633 18.2539 136.831 19.5977C138.029 20.931 139.55 21.5977 141.394 21.5977C143.238 21.5977 144.748 20.9362 145.925 19.6133C147.113 18.2799 147.706 16.2852 147.706 13.6289C147.706 11.0039 147.128 9.04557 145.972 7.75391C144.826 6.46224 143.3 5.81641 141.394 5.81641C139.488 5.81641 137.951 6.47266 136.784 7.78516C135.618 9.08724 135.034 11.056 135.034 13.6914ZM160.397 25.1602V2.44141H165.022V21.3008H176.522V25.1602H160.397ZM183.854 25.1602V2.25391H188.479V25.1602H183.854ZM196.124 13.8477C196.124 11.5143 196.473 9.55599 197.171 7.97266C197.691 6.80599 198.4 5.75911 199.296 4.83203C200.202 3.90495 201.191 3.21745 202.264 2.76953C203.691 2.16536 205.337 1.86328 207.202 1.86328C210.577 1.86328 213.275 2.91016 215.296 5.00391C217.327 7.09766 218.342 10.0091 218.342 13.7383C218.342 17.4362 217.337 20.332 215.327 22.4258C213.316 24.5091 210.629 25.5508 207.264 25.5508C203.858 25.5508 201.15 24.5143 199.139 22.4414C197.129 20.3581 196.124 17.4935 196.124 13.8477ZM200.889 13.6914C200.889 16.2852 201.488 18.2539 202.686 19.5977C203.884 20.931 205.405 21.5977 207.249 21.5977C209.092 21.5977 210.603 20.9362 211.78 19.6133C212.967 18.2799 213.561 16.2852 213.561 13.6289C213.561 11.0039 212.983 9.04557 211.827 7.75391C210.681 6.46224 209.155 5.81641 207.249 5.81641C205.342 5.81641 203.806 6.47266 202.639 7.78516C201.473 9.08724 200.889 11.056 200.889 13.6914Z" fill="#121212"/>
<path d="M1.90625 25.1602H0.90625V26.1602H1.90625V25.1602ZM1.90625 2.25391V1.25391H0.90625V2.25391H1.90625ZM14.8281 2.59766L14.569 3.56352L14.5748 3.56503L14.8281 2.59766ZM18.125 4.84766L17.331 5.45564L17.3337 5.4591L18.125 4.84766ZM16.7344 15.1133L17.3042 15.9351L17.3064 15.9335L16.7344 15.1133ZM14.3438 16.1914L14.5381 17.1723L14.5474 17.1705L14.5567 17.1685L14.3438 16.1914ZM6.53125 16.5195V15.5195H5.53125V16.5195H6.53125ZM6.53125 25.1602V26.1602H7.53125V25.1602H6.53125ZM6.53125 6.12891V5.12891H5.53125V6.12891H6.53125ZM6.53125 12.6289H5.53125V13.6289H6.53125V12.6289ZM14.1562 11.1445L13.3346 10.5744L13.3268 10.5859L14.1562 11.1445ZM12.0938 6.28516L11.9083 7.26785L11.9161 7.26924L12.0938 6.28516ZM1.90625 25.1602H2.90625V2.25391H1.90625H0.90625V25.1602H1.90625ZM1.90625 2.25391V3.25391H9.32812V2.25391V1.25391H1.90625V2.25391ZM9.32812 2.25391V3.25391C12.1694 3.25391 13.8652 3.37468 14.569 3.5635L14.8281 2.59766L15.0873 1.63181C14.0827 1.3623 12.1119 1.25391 9.32812 1.25391V2.25391ZM14.8281 2.59766L14.5748 3.56503C15.6559 3.84817 16.5703 4.46214 17.331 5.45564L18.125 4.84766L18.919 4.23968C17.9089 2.92068 16.6254 2.03464 15.0815 1.63028L14.8281 2.59766ZM18.125 4.84766L17.3337 5.4591C18.0521 6.38875 18.4531 7.64094 18.4531 9.30078H19.4531H20.4531C20.4531 7.31479 19.9688 5.59823 18.9163 4.23621L18.125 4.84766ZM19.4531 9.30078H18.4531C18.4531 10.59 18.2188 11.6004 17.8049 12.3776L18.6875 12.8477L19.5701 13.3177C20.177 12.1783 20.4531 10.824 20.4531 9.30078H19.4531ZM18.6875 12.8477L17.8049 12.3776C17.3594 13.2139 16.8088 13.8422 16.1624 14.293L16.7344 15.1133L17.3064 15.9335C18.2433 15.2802 18.9947 14.3981 19.5701 13.3177L18.6875 12.8477ZM16.7344 15.1133L16.1646 14.2915C15.4757 14.7691 14.7983 15.0689 14.1308 15.2143L14.3438 16.1914L14.5567 17.1685C15.5142 16.9598 16.4306 16.5408 17.3042 15.9351L16.7344 15.1133ZM14.3438 16.1914L14.1494 15.2105C13.1422 15.41 11.6208 15.5195 9.54688 15.5195V16.5195V17.5195C11.6604 17.5195 13.337 17.4103 14.5381 17.1723L14.3438 16.1914ZM9.54688 16.5195V15.5195H6.53125V16.5195V17.5195H9.54688V16.5195ZM6.53125 16.5195H5.53125V25.1602H6.53125H7.53125V16.5195H6.53125ZM6.53125 25.1602V24.1602H1.90625V25.1602V26.1602H6.53125V25.1602ZM6.53125 6.12891H5.53125V12.6289H6.53125H7.53125V6.12891H6.53125ZM6.53125 12.6289V13.6289H9.0625V12.6289V11.6289H6.53125V12.6289ZM9.0625 12.6289V13.6289C9.99251 13.6289 10.7882 13.5985 11.4416 13.5343C12.0783 13.4717 12.6455 13.3714 13.082 13.2012L12.7188 12.2695L12.3555 11.3378C12.1774 11.4073 11.8279 11.4867 11.2459 11.5439C10.6806 11.5994 9.9554 11.6289 9.0625 11.6289V12.6289ZM12.7188 12.2695L13.082 13.2012C13.8719 12.8933 14.5198 12.3949 14.9857 11.7031L14.1562 11.1445L13.3268 10.5859C13.1052 10.915 12.7947 11.1666 12.3555 11.3378L12.7188 12.2695ZM14.1562 11.1445L14.9778 11.7146C15.4587 11.0217 15.6875 10.2249 15.6875 9.36328H14.6875H13.6875C13.6875 9.8558 13.5622 10.2466 13.3347 10.5744L14.1562 11.1445ZM14.6875 9.36328H15.6875C15.6875 8.31966 15.3743 7.38176 14.695 6.63024L13.9531 7.30078L13.2113 7.97132C13.5112 8.30314 13.6875 8.74023 13.6875 9.36328H14.6875ZM13.9531 7.30078L14.695 6.63024C14.0503 5.91701 13.2287 5.47392 12.2714 5.30107L12.0938 6.28516L11.9161 7.26924C12.4588 7.36723 12.8767 7.60122 13.2113 7.97132L13.9531 7.30078ZM12.0938 6.28516L12.2792 5.30249C11.6201 5.17814 10.4171 5.12891 8.76562 5.12891V6.12891V7.12891C10.4475 7.12891 11.4632 7.18384 11.9083 7.26782L12.0938 6.28516ZM8.76562 6.12891V5.12891H6.53125V6.12891V7.12891H8.76562V6.12891ZM27.5194 7.97266L26.6062 7.565L26.6043 7.56931L27.5194 7.97266ZM29.6444 4.83203L28.9293 4.13299L28.9253 4.13715L29.6444 4.83203ZM32.6131 2.76953L32.9984 3.69235L33.003 3.69041L32.6131 2.76953ZM45.6444 5.00391L44.9248 5.69838L44.9266 5.70022L45.6444 5.00391ZM45.6756 22.4258L46.3952 23.1202L46.3969 23.1184L45.6756 22.4258ZM29.4881 22.4414L28.7685 23.1358L28.7703 23.1376L29.4881 22.4414ZM33.035 19.5977L32.2885 20.2631L32.2911 20.266L33.035 19.5977ZM42.1287 19.6133L41.382 18.9482L41.3817 18.9486L42.1287 19.6133ZM42.1756 7.75391L41.4275 8.41753L41.4305 8.42088L42.1756 7.75391ZM32.9881 7.78516L33.7329 8.45248L33.7355 8.44952L32.9881 7.78516ZM26.4725 13.8477H27.4725C27.4725 11.6075 27.8084 9.79618 28.4344 8.376L27.5194 7.97266L26.6043 7.56931C25.8345 9.3158 25.4725 11.4212 25.4725 13.8477H26.4725ZM27.5194 7.97266L28.4325 8.38031C28.9055 7.32092 29.5478 6.37105 30.3635 5.52691L29.6444 4.83203L28.9253 4.13715C27.9493 5.14718 27.175 6.29106 26.6062 7.56501L27.5194 7.97266ZM29.6444 4.83203L30.3595 5.53106C31.1827 4.68889 32.0628 4.08291 32.9984 3.69234L32.6131 2.76953L32.2279 1.84672C31.0176 2.35198 29.9185 3.12101 28.9293 4.133L29.6444 4.83203ZM32.6131 2.76953L33.003 3.69041C34.2844 3.14793 35.7933 2.86328 37.5506 2.86328V1.86328V0.863281C35.5787 0.863281 33.7961 1.1828 32.2233 1.84866L32.6131 2.76953ZM37.5506 1.86328V2.86328C40.7014 2.86328 43.1229 3.8314 44.9249 5.69837L45.6444 5.00391L46.3639 4.30944C44.1242 1.98891 41.1498 0.863281 37.5506 0.863281V1.86328ZM45.6444 5.00391L44.9266 5.70022C46.7303 7.55942 47.6912 10.1936 47.6912 13.7383H48.6912H49.6912C49.6912 9.82466 48.6209 6.63589 46.3621 4.30759L45.6444 5.00391ZM48.6912 13.7383H47.6912C47.6912 17.2518 46.7406 19.8728 44.9543 21.7332L45.6756 22.4258L46.3969 23.1184C48.6315 20.7912 49.6912 17.6206 49.6912 13.7383H48.6912ZM45.6756 22.4258L44.956 21.7314C43.1649 23.5875 40.7542 24.5508 37.6131 24.5508V25.5508V26.5508C41.2013 26.5508 44.1655 25.4307 46.3952 23.1202L45.6756 22.4258ZM37.6131 25.5508V24.5508C34.4249 24.5508 31.9944 23.5892 30.206 21.7452L29.4881 22.4414L28.7703 23.1376C31.0027 25.4394 33.9889 26.5508 37.6131 26.5508V25.5508ZM29.4881 22.4414L30.2077 21.747C28.4208 19.8952 27.4725 17.3048 27.4725 13.8477H26.4725H25.4725C25.4725 17.6822 26.5347 20.8209 28.7685 23.1358L29.4881 22.4414ZM31.2381 13.6914H30.2381C30.2381 16.4238 30.868 18.6696 32.2885 20.2631L33.035 19.5977L33.7815 18.9322C32.8061 17.8382 32.2381 16.1465 32.2381 13.6914H31.2381ZM33.035 19.5977L32.2911 20.266C33.6848 21.8172 35.4792 22.5977 37.5975 22.5977V21.5977V20.5977C36.0283 20.5977 34.781 20.0448 33.7789 18.9293L33.035 19.5977ZM37.5975 21.5977V22.5977C39.7133 22.5977 41.5003 21.824 42.8758 20.278L42.1287 19.6133L41.3817 18.9486C40.4031 20.0484 39.1692 20.5977 37.5975 20.5977V21.5977ZM42.1287 19.6133L42.8755 20.2784C44.2898 18.6903 44.91 16.4138 44.91 13.6289H43.91H42.91C42.91 16.1565 42.3427 17.8695 41.382 18.9482L42.1287 19.6133ZM43.91 13.6289H44.91C44.91 10.8804 44.3077 8.6364 42.9207 7.08694L42.1756 7.75391L41.4305 8.42088C42.356 9.45475 42.91 11.1274 42.91 13.6289H43.91ZM42.1756 7.75391L42.9237 7.09029C41.5671 5.56098 39.7564 4.81641 37.5975 4.81641V5.81641V6.81641C39.2511 6.81641 40.4925 7.3635 41.4276 8.41752L42.1756 7.75391ZM37.5975 5.81641V4.81641C35.4331 4.81641 33.6147 5.5751 32.2407 7.12079L32.9881 7.78516L33.7355 8.44952C34.6949 7.37021 35.9494 6.81641 37.5975 6.81641V5.81641ZM32.9881 7.78516L32.2434 7.11784C30.8463 8.6771 30.2381 10.931 30.2381 13.6914H31.2381H32.2381C32.2381 11.181 32.7967 9.49738 33.7329 8.45247L32.9881 7.78516ZM56.4919 25.1602H55.4919V26.1602H56.4919V25.1602ZM56.4919 2.25391V1.25391H55.4919V2.25391H56.4919ZM71.5544 2.87891L71.2013 3.81457L71.2119 3.81844L71.5544 2.87891ZM73.7106 12.9414L74.4515 13.6131L74.4546 13.6096L73.7106 12.9414ZM69.1794 15.0508L69.0358 14.0611L66.2028 14.4721L68.6755 15.9146L69.1794 15.0508ZM71.6481 16.9727L70.9141 17.6519L70.9196 17.6577L71.6481 16.9727ZM74.2887 20.6914L73.4388 21.2183L73.4411 21.2219L74.2887 20.6914ZM77.0856 25.1602V26.1602H78.8912L77.9333 24.6296L77.0856 25.1602ZM71.5544 25.1602L70.7239 25.7173L71.021 26.1602H71.5544V25.1602ZM68.2106 20.1758L67.3786 20.7305L67.3802 20.7329L68.2106 20.1758ZM65.7731 16.8164L65.042 17.4988L65.0498 17.5069L65.7731 16.8164ZM64.3825 15.8633L64.0424 16.8037L64.0513 16.8069L64.0602 16.8099L64.3825 15.8633ZM61.1169 15.5977V14.5977H60.1169V15.5977H61.1169ZM61.1169 25.1602V26.1602H62.1169V25.1602H61.1169ZM61.1169 11.9414H60.1169V12.9414H61.1169V11.9414ZM69.8356 7.11328L69.0729 7.75997L69.0804 7.7689L69.0882 7.77765L69.8356 7.11328ZM68.1012 6.20703L68.2656 5.22064L68.2523 5.21841L68.2388 5.21654L68.1012 6.20703ZM61.1169 6.12891V5.12891H60.1169V6.12891H61.1169ZM56.4919 25.1602H57.4919V2.25391H56.4919H55.4919V25.1602H56.4919ZM56.4919 2.25391V3.25391H66.2262V2.25391V1.25391H56.4919V2.25391ZM66.2262 2.25391V3.25391C68.6548 3.25391 70.2766 3.46555 71.2013 3.81451L71.5544 2.87891L71.9074 1.9433C70.6238 1.45893 68.6935 1.25391 66.2262 1.25391V2.25391ZM71.5544 2.87891L71.2119 3.81844C72.1082 4.14513 72.8268 4.72611 73.3816 5.60166L74.2262 5.06641L75.0709 4.53116C74.2924 3.30254 73.2297 2.42519 71.8968 1.93937L71.5544 2.87891ZM74.2262 5.06641L73.3816 5.60166C73.938 6.47972 74.2262 7.49396 74.2262 8.67578H75.2262H76.2262C76.2262 7.14927 75.8479 5.75726 75.0709 4.53116L74.2262 5.06641ZM75.2262 8.67578H74.2262C74.2262 10.1839 73.7896 11.3569 72.9666 12.2732L73.7106 12.9414L74.4546 13.6096C75.6525 12.2759 76.2262 10.6051 76.2262 8.67578H75.2262ZM73.7106 12.9414L72.9697 12.2698C72.1626 13.1602 70.8968 13.7911 69.0358 14.0611L69.1794 15.0508L69.3229 16.0404C71.4827 15.7271 73.2379 14.9518 74.4515 13.613L73.7106 12.9414ZM69.1794 15.0508L68.6755 15.9146C69.608 16.4585 70.3482 17.0403 70.9142 17.6518L71.6481 16.9727L72.3821 16.2935C71.6564 15.5092 70.7508 14.8097 69.6832 14.187L69.1794 15.0508ZM71.6481 16.9727L70.9196 17.6577C71.5023 18.2774 72.3385 19.4433 73.4388 21.2183L74.2887 20.6914L75.1387 20.1645C74.0307 18.3771 73.1064 17.0637 72.3766 16.2876L71.6481 16.9727ZM74.2887 20.6914L73.4411 21.2219L76.238 25.6907L77.0856 25.1602L77.9333 24.6296L75.1364 20.1609L74.2887 20.6914ZM77.0856 25.1602V24.1602H71.5544V25.1602V26.1602H77.0856V25.1602ZM71.5544 25.1602L72.3848 24.6031L69.0411 19.6187L68.2106 20.1758L67.3802 20.7329L70.7239 25.7173L71.5544 25.1602ZM68.2106 20.1758L69.0427 19.6211C67.8677 17.8586 67.006 16.6597 66.4965 16.1259L65.7731 16.8164L65.0498 17.5069C65.4153 17.8898 66.1786 18.9305 67.3786 20.7305L68.2106 20.1758ZM65.7731 16.8164L66.5042 16.1341C65.9808 15.5733 65.3834 15.1477 64.7048 14.9166L64.3825 15.8633L64.0602 16.8099C64.3608 16.9122 64.6904 17.122 65.0421 17.4987L65.7731 16.8164ZM64.3825 15.8633L64.7226 14.9229C64.0608 14.6835 63.1379 14.5977 62.0544 14.5977V15.5977V16.5977C63.0958 16.5977 63.725 16.6889 64.0424 16.8037L64.3825 15.8633ZM62.0544 15.5977V14.5977H61.1169V15.5977V16.5977H62.0544V15.5977ZM61.1169 15.5977H60.1169V25.1602H61.1169H62.1169V15.5977H61.1169ZM61.1169 25.1602V24.1602H56.4919V25.1602V26.1602H61.1169V25.1602ZM61.1169 11.9414V12.9414H64.5387V11.9414V10.9414H61.1169V11.9414ZM64.5387 11.9414V12.9414C65.6591 12.9414 66.585 12.9178 67.3094 12.8688C68.0025 12.8219 68.6044 12.747 69.0166 12.607L68.695 11.6602L68.3734 10.7133C68.2335 10.7608 67.8666 10.8265 67.1744 10.8734C66.5133 10.9181 65.6372 10.9414 64.5387 10.9414V11.9414ZM68.695 11.6602L69.0166 12.607C69.7628 12.3536 70.3769 11.9018 70.8181 11.2547L69.9919 10.6914L69.1656 10.1281C68.9818 10.3977 68.7314 10.5917 68.3734 10.7133L68.695 11.6602ZM69.9919 10.6914L70.8181 11.2547C71.2683 10.5944 71.4606 9.8127 71.4606 8.97266H70.4606H69.4606C69.4606 9.50762 69.3404 9.87175 69.1656 10.1281L69.9919 10.6914ZM70.4606 8.97266H71.4606C71.4606 8.01546 71.1975 7.1402 70.583 6.44892L69.8356 7.11328L69.0882 7.77765C69.3071 8.02386 69.4606 8.38819 69.4606 8.97266H70.4606ZM69.8356 7.11328L70.5984 6.4666C70.0087 5.77103 69.1979 5.37601 68.2656 5.22064L68.1012 6.20703L67.9369 7.19343C68.5046 7.28805 68.8501 7.4972 69.0729 7.75997L69.8356 7.11328ZM68.1012 6.20703L68.2388 5.21654C67.7777 5.15249 66.5657 5.12891 64.7262 5.12891V6.12891V7.12891C66.6368 7.12891 67.6748 7.1574 67.9637 7.19752L68.1012 6.20703ZM64.7262 6.12891V5.12891H61.1169V6.12891V7.12891H64.7262V6.12891ZM61.1169 6.12891H60.1169V11.9414H61.1169H62.1169V6.12891H61.1169ZM88.9175 25.1602H87.9175V26.1602H88.9175V25.1602ZM88.9175 6.12891H89.9175V5.12891H88.9175V6.12891ZM82.1206 6.12891H81.1206V7.12891H82.1206V6.12891ZM82.1206 2.25391V1.25391H81.1206V2.25391H82.1206ZM100.324 2.25391H101.324V1.25391H100.324V2.25391ZM100.324 6.12891V7.12891H101.324V6.12891H100.324ZM93.5425 6.12891V5.12891H92.5425V6.12891H93.5425ZM93.5425 25.1602V26.1602H94.5425V25.1602H93.5425ZM88.9175 25.1602H89.9175V6.12891H88.9175H87.9175V25.1602H88.9175ZM88.9175 6.12891V5.12891H82.1206V6.12891V7.12891H88.9175V6.12891ZM82.1206 6.12891H83.1206V2.25391H82.1206H81.1206V6.12891H82.1206ZM82.1206 2.25391V3.25391H100.324V2.25391V1.25391H82.1206V2.25391ZM100.324 2.25391H99.3237V6.12891H100.324H101.324V2.25391H100.324ZM100.324 6.12891V5.12891H93.5425V6.12891V7.12891H100.324V6.12891ZM93.5425 6.12891H92.5425V25.1602H93.5425H94.5425V6.12891H93.5425ZM93.5425 25.1602V24.1602H88.9175V25.1602V26.1602H93.5425V25.1602ZM107.515 25.1602H106.515V26.1602H107.515V25.1602ZM107.515 2.25391V1.25391H106.515V2.25391H107.515ZM123.218 2.25391H124.218V1.25391H123.218V2.25391ZM123.218 6.12891V7.12891H124.218V6.12891H123.218ZM112.14 6.12891V5.12891H111.14V6.12891H112.14ZM112.14 11.5508H111.14V12.5508H112.14V11.5508ZM121.702 11.5508H122.702V10.5508H121.702V11.5508ZM121.702 15.4258V16.4258H122.702V15.4258H121.702ZM112.14 15.4258V14.4258H111.14V15.4258H112.14ZM112.14 25.1602V26.1602H113.14V25.1602H112.14ZM107.515 25.1602H108.515V2.25391H107.515H106.515V25.1602H107.515ZM107.515 2.25391V3.25391H123.218V2.25391V1.25391H107.515V2.25391ZM123.218 2.25391H122.218V6.12891H123.218H124.218V2.25391H123.218ZM123.218 6.12891V5.12891H112.14V6.12891V7.12891H123.218V6.12891ZM112.14 6.12891H111.14V11.5508H112.14H113.14V6.12891H112.14ZM112.14 11.5508V12.5508H121.702V11.5508V10.5508H112.14V11.5508ZM121.702 11.5508H120.702V15.4258H121.702H122.702V11.5508H121.702ZM121.702 15.4258V14.4258H112.14V15.4258V16.4258H121.702V15.4258ZM112.14 15.4258H111.14V25.1602H112.14H113.14V15.4258H112.14ZM112.14 25.1602V24.1602H107.515V25.1602V26.1602H112.14V25.1602ZM131.316 7.97266L130.402 7.565L130.401 7.56931L131.316 7.97266ZM133.441 4.83203L132.726 4.13299L132.722 4.13715L133.441 4.83203ZM136.409 2.76953L136.795 3.69235L136.799 3.69041L136.409 2.76953ZM149.441 5.00391L148.721 5.69838L148.723 5.70022L149.441 5.00391ZM149.472 22.4258L150.191 23.1202L150.193 23.1184L149.472 22.4258ZM133.284 22.4414L132.565 23.1358L132.567 23.1376L133.284 22.4414ZM136.831 19.5977L136.085 20.2631L136.087 20.266L136.831 19.5977ZM145.925 19.6133L145.178 18.9482L145.178 18.9486L145.925 19.6133ZM145.972 7.75391L145.224 8.41753L145.227 8.42088L145.972 7.75391ZM136.784 7.78516L137.529 8.45248L137.532 8.44952L136.784 7.78516ZM130.269 13.8477H131.269C131.269 11.6075 131.605 9.79618 132.231 8.376L131.316 7.97266L130.401 7.56931C129.631 9.3158 129.269 11.4212 129.269 13.8477H130.269ZM131.316 7.97266L132.229 8.38031C132.702 7.32092 133.344 6.37105 134.16 5.52691L133.441 4.83203L132.722 4.13715C131.746 5.14718 130.971 6.29106 130.402 7.56501L131.316 7.97266ZM133.441 4.83203L134.156 5.53106C134.979 4.68889 135.859 4.08291 136.795 3.69234L136.409 2.76953L136.024 1.84672C134.814 2.35198 133.715 3.12101 132.726 4.133L133.441 4.83203ZM136.409 2.76953L136.799 3.69041C138.081 3.14793 139.59 2.86328 141.347 2.86328V1.86328V0.863281C139.375 0.863281 137.592 1.1828 136.02 1.84866L136.409 2.76953ZM141.347 1.86328V2.86328C144.498 2.86328 146.919 3.8314 148.721 5.69837L149.441 5.00391L150.16 4.30944C147.92 1.98891 144.946 0.863281 141.347 0.863281V1.86328ZM149.441 5.00391L148.723 5.70022C150.527 7.55942 151.488 10.1936 151.488 13.7383H152.488H153.488C153.488 9.82466 152.417 6.63589 150.158 4.30759L149.441 5.00391ZM152.488 13.7383H151.488C151.488 17.2518 150.537 19.8728 148.751 21.7332L149.472 22.4258L150.193 23.1184C152.428 20.7912 153.488 17.6206 153.488 13.7383H152.488ZM149.472 22.4258L148.752 21.7314C146.961 23.5875 144.55 24.5508 141.409 24.5508V25.5508V26.5508C144.998 26.5508 147.962 25.4307 150.191 23.1202L149.472 22.4258ZM141.409 25.5508V24.5508C138.221 24.5508 135.791 23.5892 134.002 21.7452L133.284 22.4414L132.567 23.1376C134.799 25.4394 137.785 26.5508 141.409 26.5508V25.5508ZM133.284 22.4414L134.004 21.747C132.217 19.8952 131.269 17.3048 131.269 13.8477H130.269H129.269C129.269 17.6822 130.331 20.8209 132.565 23.1358L133.284 22.4414ZM135.034 13.6914H134.034C134.034 16.4238 134.664 18.6696 136.085 20.2631L136.831 19.5977L137.578 18.9322C136.602 17.8382 136.034 16.1465 136.034 13.6914H135.034ZM136.831 19.5977L136.087 20.266C137.481 21.8172 139.275 22.5977 141.394 22.5977V21.5977V20.5977C139.825 20.5977 138.577 20.0448 137.575 18.9293L136.831 19.5977ZM141.394 21.5977V22.5977C143.51 22.5977 145.297 21.824 146.672 20.278L145.925 19.6133L145.178 18.9486C144.199 20.0484 142.965 20.5977 141.394 20.5977V21.5977ZM145.925 19.6133L146.672 20.2784C148.086 18.6903 148.706 16.4138 148.706 13.6289H147.706H146.706C146.706 16.1565 146.139 17.8695 145.178 18.9482L145.925 19.6133ZM147.706 13.6289H148.706C148.706 10.8804 148.104 8.6364 146.717 7.08694L145.972 7.75391L145.227 8.42088C146.152 9.45475 146.706 11.1274 146.706 13.6289H147.706ZM145.972 7.75391L146.72 7.09029C145.363 5.56098 143.553 4.81641 141.394 4.81641V5.81641V6.81641C143.047 6.81641 144.289 7.3635 145.224 8.41752L145.972 7.75391ZM141.394 5.81641V4.81641C139.229 4.81641 137.411 5.5751 136.037 7.12079L136.784 7.78516L137.532 8.44952C138.491 7.37021 139.746 6.81641 141.394 6.81641V5.81641ZM136.784 7.78516L136.04 7.11784C134.643 8.6771 134.034 10.931 134.034 13.6914H135.034H136.034C136.034 11.181 136.593 9.49738 137.529 8.45247L136.784 7.78516ZM160.397 25.1602H159.397V26.1602H160.397V25.1602ZM160.397 2.44141V1.44141H159.397V2.44141H160.397ZM165.022 2.44141H166.022V1.44141H165.022V2.44141ZM165.022 21.3008H164.022V22.3008H165.022V21.3008ZM176.522 21.3008H177.522V20.3008H176.522V21.3008ZM176.522 25.1602V26.1602H177.522V25.1602H176.522ZM160.397 25.1602H161.397V2.44141H160.397H159.397V25.1602H160.397ZM160.397 2.44141V3.44141H165.022V2.44141V1.44141H160.397V2.44141ZM165.022 2.44141H164.022V21.3008H165.022H166.022V2.44141H165.022ZM165.022 21.3008V22.3008H176.522V21.3008V20.3008H165.022V21.3008ZM176.522 21.3008H175.522V25.1602H176.522H177.522V21.3008H176.522ZM176.522 25.1602V24.1602H160.397V25.1602V26.1602H176.522V25.1602ZM183.854 25.1602H182.854V26.1602H183.854V25.1602ZM183.854 2.25391V1.25391H182.854V2.25391H183.854ZM188.479 2.25391H189.479V1.25391H188.479V2.25391ZM188.479 25.1602V26.1602H189.479V25.1602H188.479ZM183.854 25.1602H184.854V2.25391H183.854H182.854V25.1602H183.854ZM183.854 2.25391V3.25391H188.479V2.25391V1.25391H183.854V2.25391ZM188.479 2.25391H187.479V25.1602H188.479H189.479V2.25391H188.479ZM188.479 25.1602V24.1602H183.854V25.1602V26.1602H188.479V25.1602ZM197.171 7.97266L196.257 7.565L196.256 7.56931L197.171 7.97266ZM199.296 4.83203L198.581 4.13299L198.577 4.13715L199.296 4.83203ZM202.264 2.76953L202.65 3.69235L202.654 3.69041L202.264 2.76953ZM215.296 5.00391L214.576 5.69838L214.578 5.70022L215.296 5.00391ZM215.327 22.4258L216.046 23.1202L216.048 23.1184L215.327 22.4258ZM199.139 22.4414L198.42 23.1358L198.422 23.1376L199.139 22.4414ZM202.686 19.5977L201.94 20.2631L201.942 20.266L202.686 19.5977ZM211.78 19.6133L211.033 18.9482L211.033 18.9486L211.78 19.6133ZM211.827 7.75391L211.079 8.41753L211.082 8.42088L211.827 7.75391ZM202.639 7.78516L203.384 8.45248L203.387 8.44952L202.639 7.78516ZM196.124 13.8477H197.124C197.124 11.6075 197.46 9.79618 198.086 8.376L197.171 7.97266L196.256 7.56931C195.486 9.3158 195.124 11.4212 195.124 13.8477H196.124ZM197.171 7.97266L198.084 8.38031C198.557 7.32092 199.199 6.37105 200.015 5.52691L199.296 4.83203L198.577 4.13715C197.601 5.14718 196.826 6.29106 196.257 7.56501L197.171 7.97266ZM199.296 4.83203L200.011 5.53106C200.834 4.68889 201.714 4.08291 202.65 3.69234L202.264 2.76953L201.879 1.84672C200.669 2.35198 199.57 3.12101 198.581 4.133L199.296 4.83203ZM202.264 2.76953L202.654 3.69041C203.936 3.14793 205.445 2.86328 207.202 2.86328V1.86328V0.863281C205.23 0.863281 203.447 1.1828 201.875 1.84866L202.264 2.76953ZM207.202 1.86328V2.86328C210.353 2.86328 212.774 3.8314 214.576 5.69837L215.296 5.00391L216.015 4.30944C213.775 1.98891 210.801 0.863281 207.202 0.863281V1.86328ZM215.296 5.00391L214.578 5.70022C216.382 7.55942 217.342 10.1936 217.342 13.7383H218.342H219.342C219.342 9.82466 218.272 6.63589 216.013 4.30759L215.296 5.00391ZM218.342 13.7383H217.342C217.342 17.2518 216.392 19.8728 214.606 21.7332L215.327 22.4258L216.048 23.1184C218.283 20.7912 219.342 17.6206 219.342 13.7383H218.342ZM215.327 22.4258L214.607 21.7314C212.816 23.5875 210.405 24.5508 207.264 24.5508V25.5508V26.5508C210.853 26.5508 213.817 25.4307 216.046 23.1202L215.327 22.4258ZM207.264 25.5508V24.5508C204.076 24.5508 201.646 23.5892 199.857 21.7452L199.139 22.4414L198.422 23.1376C200.654 25.4394 203.64 26.5508 207.264 26.5508V25.5508ZM199.139 22.4414L199.859 21.747C198.072 19.8952 197.124 17.3048 197.124 13.8477H196.124H195.124C195.124 17.6822 196.186 20.8209 198.42 23.1358L199.139 22.4414ZM200.889 13.6914H199.889C199.889 16.4238 200.519 18.6696 201.94 20.2631L202.686 19.5977L203.433 18.9322C202.457 17.8382 201.889 16.1465 201.889 13.6914H200.889ZM202.686 19.5977L201.942 20.266C203.336 21.8172 205.13 22.5977 207.249 22.5977V21.5977V20.5977C205.68 20.5977 204.432 20.0448 203.43 18.9293L202.686 19.5977ZM207.249 21.5977V22.5977C209.365 22.5977 211.152 21.824 212.527 20.278L211.78 19.6133L211.033 18.9486C210.054 20.0484 208.82 20.5977 207.249 20.5977V21.5977ZM211.78 19.6133L212.527 20.2784C213.941 18.6903 214.561 16.4138 214.561 13.6289H213.561H212.561C212.561 16.1565 211.994 17.8695 211.033 18.9482L211.78 19.6133ZM213.561 13.6289H214.561C214.561 10.8804 213.959 8.6364 212.572 7.08694L211.827 7.75391L211.082 8.42088C212.007 9.45475 212.561 11.1274 212.561 13.6289H213.561ZM211.827 7.75391L212.575 7.09029C211.218 5.56098 209.408 4.81641 207.249 4.81641V5.81641V6.81641C208.902 6.81641 210.144 7.3635 211.079 8.41752L211.827 7.75391ZM207.249 5.81641V4.81641C205.084 4.81641 203.266 5.5751 201.892 7.12079L202.639 7.78516L203.387 8.44952C204.346 7.37021 205.601 6.81641 207.249 6.81641V5.81641ZM202.639 7.78516L201.895 7.11784C200.498 8.6771 199.889 10.931 199.889 13.6914H200.889H201.889C201.889 11.181 202.448 9.49738 203.384 8.45247L202.639 7.78516Z" fill="#121212" mask="url(#path-1-outside-1_1361_464)"/>
</svg>
