<svg width="62" height="62" viewBox="0 0 62 62" fill="none" xmlns="http://www.w3.org/2000/svg">
<path d="M60.8334 27.9838C59.991 12.6637 47.1883 0.5 31.5148 0.5H30.1341C14.4628 0.5 1.65791 12.6637 0.815482 27.9838H0.769531V29.5923V60.6097H60.8794V29.5923V27.9838H60.8334Z" stroke="#121212" stroke-miterlimit="10"/>
<path d="M30.8242 0.582275V5.57913" stroke="#121212" stroke-miterlimit="10"/>
<path d="M30.824 5.50757L22.3516 12.3861H39.2942L30.824 5.50757Z" stroke="#121212" stroke-miterlimit="10"/>
<path d="M33.8391 12.4858C33.8391 14.1356 32.489 15.4731 30.8238 15.4731C29.1587 15.4731 27.8086 14.1356 27.8086 12.4858" stroke="#121212" stroke-miterlimit="10"/>
<path d="M35.7418 20.262H25.9062V34.1058H35.7418V20.262Z" stroke="#121212" stroke-miterlimit="10"/>
<path d="M21.5233 38.7666H40.1267C42.0828 38.7666 43.6714 40.3404 43.6714 42.2785V51.611H17.9785V42.2785C17.9785 40.3404 19.5671 38.7666 21.5233 38.7666Z" fill="white" stroke="#121212" stroke-miterlimit="10"/>
<path d="M46.5589 49.3196H15.0938V58.9318H46.5589V49.3196Z" fill="white" stroke="#121212" stroke-miterlimit="10"/>
<path d="M48.4929 44.8865C49.5607 44.8865 50.4294 45.7449 50.4294 46.805V60.6119H46.5586V46.805C46.5586 45.7471 47.4251 44.8865 48.4951 44.8865H48.4929Z" fill="white" stroke="#121212" stroke-miterlimit="10"/>
<path d="M13.157 44.8865C14.2248 44.8865 15.0934 45.7449 15.0934 46.805V60.6119H11.2227V46.805C11.2227 45.7471 12.0892 44.8865 13.1591 44.8865H13.157Z" fill="white" stroke="#121212" stroke-miterlimit="10"/>
<path d="M20.3682 44.8213H25.6044C27.6962 44.8213 29.3942 46.5035 29.3942 48.576V49.3174H16.5762V48.576C16.5762 46.5035 18.2742 44.8213 20.366 44.8213H20.3682Z" fill="white" stroke="#121212" stroke-miterlimit="10"/>
<path d="M36.2061 44.8213H41.4422C43.5341 44.8213 45.2321 46.5035 45.2321 48.576V49.3174H32.4141V48.576C32.4141 46.5035 34.112 44.8213 36.2039 44.8213H36.2061Z" fill="white" stroke="#121212" stroke-miterlimit="10"/>
<path d="M13.349 5.72241V33.0935H0.769531" stroke="#121212" stroke-miterlimit="10"/>
<path d="M48.3027 5.72241V33.0935H60.88" stroke="#121212" stroke-miterlimit="10"/>
</svg>
