<svg width="295" height="29" viewBox="0 0 295 29" fill="none" xmlns="http://www.w3.org/2000/svg">
<g clip-path="url(#clip0_823_1008)">
<path d="M7.28692 1.23444H0V27.4237H7.28692V1.23444Z" fill="black"/>
<path d="M180.109 27.4233H172.822V27.4981H180.109V27.4233Z" fill="black"/>
<path d="M180.109 1.23407H172.822V27.4233H180.109V1.23407Z" fill="black"/>
<path d="M196.185 1.23407H188.898V27.4233H196.185V1.23407Z" fill="black"/>
<path d="M196.185 27.4233H188.898V27.4981H196.185V27.4233Z" fill="black"/>
<path d="M229.201 1.23407H221.914V27.4233H229.201V1.23407Z" fill="black"/>
<path d="M229.201 27.4233H221.914V27.4981H229.201V27.4233Z" fill="black"/>
<path d="M217.371 9.91095H200.867V17.1979H217.371V9.91095Z" fill="black"/>
<path d="M245.75 27.4233H238.463V27.4981H245.75V27.4233Z" fill="black"/>
<path d="M245.75 1.23407H238.463V27.4233H245.75V1.23407Z" fill="black"/>
<path d="M262.137 27.4233H254.85V27.4981H262.137V27.4233Z" fill="black"/>
<path d="M262.137 1.23407H254.85V27.4233H262.137V1.23407Z" fill="black"/>
<path d="M294.99 27.4233H287.703V27.4981H294.99V27.4233Z" fill="black"/>
<path d="M294.99 1.23407H287.703V27.4233H294.99V1.23407Z" fill="black"/>
<path d="M156.507 1.23407L156.504 1.23108L156.501 1.23407H149.215V27.4233V27.4981H156.502V27.4233V11.1584L164.142 18.4383L169.1 13.2354L156.507 1.23407Z" fill="black"/>
<path d="M275.602 18.4383L280.561 13.2354L267.968 1.23407H267.962L263.006 6.43403L275.602 18.4383Z" fill="black"/>
<path d="M267.965 1.23108L267.961 1.2348H267.968L267.965 1.23108Z" fill="black"/>
<path d="M18.682 10.9759H10.5156V16.9985H18.682V10.9759Z" fill="black"/>
<path d="M18.6836 1.23407V10.9759V16.9985V27.4233H25.9715V1.23407H18.6836Z" fill="black"/>
<path d="M146.541 6.72319V1.23407H133.943H133.465H126.656V27.4233H133.465H133.943H146.541V21.9342H133.943V16.7113H143.561V11.2222H133.943V6.72319H146.541Z" fill="black"/>
<path d="M45.1695 1.23407H36.2592L27.0938 27.4233H34.8144L36.8964 21.4735H44.5313L46.6133 27.4233H54.3339L45.1695 1.23407ZM38.9375 15.6404L40.7133 10.5651L42.4892 15.6404H38.9375Z" fill="black"/>
<path d="M72.8142 1.23407H71.7373V10.9819V14.7849L62.3953 1.63092L62.1132 1.23407H59.5934H55.1074V10.9759V16.9985V27.4233H62.3953V12.6221L62.5369 12.8225L66.5294 18.4433L71.7373 25.7751L72.8142 27.2907L72.9199 27.4393H74.4704H79.0252V1.23407H72.8142Z" fill="black"/>
<path d="M94.8428 7.52486C94.5696 7.08513 94.1747 6.75509 93.6582 6.53473C93.1417 6.31536 92.4916 6.20468 91.7079 6.20468C90.9959 6.20468 90.3987 6.29941 89.9181 6.48786C89.4374 6.67632 89.0745 6.93756 88.8322 7.2706C88.5889 7.60363 88.4673 7.98453 88.4673 8.4113C88.4433 9.1023 88.7165 9.6557 89.2869 10.0705C89.8572 10.4853 90.7646 10.8502 92.012 11.1643L94.1668 11.617C96.9088 12.2462 98.924 13.2543 100.213 14.6433C101.502 16.0323 102.158 17.8011 102.182 19.9509C102.182 21.7228 101.763 23.2284 100.926 24.4669C100.09 25.7053 98.8961 26.6545 97.3466 27.3136C95.797 27.9737 93.9364 28.3037 91.7637 28.3037C89.591 28.3037 87.5728 27.9458 85.9226 27.2289C84.2724 26.5119 83.0021 25.4281 82.1116 23.9763C81.2212 22.5245 80.7586 20.7047 80.7227 18.5181H87.2049C87.2518 19.3477 87.4602 20.0546 87.8281 20.6389C88.196 21.2232 88.7066 21.664 89.3597 21.9591C90.0128 22.2543 90.7845 22.4018 91.675 22.4018C92.4348 22.4018 93.0819 22.2951 93.6164 22.0818C94.1508 21.8684 94.5576 21.5792 94.8358 21.2143C95.115 20.8503 95.2546 20.4285 95.2546 19.9509C95.2546 19.4982 95.124 19.1094 94.8628 18.7823C94.6015 18.4552 94.1797 18.1631 93.5984 17.9058C93.0171 17.6486 92.2513 17.4123 91.3011 17.1989L88.7006 16.5767C86.3374 16.0492 84.5306 15.1598 83.2783 13.9084C82.0259 12.658 81.3997 10.9948 81.3997 8.92082C81.3997 7.22373 81.8384 5.72507 82.7179 4.42383C83.5963 3.1226 84.8158 2.11152 86.3773 1.38861C87.9388 0.665704 89.7226 0.304749 91.7288 0.304749C93.735 0.304749 95.5488 0.666701 97.0624 1.38861C98.576 2.11152 99.7486 3.13955 100.579 4.47169C101.41 5.80384 101.826 7.35037 101.826 9.11027H95.3254C95.2776 8.49406 95.118 7.96658 94.8448 7.52686L94.8428 7.52486Z" fill="black"/>
<path d="M117.335 7.52486C117.062 7.08513 116.667 6.75509 116.15 6.53473C115.634 6.31536 114.984 6.20468 114.2 6.20468C113.488 6.20468 112.891 6.29941 112.41 6.48786C111.93 6.67632 111.567 6.93756 111.324 7.2706C111.081 7.60363 110.959 7.98453 110.959 8.4113C110.936 9.1023 111.209 9.6557 111.779 10.0705C112.349 10.4853 113.257 10.8502 114.504 11.1643L116.659 11.617C119.401 12.2462 121.416 13.2543 122.705 14.6433C123.994 16.0323 124.65 17.8011 124.674 19.9509C124.674 21.7228 124.255 23.2284 123.418 24.4669C122.582 25.7053 121.388 26.6545 119.839 27.3136C118.289 27.9737 116.429 28.3037 114.256 28.3037C112.083 28.3037 110.065 27.9458 108.415 27.2289C106.765 26.5119 105.494 25.4281 104.604 23.9763C103.713 22.5245 103.251 20.7047 103.215 18.5181H109.697C109.744 19.3477 109.952 20.0546 110.32 20.6389C110.688 21.2232 111.199 21.664 111.852 21.9591C112.505 22.2543 113.277 22.4018 114.167 22.4018C114.927 22.4018 115.574 22.2951 116.109 22.0818C116.643 21.8684 117.05 21.5792 117.328 21.2143C117.607 20.8503 117.747 20.4285 117.747 19.9509C117.747 19.4982 117.616 19.1094 117.355 18.7823C117.094 18.4552 116.672 18.1631 116.091 17.9058C115.509 17.6486 114.743 17.4123 113.793 17.1989L111.193 16.5767C108.83 16.0492 107.023 15.1598 105.77 13.9084C104.518 12.658 103.892 10.9948 103.892 8.92082C103.892 7.22373 104.331 5.72507 105.21 4.42383C106.089 3.1226 107.308 2.11152 108.869 1.38861C110.431 0.665704 112.215 0.304749 114.221 0.304749C116.227 0.304749 118.041 0.666701 119.555 1.38861C121.068 2.11152 122.241 3.13955 123.071 4.47169C123.902 5.80384 124.318 7.35037 124.318 9.11027H117.818C117.77 8.49406 117.61 7.96658 117.337 7.52686L117.335 7.52486Z" fill="black"/>
</g>
<defs>
<clipPath id="clip0_823_1008">
<rect width="294.992" height="28" fill="white" transform="translate(0 0.303772)"/>
</clipPath>
</defs>
</svg>
