<svg width="25" height="24" viewBox="0 0 25 24" fill="none" xmlns="http://www.w3.org/2000/svg">
<path d="M7.66602 11.4542V6.62087C7.66602 5.33899 8.17524 4.10961 9.08167 3.20319C9.98809 2.29676 11.2175 1.78754 12.4993 1.78754C13.7812 1.78754 15.0106 2.29676 15.917 3.20319C16.8235 4.10961 17.3327 5.33899 17.3327 6.62087V11.4542" stroke="#121212" stroke-width="2" stroke-linecap="round"/>
<path d="M2.46293 12.2614C2.63814 10.1577 2.72635 9.10643 3.41993 8.46722C4.11351 7.82802 5.1696 7.82922 7.28056 7.82922H17.7193C19.8291 7.82922 20.8852 7.82922 21.5788 8.46722C22.2723 9.10522 22.3606 10.1577 22.5358 12.2614L23.1568 19.712C23.2583 20.936 23.3091 21.5486 22.9514 21.9389C22.5913 22.3292 21.9775 22.3292 20.7474 22.3292H4.25126C3.02239 22.3292 2.40735 22.3292 2.04847 21.9389C1.6896 21.5486 1.74035 20.936 1.84306 19.712L2.46293 12.2614Z" stroke="#121212" stroke-width="2"/>
</svg>
