<svg width="29" height="31" viewBox="0 0 29 31" fill="none" xmlns="http://www.w3.org/2000/svg">
<path d="M14.5 16.5538C16.502 16.5538 18.125 14.8748 18.125 12.8038C18.125 10.7327 16.502 9.05377 14.5 9.05377C12.498 9.05377 10.875 10.7327 10.875 12.8038C10.875 14.8748 12.498 16.5538 14.5 16.5538Z" stroke="white" stroke-width="2" stroke-linecap="round" stroke-linejoin="round"/>
<path d="M14.5007 2.80377C11.9369 2.80377 9.47814 3.85734 7.66529 5.7327C5.85243 7.60807 4.83398 10.1516 4.83398 12.8038C4.83398 15.1688 5.31973 16.7163 6.64648 18.4288L14.5007 27.8038L22.3548 18.4288C23.6816 16.7163 24.1673 15.1688 24.1673 12.8038C24.1673 10.1516 23.1489 7.60807 21.336 5.7327C19.5232 3.85734 17.0644 2.80377 14.5007 2.80377Z" stroke="white" stroke-width="2" stroke-linecap="round" stroke-linejoin="round"/>
</svg>
