<svg width="30" height="31" viewBox="0 0 30 31" fill="none" xmlns="http://www.w3.org/2000/svg">
<path d="M11.875 20.3038C9.60417 20.3038 7.6825 19.5171 6.11 17.9438C4.5375 16.3704 3.75083 14.4488 3.75 12.1788C3.74917 9.90877 4.53583 7.98711 6.11 6.41377C7.68417 4.84044 9.60583 4.05377 11.875 4.05377C14.1442 4.05377 16.0663 4.84044 17.6413 6.41377C19.2163 7.98711 20.0025 9.90877 20 12.1788C20 13.0954 19.8542 13.96 19.5625 14.7725C19.2708 15.585 18.875 16.3038 18.375 16.9288L25.375 23.9288C25.6042 24.1579 25.7188 24.4496 25.7188 24.8038C25.7188 25.1579 25.6042 25.4496 25.375 25.6788C25.1458 25.9079 24.8542 26.0225 24.5 26.0225C24.1458 26.0225 23.8542 25.9079 23.625 25.6788L16.625 18.6788C16 19.1788 15.2813 19.5746 14.4688 19.8663C13.6563 20.1579 12.7917 20.3038 11.875 20.3038ZM11.875 17.8038C13.4375 17.8038 14.7658 17.2571 15.86 16.1638C16.9542 15.0704 17.5008 13.7421 17.5 12.1788C17.4992 10.6154 16.9525 9.28752 15.86 8.19502C14.7675 7.10252 13.4392 6.55544 11.875 6.55377C10.3108 6.55211 8.98292 7.09919 7.89125 8.19502C6.79958 9.29086 6.2525 10.6188 6.25 12.1788C6.2475 13.7388 6.79458 15.0671 7.89125 16.1638C8.98792 17.2604 10.3158 17.8071 11.875 17.8038Z" fill="white"/>
</svg>
