<svg width="23" height="28" viewBox="0 0 23 28" fill="none" xmlns="http://www.w3.org/2000/svg">
<path d="M11.5 15.2042C13.502 15.2042 15.125 13.5253 15.125 11.4542C15.125 9.38316 13.502 7.70422 11.5 7.70422C9.49797 7.70422 7.875 9.38316 7.875 11.4542C7.875 13.5253 9.49797 15.2042 11.5 15.2042Z" stroke="#121212" stroke-width="2" stroke-linecap="round" stroke-linejoin="round"/>
<path d="M11.5007 1.45422C8.93689 1.45422 6.47814 2.50779 4.66529 4.38316C2.85243 6.25852 1.83398 8.80206 1.83398 11.4542C1.83398 13.8192 2.31973 15.3667 3.64648 17.0792L11.5007 26.4542L19.3548 17.0792C20.6816 15.3667 21.1673 13.8192 21.1673 11.4542C21.1673 8.80206 20.1489 6.25852 18.336 4.38316C16.5232 2.50779 14.0644 1.45422 11.5007 1.45422Z" stroke="#121212" stroke-width="2" stroke-linecap="round" stroke-linejoin="round"/>
</svg>
