<svg width="23" height="23" viewBox="0 0 23 23" fill="none" xmlns="http://www.w3.org/2000/svg">
<path d="M8.875 16.9542C6.60417 16.9542 4.6825 16.1676 3.11 14.5942C1.5375 13.0209 0.750834 11.0992 0.750001 8.82922C0.749167 6.55922 1.53583 4.63756 3.11 3.06422C4.68417 1.49089 6.60583 0.704224 8.875 0.704224C11.1442 0.704224 13.0663 1.49089 14.6413 3.06422C16.2163 4.63756 17.0025 6.55922 17 8.82922C17 9.74589 16.8542 10.6105 16.5625 11.423C16.2708 12.2355 15.875 12.9542 15.375 13.5792L22.375 20.5792C22.6042 20.8084 22.7188 21.1001 22.7188 21.4542C22.7188 21.8084 22.6042 22.1001 22.375 22.3292C22.1458 22.5584 21.8542 22.673 21.5 22.673C21.1458 22.673 20.8542 22.5584 20.625 22.3292L13.625 15.3292C13 15.8292 12.2813 16.2251 11.4688 16.5167C10.6563 16.8084 9.79167 16.9542 8.875 16.9542ZM8.875 14.4542C10.4375 14.4542 11.7658 13.9076 12.86 12.8142C13.9542 11.7209 14.5008 10.3926 14.5 8.82922C14.4992 7.26589 13.9525 5.93797 12.86 4.84547C11.7675 3.75297 10.4392 3.20589 8.875 3.20422C7.31083 3.20256 5.98292 3.74964 4.89125 4.84547C3.79958 5.94131 3.2525 7.26922 3.25 8.82922C3.2475 10.3892 3.79458 11.7176 4.89125 12.8142C5.98792 13.9109 7.31583 14.4576 8.875 14.4542Z" fill="#121212"/>
</svg>
