<svg width="21" height="21" viewBox="0 0 21 21" fill="none" xmlns="http://www.w3.org/2000/svg">
<path d="M10.5007 10.4542C9.17148 10.4542 8.03364 9.98094 7.08711 9.03441C6.14058 8.08788 5.66732 6.95004 5.66732 5.62087C5.66732 4.2917 6.14058 3.15386 7.08711 2.20733C8.03364 1.2608 9.17148 0.787537 10.5007 0.787537C11.8298 0.787537 12.9677 1.2608 13.9142 2.20733C14.8607 3.15386 15.334 4.2917 15.334 5.62087C15.334 6.95004 14.8607 8.08788 13.9142 9.03441C12.9677 9.98094 11.8298 10.4542 10.5007 10.4542ZM0.833984 17.7042V16.7375C0.833984 16.0528 1.0104 15.4237 1.36323 14.8501C1.71607 14.2766 2.1841 13.8383 2.76732 13.5355C4.01593 12.9111 5.28468 12.4431 6.57357 12.1314C7.86246 11.8196 9.17148 11.6633 10.5007 11.6625C11.8298 11.6617 13.1388 11.818 14.4277 12.1314C15.7166 12.4447 16.9854 12.9128 18.234 13.5355C18.818 13.8375 19.2864 14.2758 19.6393 14.8501C19.9921 15.4245 20.1681 16.0536 20.1673 16.7375V17.7042C20.1673 18.3688 19.9309 18.9379 19.458 19.4116C18.9852 19.8852 18.416 20.1217 17.7507 20.1209H3.25065C2.58607 20.1209 2.01735 19.8844 1.54448 19.4116C1.07162 18.9387 0.83479 18.3696 0.833984 17.7042ZM3.25065 17.7042H17.7507V16.7375C17.7507 16.516 17.6955 16.3146 17.5851 16.1334C17.4747 15.9521 17.3285 15.8111 17.1465 15.7105C16.059 15.1667 14.9614 14.7591 13.8538 14.4876C12.7461 14.2161 11.6284 14.08 10.5007 14.0792C9.37287 14.0784 8.25517 14.2145 7.14753 14.4876C6.03989 14.7607 4.94232 15.1683 3.85482 15.7105C3.67357 15.8111 3.52736 15.9521 3.41619 16.1334C3.30503 16.3146 3.24985 16.516 3.25065 16.7375V17.7042ZM10.5007 8.03754C11.1652 8.03754 11.7344 7.80111 12.208 7.32825C12.6817 6.85538 12.9181 6.28626 12.9173 5.62087C12.9165 4.95548 12.6801 4.38676 12.208 3.9147C11.736 3.44265 11.1668 3.20581 10.5007 3.2042C9.83446 3.20259 9.26573 3.43943 8.79448 3.9147C8.32323 4.38998 8.0864 4.9587 8.08398 5.62087C8.08157 6.28304 8.3184 6.85216 8.79448 7.32825C9.27057 7.80433 9.83929 8.04076 10.5007 8.03754Z" fill="#121212"/>
</svg>
