<svg width="29" height="30" viewBox="0 0 29 30" fill="none" xmlns="http://www.w3.org/2000/svg">
<path d="M9.66602 14.8038V9.97042C9.66602 8.68854 10.1752 7.45916 11.0817 6.55274C11.9881 5.64631 13.2175 5.13708 14.4993 5.13708C15.7812 5.13708 17.0106 5.64631 17.917 6.55274C18.8235 7.45916 19.3327 8.68854 19.3327 9.97042V14.8038" stroke="white" stroke-width="2" stroke-linecap="round"/>
<path d="M4.46293 15.6109C4.63814 13.5072 4.72635 12.456 5.41993 11.8168C6.11351 11.1776 7.1696 11.1788 9.28056 11.1788H19.7193C21.8291 11.1788 22.8852 11.1788 23.5788 11.8168C24.2723 12.4548 24.3606 13.5072 24.5358 15.6109L25.1568 23.0615C25.2583 24.2856 25.3091 24.8982 24.9514 25.2885C24.5913 25.6788 23.9775 25.6788 22.7474 25.6788H6.25126C5.02239 25.6788 4.40735 25.6788 4.04847 25.2885C3.6896 24.8982 3.74035 24.2856 3.84306 23.0615L4.46293 15.6109Z" stroke="white" stroke-width="2"/>
</svg>
