<svg width="29" height="30" viewBox="0 0 29 30" fill="none" xmlns="http://www.w3.org/2000/svg">
<path d="M14.5007 14.8038C13.1715 14.8038 12.0336 14.3305 11.0871 13.384C10.1406 12.4374 9.66732 11.2996 9.66732 9.97042C9.66732 8.64125 10.1406 7.5034 11.0871 6.55688C12.0336 5.61035 13.1715 5.13708 14.5007 5.13708C15.8298 5.13708 16.9677 5.61035 17.9142 6.55688C18.8607 7.5034 19.334 8.64125 19.334 9.97042C19.334 11.2996 18.8607 12.4374 17.9142 13.384C16.9677 14.3305 15.8298 14.8038 14.5007 14.8038ZM4.83398 22.0538V21.0871C4.83398 20.4024 5.0104 19.7732 5.36323 19.1997C5.71607 18.6261 6.1841 18.1879 6.76732 17.885C8.01593 17.2607 9.28468 16.7927 10.5736 16.4809C11.8625 16.1692 13.1715 16.0129 14.5007 16.0121C15.8298 16.0113 17.1388 16.1676 18.4277 16.4809C19.7166 16.7943 20.9854 17.2623 22.234 17.885C22.818 18.1871 23.2864 18.6253 23.6393 19.1997C23.9921 19.774 24.1681 20.4032 24.1673 21.0871V22.0538C24.1673 22.7183 23.9309 23.2875 23.458 23.7611C22.9852 24.2348 22.416 24.4712 21.7507 24.4704H7.25065C6.58607 24.4704 6.01735 24.234 5.54448 23.7611C5.07162 23.2883 4.83479 22.7191 4.83398 22.0538ZM7.25065 22.0538H21.7507V21.0871C21.7507 20.8656 21.6955 20.6642 21.5851 20.4829C21.4747 20.3017 21.3285 20.1607 21.1465 20.06C20.059 19.5163 18.9614 19.1086 17.8538 18.8372C16.7461 18.5657 15.6284 18.4296 14.5007 18.4288C13.3729 18.4279 12.2552 18.5641 11.1475 18.8372C10.0399 19.1103 8.94232 19.5179 7.85482 20.06C7.67357 20.1607 7.52736 20.3017 7.41619 20.4829C7.30503 20.6642 7.24985 20.8656 7.25065 21.0871V22.0538ZM14.5007 12.3871C15.1652 12.3871 15.7344 12.1507 16.208 11.6778C16.6817 11.2049 16.9181 10.6358 16.9173 9.97042C16.9165 9.30503 16.6801 8.73631 16.208 8.26425C15.736 7.7922 15.1668 7.55536 14.5007 7.55375C13.8345 7.55214 13.2657 7.78897 12.7945 8.26425C12.3232 8.73953 12.0864 9.30825 12.084 9.97042C12.0816 10.6326 12.3184 11.2017 12.7945 11.6778C13.2706 12.1539 13.8393 12.3903 14.5007 12.3871Z" fill="white"/>
</svg>
